<svg xmlns="http://www.w3.org/2000/svg" xmlns:xlink="http://www.w3.org/1999/xlink" width="500" zoomAndPan="magnify" viewBox="0 0 375 374.999991" height="500" preserveAspectRatio="xMidYMid meet" version="1.0"><defs><clipPath id="54188c58e8"><path d="M 57.484375 57.484375 L 317.515625 57.484375 L 317.515625 317.515625 L 57.484375 317.515625 Z M 57.484375 57.484375 " clip-rule="nonzero"/></clipPath><clipPath id="af629f19e8"><path d="M 187.5 57.484375 C 115.695312 57.484375 57.484375 115.695312 57.484375 187.5 C 57.484375 259.304688 115.695312 317.515625 187.5 317.515625 C 259.304688 317.515625 317.515625 259.304688 317.515625 187.5 C 317.515625 115.695312 259.304688 57.484375 187.5 57.484375 Z M 187.5 57.484375 " clip-rule="nonzero"/></clipPath><clipPath id="f0d08879c8"><path d="M 200 150 L 291.785156 150 L 291.785156 197 L 200 197 Z M 200 150 " clip-rule="nonzero"/></clipPath><clipPath id="44389e9081"><path d="M 150 83.285156 L 197 83.285156 L 197 175 L 150 175 Z M 150 83.285156 " clip-rule="nonzero"/></clipPath><clipPath id="c3ca5e52b8"><path d="M 83.285156 178 L 175 178 L 175 225 L 83.285156 225 Z M 83.285156 178 " clip-rule="nonzero"/></clipPath><clipPath id="d4fdf27701"><path d="M 178 200 L 225 200 L 225 291.785156 L 178 291.785156 Z M 178 200 " clip-rule="nonzero"/></clipPath></defs><rect x="-37.5" width="450" fill="#ffffff" y="-37.499999" height="449.999989" fill-opacity="1"/><rect x="-37.5" width="450" fill="#879b90" y="-37.499999" height="449.999989" fill-opacity="1"/><g clip-path="url(#54188c58e8)"><g clip-path="url(#af629f19e8)"><path fill="#ffffff" d="M 57.484375 57.484375 L 317.515625 57.484375 L 317.515625 317.515625 L 57.484375 317.515625 Z M 57.484375 57.484375 " fill-opacity="1" fill-rule="nonzero"/></g></g><g clip-path="url(#f0d08879c8)"><path fill="#1f5c63" d="M 241.21875 150.105469 C 240.019531 150.105469 238.816406 150.140625 237.625 150.214844 C 227.945312 163.351562 215.316406 174.1875 200.722656 181.757812 C 199.949219 182.15625 200.347656 183.332031 201.210938 183.179688 C 204.527344 182.578125 207.945312 182.265625 211.433594 182.265625 C 225.953125 182.265625 239.214844 187.671875 249.3125 196.578125 C 264.195312 194.316406 278.6875 188.910156 291.722656 180.339844 C 289.128906 175.503906 285.800781 170.960938 281.726562 166.878906 C 270.539062 155.695312 255.878906 150.105469 241.21875 150.105469 " fill-opacity="1" fill-rule="nonzero"/></g><path fill="#1f5c63" d="M 239.554688 106.296875 L 239.546875 106.296875 C 222.433594 106.296875 207.070312 113.796875 196.578125 125.699219 C 199.023438 141.832031 197.761719 158.421875 192.789062 174.089844 C 192.527344 174.925781 193.640625 175.472656 194.140625 174.753906 C 196.058594 171.984375 198.257812 169.347656 200.722656 166.878906 C 210.992188 156.613281 224.1875 151.054688 237.632812 150.214844 C 246.558594 138.097656 252.980469 124.019531 256.140625 108.746094 C 250.878906 107.15625 245.316406 106.296875 239.554688 106.296875 " fill-opacity="1" fill-rule="nonzero"/><g clip-path="url(#44389e9081)"><path fill="#1f5c63" d="M 180.335938 83.285156 C 175.5 85.878906 170.957031 89.207031 166.878906 93.28125 C 154.777344 105.382812 149.222656 121.546875 150.214844 137.382812 C 163.355469 147.0625 174.195312 159.691406 181.757812 174.289062 C 182.15625 175.0625 183.332031 174.660156 183.179688 173.800781 C 182.578125 170.484375 182.265625 167.066406 182.265625 163.574219 C 182.265625 149.054688 187.667969 135.792969 196.578125 125.695312 C 194.316406 110.816406 188.90625 96.320312 180.335938 83.285156 " fill-opacity="1" fill-rule="nonzero"/></g><path fill="#1f5c63" d="M 108.746094 118.878906 C 107.15625 124.132812 106.296875 129.699219 106.296875 135.464844 C 106.296875 152.578125 113.800781 167.941406 125.699219 178.433594 C 131.019531 177.628906 136.390625 177.226562 141.761719 177.226562 C 152.675781 177.226562 163.59375 178.894531 174.09375 182.226562 C 174.929688 182.488281 175.480469 181.378906 174.757812 180.878906 C 171.988281 178.957031 169.347656 176.757812 166.878906 174.292969 C 156.613281 164.023438 151.058594 150.828125 150.214844 137.386719 C 138.097656 128.457031 124.019531 122.035156 108.746094 118.878906 " fill-opacity="1" fill-rule="nonzero"/><g clip-path="url(#c3ca5e52b8)"><path fill="#1f5c63" d="M 125.695312 178.433594 C 110.8125 180.6875 96.320312 186.101562 83.285156 194.671875 C 85.878906 199.507812 89.207031 204.050781 93.28125 208.125 C 104.46875 219.3125 119.128906 224.90625 133.789062 224.90625 C 134.988281 224.90625 136.1875 224.867188 137.382812 224.789062 C 147.066406 211.648438 159.691406 200.816406 174.28125 193.25 C 175.058594 192.847656 174.65625 191.671875 173.796875 191.828125 C 170.480469 192.429688 167.0625 192.742188 163.570312 192.746094 C 149.054688 192.746094 135.792969 187.339844 125.695312 178.433594 " fill-opacity="1" fill-rule="nonzero"/></g><path fill="#1f5c63" d="M 182.21875 200.914062 C 182.484375 200.082031 181.371094 199.535156 180.871094 200.25 C 178.949219 203.023438 176.753906 205.660156 174.292969 208.132812 C 164.019531 218.398438 150.820312 223.953125 137.382812 224.792969 C 128.457031 236.914062 122.035156 250.992188 118.875 266.265625 C 124.128906 267.855469 129.695312 268.714844 135.453125 268.714844 C 135.453125 268.714844 135.457031 268.714844 135.457031 268.714844 C 152.578125 268.714844 167.933594 261.207031 178.433594 249.3125 C 175.984375 233.171875 177.25 216.585938 182.21875 200.914062 Z M 182.21875 200.914062 " fill-opacity="1" fill-rule="nonzero"/><g clip-path="url(#d4fdf27701)"><path fill="#1f5c63" d="M 193.25 200.71875 C 192.847656 199.945312 191.671875 200.34375 191.828125 201.203125 C 192.429688 204.523438 192.746094 207.945312 192.746094 211.4375 C 192.746094 225.957031 187.339844 239.21875 178.429688 249.3125 C 180.6875 264.195312 186.101562 278.683594 194.664062 291.722656 C 199.503906 289.128906 204.050781 285.800781 208.121094 281.726562 C 220.226562 269.625 225.777344 253.457031 224.789062 237.625 C 211.65625 227.945312 200.816406 215.316406 193.25 200.71875 Z M 193.25 200.71875 " fill-opacity="1" fill-rule="nonzero"/></g><path fill="#1f5c63" d="M 200.910156 192.785156 C 200.078125 192.523438 199.527344 193.632812 200.246094 194.132812 C 203.023438 196.054688 205.664062 198.246094 208.132812 200.71875 C 218.398438 210.988281 223.953125 224.1875 224.792969 237.628906 C 236.914062 246.554688 250.992188 252.976562 266.265625 256.132812 C 267.855469 250.878906 268.714844 245.3125 268.714844 239.546875 C 268.714844 222.433594 261.214844 207.070312 249.316406 196.578125 C 243.992188 197.382812 238.625 197.789062 233.253906 197.789062 C 222.335938 197.789062 211.414062 196.117188 200.910156 192.785156 Z M 200.910156 192.785156 " fill-opacity="1" fill-rule="nonzero"/></svg>