<svg xmlns="http://www.w3.org/2000/svg" xmlns:xlink="http://www.w3.org/1999/xlink" width="500" zoomAndPan="magnify" viewBox="0 0 375 374.999991" height="500" preserveAspectRatio="xMidYMid meet" version="1.0"><defs><clipPath id="8bf648108d"><path d="M 51.554688 51.554688 L 323.445312 51.554688 L 323.445312 323.445312 L 51.554688 323.445312 Z M 51.554688 51.554688 " clip-rule="nonzero"/></clipPath><clipPath id="64a1783b0f"><path d="M 187.5 51.554688 C 112.417969 51.554688 51.554688 112.417969 51.554688 187.5 C 51.554688 262.582031 112.417969 323.445312 187.5 323.445312 C 262.582031 323.445312 323.445312 262.582031 323.445312 187.5 C 323.445312 112.417969 262.582031 51.554688 187.5 51.554688 Z M 187.5 51.554688 " clip-rule="nonzero"/></clipPath><clipPath id="e13be3a607"><path d="M 200 148 L 296.78125 148 L 296.78125 197 L 200 197 Z M 200 148 " clip-rule="nonzero"/></clipPath><clipPath id="8997c691b3"><path d="M 148 78.53125 L 197 78.53125 L 197 175 L 148 175 Z M 148 78.53125 " clip-rule="nonzero"/></clipPath><clipPath id="d938df0379"><path d="M 78.53125 178 L 175 178 L 175 227 L 78.53125 227 Z M 78.53125 178 " clip-rule="nonzero"/></clipPath><clipPath id="5643347d7a"><path d="M 178 200 L 227 200 L 227 296.78125 L 178 296.78125 Z M 178 200 " clip-rule="nonzero"/></clipPath></defs><rect x="-37.5" width="450" fill="#ffffff" y="-37.499999" height="449.999989" fill-opacity="1"/><rect x="-37.5" width="450" fill="#5e17eb" y="-37.499999" height="449.999989" fill-opacity="1"/><g clip-path="url(#8bf648108d)"><g clip-path="url(#64a1783b0f)"><path fill="#ffffff" d="M 51.554688 51.554688 L 323.445312 51.554688 L 323.445312 323.445312 L 51.554688 323.445312 Z M 51.554688 51.554688 " fill-opacity="1" fill-rule="nonzero"/></g></g><g clip-path="url(#e13be3a607)"><path fill="#5e17eb" d="M 243.675781 148.402344 C 242.421875 148.402344 241.164062 148.441406 239.917969 148.519531 C 229.796875 162.253906 216.59375 173.585938 201.332031 181.5 C 200.523438 181.917969 200.941406 183.148438 201.839844 182.988281 C 205.3125 182.359375 208.882812 182.03125 212.53125 182.03125 C 227.714844 182.03125 241.582031 187.6875 252.140625 196.996094 C 267.699219 194.636719 282.855469 188.980469 296.484375 180.019531 C 293.773438 174.960938 290.296875 170.210938 286.035156 165.945312 C 274.339844 154.25 259.003906 148.402344 243.675781 148.402344 " fill-opacity="1" fill-rule="nonzero"/></g><path fill="#5e17eb" d="M 241.9375 102.59375 L 241.929688 102.59375 C 224.035156 102.59375 207.96875 110.4375 196.996094 122.882812 C 199.554688 139.753906 198.234375 157.097656 193.039062 173.484375 C 192.761719 174.355469 193.925781 174.929688 194.449219 174.179688 C 196.457031 171.28125 198.753906 168.523438 201.332031 165.945312 C 212.070312 155.207031 225.871094 149.394531 239.925781 148.519531 C 249.261719 135.847656 255.976562 121.128906 259.28125 105.15625 C 253.777344 103.492188 247.960938 102.59375 241.9375 102.59375 " fill-opacity="1" fill-rule="nonzero"/><g clip-path="url(#8997c691b3)"><path fill="#5e17eb" d="M 180.015625 78.53125 C 174.957031 81.242188 170.207031 84.722656 165.945312 88.984375 C 153.289062 101.640625 147.480469 118.542969 148.519531 135.101562 C 162.261719 145.222656 173.59375 158.425781 181.5 173.691406 C 181.921875 174.5 183.148438 174.082031 182.988281 173.183594 C 182.359375 169.710938 182.03125 166.140625 182.03125 162.488281 C 182.03125 147.304688 187.679688 133.4375 196.996094 122.878906 C 194.636719 107.324219 188.976562 92.160156 180.015625 78.53125 " fill-opacity="1" fill-rule="nonzero"/></g><path fill="#5e17eb" d="M 105.15625 115.753906 C 103.492188 121.242188 102.59375 127.066406 102.59375 133.09375 C 102.59375 150.988281 110.441406 167.050781 122.882812 178.027344 C 128.445312 177.183594 134.0625 176.765625 139.679688 176.765625 C 151.089844 176.765625 162.507812 178.503906 173.488281 181.988281 C 174.359375 182.265625 174.9375 181.105469 174.183594 180.582031 C 171.285156 178.570312 168.523438 176.273438 165.945312 173.695312 C 155.207031 162.957031 149.398438 149.15625 148.519531 135.105469 C 135.847656 125.765625 121.128906 119.050781 105.15625 115.753906 " fill-opacity="1" fill-rule="nonzero"/><g clip-path="url(#d938df0379)"><path fill="#5e17eb" d="M 122.878906 178.027344 C 107.316406 180.382812 92.160156 186.042969 78.53125 195.003906 C 81.242188 200.0625 84.722656 204.8125 88.984375 209.074219 C 100.683594 220.769531 116.011719 226.621094 131.34375 226.621094 C 132.59375 226.621094 133.851562 226.578125 135.101562 226.5 C 145.226562 212.757812 158.425781 201.429688 173.683594 193.519531 C 174.496094 193.097656 174.078125 191.867188 173.175781 192.03125 C 169.707031 192.660156 166.136719 192.988281 162.484375 192.992188 C 147.304688 192.992188 133.4375 187.335938 122.878906 178.027344 " fill-opacity="1" fill-rule="nonzero"/></g><path fill="#5e17eb" d="M 181.984375 201.535156 C 182.261719 200.664062 181.09375 200.089844 180.574219 200.839844 C 178.566406 203.738281 176.269531 206.492188 173.695312 209.078125 C 162.953125 219.816406 149.152344 225.625 135.101562 226.503906 C 125.765625 239.175781 119.050781 253.894531 115.75 269.867188 C 121.238281 271.53125 127.0625 272.429688 133.085938 272.429688 C 133.085938 272.429688 133.089844 272.429688 133.089844 272.429688 C 150.988281 272.429688 167.046875 264.578125 178.027344 252.140625 C 175.464844 235.265625 176.789062 217.917969 181.984375 201.535156 Z M 181.984375 201.535156 " fill-opacity="1" fill-rule="nonzero"/><g clip-path="url(#5643347d7a)"><path fill="#5e17eb" d="M 193.519531 201.328125 C 193.097656 200.519531 191.867188 200.9375 192.03125 201.835938 C 192.660156 205.304688 192.992188 208.882812 192.992188 212.535156 C 192.992188 227.71875 187.335938 241.585938 178.019531 252.140625 C 180.382812 267.699219 186.042969 282.851562 195 296.484375 C 200.058594 293.773438 204.8125 290.296875 209.070312 286.035156 C 221.722656 273.378906 227.53125 256.476562 226.5 239.917969 C 212.761719 229.796875 201.429688 216.59375 193.519531 201.328125 Z M 193.519531 201.328125 " fill-opacity="1" fill-rule="nonzero"/></g><path fill="#5e17eb" d="M 201.527344 193.03125 C 200.65625 192.757812 200.082031 193.917969 200.835938 194.441406 C 203.738281 196.453125 206.5 198.742188 209.078125 201.328125 C 219.816406 212.066406 225.625 225.871094 226.503906 239.921875 C 239.175781 249.257812 253.894531 255.972656 269.867188 259.269531 C 271.53125 253.777344 272.429688 247.957031 272.429688 241.929688 C 272.429688 224.035156 264.585938 207.96875 252.144531 196.996094 C 246.578125 197.839844 240.964844 198.265625 235.347656 198.265625 C 223.933594 198.265625 212.511719 196.515625 201.527344 193.03125 Z M 201.527344 193.03125 " fill-opacity="1" fill-rule="nonzero"/></svg>