<svg xmlns="http://www.w3.org/2000/svg" xmlns:xlink="http://www.w3.org/1999/xlink" width="1920" zoomAndPan="magnify" viewBox="0 0 1440 1019.250009" height="1359" preserveAspectRatio="xMidYMid meet" version="1.0"><defs><clipPath id="812a7783f9"><path d="M 168.636719 411.316406 L 255.503906 411.316406 L 255.503906 521.519531 L 168.636719 521.519531 Z M 168.636719 411.316406 " clip-rule="nonzero"/></clipPath><clipPath id="5534f04b85"><path d="M 0.53125 0.00390625 L 1439.46875 0.00390625 L 1439.46875 1017.753906 L 0.53125 1017.753906 Z M 0.53125 0.00390625 " clip-rule="nonzero"/></clipPath><clipPath id="ad0b339c74"><path d="M 0.53125 0.00390625 L 993 0.00390625 L 993 849 L 0.53125 849 Z M 0.53125 0.00390625 " clip-rule="nonzero"/></clipPath><clipPath id="5a175cae4b"><path d="M 0.53125 467 L 1439.46875 467 L 1439.46875 974 L 0.53125 974 Z M 0.53125 467 " clip-rule="nonzero"/></clipPath><clipPath id="59cd25989d"><path d="M 530 723 L 1439.46875 723 L 1439.46875 1017.753906 L 530 1017.753906 Z M 530 723 " clip-rule="nonzero"/></clipPath><clipPath id="0f32c9096a"><path d="M 0.53125 854 L 330 854 L 330 1017.753906 L 0.53125 1017.753906 Z M 0.53125 854 " clip-rule="nonzero"/></clipPath><clipPath id="bcf943305d"><path d="M 0.53125 0.00390625 L 650 0.00390625 L 650 487 L 0.53125 487 Z M 0.53125 0.00390625 " clip-rule="nonzero"/></clipPath><clipPath id="7f4a891962"><path d="M 810 0.00390625 L 1439.46875 0.00390625 L 1439.46875 560 L 810 560 Z M 810 0.00390625 " clip-rule="nonzero"/></clipPath><clipPath id="b4db39912a"><path d="M 1127 0.00390625 L 1439.46875 0.00390625 L 1439.46875 298 L 1127 298 Z M 1127 0.00390625 " clip-rule="nonzero"/></clipPath><clipPath id="ae55a01352"><path d="M 0.53125 0.00390625 L 229 0.00390625 L 229 186 L 0.53125 186 Z M 0.53125 0.00390625 " clip-rule="nonzero"/></clipPath><clipPath id="bf3c183f9a"><path d="M 747 950 L 1296 950 L 1296 1017.753906 L 747 1017.753906 Z M 747 950 " clip-rule="nonzero"/></clipPath></defs><g clip-path="url(#812a7783f9)"><path fill="#004aad" d="M 168.636719 411.316406 L 255.503906 411.316406 L 255.503906 521.597656 L 168.636719 521.597656 Z M 168.636719 411.316406 " fill-opacity="1" fill-rule="nonzero"/></g><g clip-path="url(#5534f04b85)"><path fill="#ecb6a6" d="M 1439.46875 0.359375 L 1439.46875 1017.691406 L 0.527344 1017.691406 L 0.527344 0.359375 Z M 1439.46875 0.359375 " fill-opacity="1" fill-rule="nonzero"/></g><g clip-path="url(#ad0b339c74)"><path fill="#5ca27a" d="M 723.605469 77.617188 C 717.320312 101.140625 701.476562 115.96875 682.835938 130.527344 C 664.652344 144.730469 645.898438 156.523438 622.714844 158.097656 C 592.515625 160.148438 565.328125 169.648438 540.515625 185.753906 C 533.984375 189.996094 529.511719 197.40625 524.441406 203.628906 C 521.070312 207.769531 518.730469 212.75 515.199219 216.742188 C 501.0625 232.703125 495.09375 268.195312 506.582031 285.089844 C 522.632812 308.679688 541.585938 329.191406 572.070312 336.667969 C 614.246094 347.003906 656.867188 353.882812 700.167969 356.457031 C 736.0625 358.59375 772.152344 358.101562 807.941406 361.191406 C 835.492188 363.570312 863.082031 368.257812 886.15625 385.878906 C 900.949219 397.175781 912.625 411.710938 917.519531 428.371094 C 924.675781 452.765625 922.835938 474.011719 892.6875 487.648438 C 858.105469 503.285156 825.945312 497.246094 796.441406 477.558594 C 759.425781 452.867188 724.8125 424.703125 687.484375 400.507812 C 668.859375 388.433594 647.066406 380.210938 625.691406 373.179688 C 591.171875 361.828125 555.097656 357.378906 518.773438 361.457031 C 483.941406 365.355469 448.988281 371.632812 421.269531 394.636719 C 400.9375 411.503906 387.550781 433.835938 390.78125 461.050781 C 396.667969 510.648438 408.402344 558.675781 434.769531 602.488281 C 447.054688 622.910156 456.902344 644.71875 468.0625 665.785156 C 473.871094 676.753906 481.117188 687.078125 485.988281 698.402344 C 497.726562 725.703125 511.210938 752.824219 496.785156 783.746094 C 488.832031 800.792969 470.214844 807.746094 454.097656 797.875 C 431.183594 783.851562 413.945312 765.207031 405.171875 739.835938 C 397.128906 716.605469 387.675781 693.6875 381.742188 669.941406 C 374.09375 639.304688 370.125 607.804688 363.121094 576.992188 C 354.488281 538.96875 340.828125 502.402344 321.359375 468.429688 C 306.582031 442.671875 283.90625 423.96875 257.832031 408.972656 C 237.152344 397.085938 214.230469 396.449219 191.527344 394.476562 C 161.585938 391.871094 134.320312 399.867188 109.195312 415.566406 C 107.980469 416.320312 106.769531 417.378906 105.4375 417.609375 C 87.722656 420.683594 77.785156 433.976562 68.589844 446.652344 C 60.820312 457.351562 56.398438 470.363281 50.4375 482.328125 C 39.628906 504.035156 37.984375 527.738281 34.738281 551.085938 C 30.542969 581.359375 20.074219 608.148438 0.527344 630.183594 L 0.527344 761.628906 C 12.390625 762.089844 24.359375 761.136719 36.300781 758.800781 C 61.378906 753.886719 82.65625 739.046875 95.730469 716.574219 C 104.566406 701.40625 111.4375 685.054688 118.175781 668.828125 C 127.316406 646.792969 132.410156 622.566406 144.75 602.523438 C 168.203125 564.453125 200.023438 536.988281 250.429688 542.464844 C 281.210938 545.808594 304.546875 562.863281 317.621094 589.222656 C 329.097656 612.363281 336.535156 637.664062 343.554688 662.605469 C 348.777344 681.164062 348.800781 701.128906 354.125 719.644531 C 364.0625 754.222656 378.265625 786.769531 401.523438 815.757812 C 415.988281 833.78125 432.730469 844.429688 454.898438 847.605469 C 487.011719 852.207031 526.578125 838.082031 542.859375 802.484375 C 551.84375 782.863281 550.566406 764.101562 548.09375 744.078125 C 544.351562 713.78125 531.578125 687.027344 517.257812 660.601562 C 498.546875 626.085938 483.246094 590.496094 483.695312 550.378906 C 483.722656 548.277344 483.550781 545.972656 484.335938 544.109375 C 494.53125 519.945312 494.601562 491.296875 517 472.5625 C 521.851562 468.511719 527.324219 464.886719 533.0625 462.179688 C 567.863281 445.757812 603.929688 447.433594 640.578125 455.007812 C 686.636719 464.535156 724.3125 489.3125 761.917969 515.320312 C 810.496094 548.917969 864.15625 567.054688 924.835938 557.617188 C 942.136719 554.925781 955.707031 545.695312 967.410156 533.582031 C 972.433594 528.378906 976.847656 522.605469 981.535156 517.089844 C 988.808594 508.542969 991.382812 498.964844 991.980469 487.625 C 993.402344 460.476562 988.527344 435.242188 973.390625 412.3125 C 968.515625 404.933594 963.042969 397.792969 956.9375 391.359375 C 928.519531 361.367188 896.1875 335.953125 862.6875 311.441406 C 835.167969 291.308594 810.117188 267.660156 785.75 243.832031 C 772.730469 231.101562 763.132812 214.917969 752.761719 199.789062 C 750.207031 196.0625 750.882812 190.300781 749.730469 185.554688 C 748.3125 179.726562 747.472656 173.511719 744.71875 168.304688 C 738.816406 157.148438 743.621094 147.253906 747.121094 137.125 C 747.621094 135.671875 749.648438 134.199219 751.269531 133.710938 C 760.828125 130.84375 770.324219 127.417969 780.117188 125.75 C 807.390625 121.101562 834.722656 119.714844 862.480469 123.074219 C 884.507812 125.746094 920.171875 101.742188 923.445312 82.8125 C 926.371094 65.835938 925.292969 49.570312 913.640625 34.371094 C 904.136719 21.972656 894.175781 10.363281 881.886719 0.359375 L 681.691406 0.359375 C 688.210938 4.605469 694.726562 8.847656 701.375 12.890625 C 725.703125 27.65625 730.792969 50.71875 723.605469 77.617188 " fill-opacity="1" fill-rule="nonzero"/></g><g clip-path="url(#5a175cae4b)"><path fill="#5ca27a" d="M 563.207031 939.746094 C 597.753906 914.710938 616.464844 879.5625 619.085938 837.074219 C 620.765625 809.765625 621.363281 782.375 623.609375 755.113281 C 626.261719 722.996094 651.871094 693.480469 680.925781 692.089844 C 707.039062 690.847656 732.535156 694.660156 754.671875 712.359375 C 767.507812 722.625 783.6875 729.605469 799.339844 735.628906 C 823.414062 744.90625 845.914062 757.851562 872.339844 761.875 C 912.78125 768.035156 951.902344 765.015625 987.71875 746.0625 C 1009.492188 734.546875 1029.886719 719.371094 1048.164062 702.933594 C 1089.46875 665.792969 1138.148438 645.515625 1191.84375 631.949219 C 1224.980469 623.574219 1256.84375 626.121094 1288.023438 633.351562 C 1307.746094 637.929688 1326.78125 650.105469 1343.136719 662.605469 C 1364.191406 678.695312 1382.734375 698.070312 1401.457031 716.886719 C 1414.769531 730.257812 1426.921875 744.726562 1439.46875 758.824219 L 1439.46875 690.539062 C 1421.984375 661.335938 1402.503906 633.539062 1378.738281 608.539062 C 1358.582031 587.339844 1340.789062 563.890625 1319.636719 543.761719 C 1302.234375 527.207031 1282.492188 512.398438 1261.804688 499.976562 C 1247.296875 491.273438 1229.449219 487.867188 1213.082031 482.148438 C 1174.433594 468.644531 1135 462.472656 1094.582031 472.855469 C 1069.652344 479.257812 1051.207031 495.511719 1034.496094 514.039062 C 1014.40625 536.324219 995.125 559.558594 972.984375 579.746094 C 950.421875 600.320312 924 616.726562 892.277344 620.566406 C 874.867188 622.671875 857.078125 622.171875 839.460938 622.15625 C 819.515625 622.144531 798.863281 621.375 781.785156 610.875 C 758.628906 596.632812 736.011719 581.035156 715.363281 563.535156 C 691.605469 543.410156 668.542969 522.515625 637.414062 514.695312 C 605.792969 506.75 589.136719 504.832031 573.304688 530.253906 C 561.851562 548.636719 555.511719 570.398438 549.011719 591.285156 C 538.910156 623.714844 548.417969 655.089844 556.972656 686.460938 C 563.332031 709.773438 566.722656 733.921875 574.054688 756.898438 C 581.730469 780.933594 582.371094 804.800781 577.765625 828.851562 C 574.425781 846.28125 563.023438 859.746094 547.097656 867.609375 C 525.636719 878.210938 503.035156 886.65625 478.441406 887 C 472.785156 887.078125 466.832031 885.386719 461.464844 883.363281 C 442.460938 876.203125 423.867188 867.953125 404.707031 861.246094 C 386.039062 854.714844 375 840.5 364.601562 825.6875 C 343.785156 796.039062 332.632812 762.761719 324.90625 727.699219 C 318.492188 698.582031 309.152344 669.960938 299.273438 641.734375 C 292.652344 622.820312 278.503906 608.175781 262.886719 595.421875 C 251.976562 586.515625 239.085938 586.636719 226.472656 590.769531 C 215.753906 594.28125 205.136719 598.554688 195.25 603.867188 C 189.953125 606.714844 185.855469 612.132812 181.988281 616.980469 C 176.542969 623.816406 171.289062 630.902344 166.863281 638.394531 C 152.851562 662.160156 137.765625 685.488281 125.90625 710.261719 C 112.824219 737.574219 98.636719 764.015625 72.832031 781.109375 C 57.691406 791.136719 38.792969 795.554688 22.339844 803.917969 C 15.207031 807.550781 7.921875 810.0625 0.527344 811.839844 L 0.527344 903.429688 C 12.390625 898.382812 23.8125 892.335938 34.667969 885.179688 C 72.277344 860.375 100.648438 826.296875 123.730469 788.039062 C 134.757812 769.765625 145.511719 751.027344 159.125 734.675781 C 167.664062 724.417969 180.496094 716.625 192.890625 710.679688 C 202.78125 705.929688 211.746094 713.898438 219.1875 720.414062 C 234.757812 734.066406 239.273438 753.039062 242.558594 771.839844 C 245.453125 788.367188 244.671875 805.492188 247.386719 822.066406 C 252.503906 853.296875 265.515625 882.078125 286.058594 906.015625 C 297.511719 919.359375 314.394531 928.820312 330.078125 938 C 352.75 951.28125 376.257812 963.324219 402.5625 968.902344 C 439.121094 976.640625 475.113281 973.242188 510.207031 962.285156 C 528.542969 956.558594 548.105469 950.691406 563.207031 939.746094 " fill-opacity="1" fill-rule="nonzero"/></g><g clip-path="url(#59cd25989d)"><path fill="#5ca27a" d="M 1258.496094 869.175781 C 1273.320312 879.050781 1285.292969 890.734375 1294.832031 906.386719 C 1305.753906 924.304688 1321.84375 939.15625 1335.019531 955.84375 C 1351.136719 976.261719 1366.890625 996.9375 1382.550781 1017.691406 L 1439.46875 1017.691406 L 1439.46875 998.609375 C 1416.242188 952.617188 1393.308594 906.476562 1369.296875 860.878906 C 1361.523438 846.121094 1352.484375 831.246094 1340.917969 819.292969 C 1308.371094 785.660156 1270.136719 759.261719 1226.015625 741.710938 C 1200.921875 731.730469 1175.585938 721.308594 1147.761719 723.933594 C 1136.585938 724.992188 1126.003906 731.167969 1114.8125 733.023438 C 1099.4375 735.5625 1085.875 741.660156 1074.742188 751.492188 C 1042.972656 779.546875 1011.578125 808.03125 980.839844 837.15625 C 967.640625 849.660156 955.195312 862.832031 937.816406 869.609375 C 901.273438 883.851562 866.695312 877.019531 834.320312 857.828125 C 813.488281 845.472656 794.191406 830.671875 773.546875 818.003906 C 748.578125 802.683594 711.789062 806.988281 688.957031 824.996094 C 667.355469 842.039062 653.046875 863.933594 643.191406 888.347656 C 632.121094 915.796875 620.445312 942.589844 602.414062 966.523438 C 584.765625 989.957031 562.824219 1006.5 534.339844 1016.554688 C 533.210938 1016.953125 532.078125 1017.316406 530.949219 1017.691406 L 642.03125 1017.691406 C 661.34375 987.035156 684.207031 959.039062 715.410156 939.410156 C 733.082031 928.292969 751.878906 917.21875 773.910156 916.207031 C 795.511719 915.222656 815.757812 919.554688 834.746094 931.125 C 854.226562 942.984375 873.234375 957.433594 896.644531 960.5 C 930.007812 964.867188 962.15625 957.925781 992.832031 944.816406 C 996.769531 943.136719 1000.355469 939.960938 1003.226562 936.738281 C 1020.28125 917.601562 1036.546875 897.765625 1054.101562 879.082031 C 1077.5625 854.105469 1109.015625 843.476562 1141.703125 836.464844 C 1179.863281 828.273438 1214.414062 837.328125 1245.414062 860.21875 C 1249.660156 863.347656 1254.097656 866.242188 1258.496094 869.175781 " fill-opacity="1" fill-rule="nonzero"/></g><g clip-path="url(#0f32c9096a)"><path fill="#5ca27a" d="M 56.878906 1017.691406 C 56.960938 1017.554688 57.039062 1017.414062 57.117188 1017.28125 C 58.222656 1015.3125 58.894531 1012.964844 60.417969 1011.390625 C 76.621094 994.59375 92.113281 977.007812 109.570312 961.550781 C 120.347656 952.011719 135.128906 956.242188 148.105469 958.644531 C 172.535156 963.15625 188.511719 979.699219 204.382812 996.910156 C 210.980469 1004.066406 217.933594 1010.921875 225.046875 1017.691406 L 329.179688 1017.691406 C 317.03125 1014.117188 305.070312 1009.46875 293.367188 1003.351562 C 263.117188 987.550781 240.527344 966.777344 227.292969 935.890625 C 218.542969 915.457031 216.292969 892.785156 202.476562 873.960938 C 192.871094 860.863281 176.632812 850.632812 163.386719 855.699219 C 138.140625 865.34375 112.078125 874.082031 88.824219 887.332031 C 47.976562 910.589844 21.417969 946.996094 3.113281 989.070312 C 2.230469 991.09375 1.375 993.121094 0.527344 995.164062 L 0.527344 1017.691406 L 56.878906 1017.691406 " fill-opacity="1" fill-rule="nonzero"/></g><g clip-path="url(#bcf943305d)"><path fill="#5ca27a" d="M 486.179688 47.683594 C 470.625 59.003906 454.085938 62.679688 435.082031 56.050781 C 410.304688 47.417969 385.589844 37.632812 359.96875 32.644531 C 341.078125 28.96875 320.582031 30.511719 301.148438 32.675781 C 256.808594 37.621094 229.761719 64.464844 213.546875 103.417969 C 213.4375 103.675781 213.253906 103.945312 213.257812 104.210938 C 213.601562 120.578125 208.957031 137.214844 216.519531 153.191406 C 224.585938 170.238281 234.679688 185.960938 244.902344 201.878906 C 256.320312 219.648438 262.578125 240.898438 269.058594 261.253906 C 273.527344 275.265625 259.652344 290.835938 240.96875 295.449219 C 227.507812 298.769531 214.117188 296.847656 202.769531 289.753906 C 196.699219 285.960938 193.519531 277.929688 188.609375 272.15625 C 181.335938 263.597656 174.425781 254.550781 166.058594 247.117188 C 147.105469 230.269531 128.378906 212.894531 107.664062 198.296875 C 84.945312 182.296875 60.007812 168.085938 32.386719 162.894531 C 22.058594 160.949219 11.328125 160.699219 0.527344 161.09375 L 0.527344 486.992188 C 2.117188 485.382812 3.667969 483.667969 5.167969 481.785156 C 22.621094 459.832031 23.121094 434.570312 23.261719 409.046875 C 23.386719 385.609375 21.417969 362.117188 22.441406 338.734375 C 23.246094 320.367188 30.367188 303.082031 46.210938 291.976562 C 65.3125 278.59375 87.066406 275.226562 110.839844 276.902344 C 153.070312 279.878906 184.613281 299.542969 207.082031 332.878906 C 222.207031 355.324219 240.738281 373.199219 265.015625 384.984375 C 286.371094 395.347656 309.171875 404.921875 333.242188 400.777344 C 351.089844 397.710938 368.304688 389.632812 385.015625 382.117188 C 415.351562 368.476562 436.363281 347.347656 440.234375 312.800781 C 441.652344 300.183594 440.734375 288.839844 431.179688 280.132812 C 408.921875 259.839844 387.5 238.273438 363.089844 220.753906 C 336.136719 201.40625 323.347656 178.507812 330.632812 146.371094 C 334.765625 128.160156 342.722656 110.976562 361.558594 103.851562 C 395.582031 90.984375 429.171875 94.066406 462.335938 109.324219 C 480.722656 117.785156 499.980469 127.234375 519.675781 129.582031 C 564.613281 134.941406 605.113281 121.191406 636.519531 88.777344 C 644.566406 80.480469 649.054688 65.820312 649.15625 54.035156 C 649.28125 39.835938 641.792969 26.136719 629.996094 16.132812 C 623.695312 10.785156 617.214844 5.574219 610.632812 0.359375 L 485.953125 0.359375 C 488.765625 4.597656 491.585938 8.832031 494.042969 13.25 C 501.472656 26.597656 498.609375 38.636719 486.179688 47.683594 " fill-opacity="1" fill-rule="nonzero"/></g><g clip-path="url(#7f4a891962)"><path fill="#5ca27a" d="M 1439.46875 326.308594 C 1416.828125 313.078125 1392.242188 305.253906 1365.609375 302.085938 C 1314.039062 295.957031 1268.121094 309.582031 1225.648438 337.453125 C 1201.851562 353.070312 1175.664062 364.863281 1147.792969 369.929688 C 1136.0625 372.066406 1122.058594 364.722656 1109.632812 360.21875 C 1092.03125 353.839844 1090.34375 338.78125 1090.828125 323.058594 C 1091.058594 315.503906 1090.949219 307.933594 1090.949219 300.367188 C 1090.945312 278.199219 1073.054688 251.652344 1053.472656 247.25 C 1041.976562 244.671875 1029.777344 245.125 1017.925781 243.96875 C 989.578125 241.207031 962.867188 234.390625 941.632812 214.15625 C 934.542969 207.394531 934.4375 203.476562 941.917969 196.613281 C 953.71875 185.78125 968.726562 184.523438 983.75 183.617188 C 1022.042969 181.3125 1060.382812 179.546875 1098.644531 176.769531 C 1126.125 174.773438 1143.816406 157.878906 1156.859375 136.015625 C 1166.617188 119.667969 1174.976562 102.519531 1183.914062 85.707031 C 1184.707031 84.222656 1185.84375 82.515625 1185.695312 81.019531 C 1184.121094 64.835938 1186.714844 47.804688 1174.640625 33.785156 C 1170.847656 29.386719 1169.210938 23.257812 1165.648438 18.609375 C 1160.863281 12.367188 1155.617188 6.445312 1150.207031 0.359375 L 970.261719 0.359375 C 978.230469 11.078125 988.21875 21.011719 993.277344 32.925781 C 1000.050781 48.878906 999.273438 66.371094 996.59375 83.863281 C 992.152344 112.851562 977.207031 129.894531 949.191406 133.816406 C 927.714844 136.824219 906.160156 139.324219 884.609375 141.785156 C 864.644531 144.070312 844.671875 145.128906 827.800781 158.503906 C 812.601562 170.554688 805.230469 198.574219 814.132812 214.761719 C 825.128906 234.75 842.527344 249.117188 861.460938 260.199219 C 878.566406 270.21875 898.492188 276.03125 917.695312 282.128906 C 948.867188 292.027344 981.191406 299.152344 1005.3125 323.257812 C 1013.445312 331.382812 1019.132812 340.4375 1017.777344 352.472656 C 1016.339844 365.265625 1013.621094 378.136719 1014.179688 390.863281 C 1014.691406 402.5 1016.519531 415.15625 1021.871094 425.296875 C 1032.886719 446.167969 1060.785156 449.046875 1076.222656 444.488281 C 1106.941406 435.414062 1137.476562 425.71875 1168.011719 416.066406 C 1187.277344 409.980469 1206.8125 408.800781 1227.039062 409.523438 C 1260.859375 410.746094 1292.902344 419.125 1317.945312 440.378906 C 1353.011719 470.15625 1384.808594 503.640625 1417.675781 535.863281 C 1425.28125 543.320312 1432.363281 551.273438 1439.46875 559.078125 L 1439.46875 326.308594 " fill-opacity="1" fill-rule="nonzero"/></g><g clip-path="url(#b4db39912a)"><path fill="#5ca27a" d="M 1305.605469 234.023438 C 1325.15625 208.226562 1349.542969 189.609375 1381.027344 181.726562 C 1394.882812 178.265625 1410.195312 179.753906 1424.820312 180.085938 C 1429.71875 180.195312 1434.59375 181.175781 1439.46875 182.160156 L 1439.46875 0.359375 L 1259.335938 0.359375 C 1264.050781 8.671875 1269.757812 16.695312 1270.925781 25.300781 C 1275.691406 60.425781 1273.742188 95.453125 1260.953125 129.171875 C 1248.519531 161.960938 1225.257812 181.796875 1189.011719 185.757812 C 1181.296875 186.605469 1173.566406 187.371094 1165.859375 188.28125 C 1149.941406 190.164062 1137.527344 195.371094 1130.628906 211.933594 C 1125.632812 223.929688 1127.171875 234.597656 1128.5 246.300781 C 1131.886719 276.164062 1141.425781 285.820312 1170.402344 294.332031 C 1198.316406 302.527344 1223.402344 293.453125 1248.039062 284.605469 C 1273.34375 275.523438 1290.105469 254.484375 1305.605469 234.023438 " fill-opacity="1" fill-rule="nonzero"/></g><g clip-path="url(#ae55a01352)"><path fill="#5ca27a" d="M 0.527344 95.539062 C 25.34375 99.40625 47.664062 108.410156 61.636719 130.679688 C 75.183594 152.261719 91.527344 170.285156 115.148438 181.722656 C 130.113281 188.96875 143.457031 186.179688 156.769531 178.34375 C 170.472656 170.273438 176.910156 158.277344 176.53125 142.832031 C 176.183594 128.683594 175.445312 114.546875 174.902344 100.40625 C 173.996094 76.957031 184.097656 56.617188 196.527344 38.046875 C 205.632812 24.441406 217.574219 12.636719 228.503906 0.359375 L 0.527344 0.359375 L 0.527344 95.539062 " fill-opacity="1" fill-rule="nonzero"/></g><g clip-path="url(#bf3c183f9a)"><path fill="#5ca27a" d="M 1295.640625 1017.691406 C 1275.269531 991.003906 1251.191406 968.8125 1217.375 957.988281 C 1182.902344 946.953125 1148.015625 948.121094 1114.054688 957.683594 C 1082.265625 966.625 1051.328125 978.683594 1020.4375 990.40625 C 976.921875 1006.933594 933.421875 1011.855469 888.621094 995.359375 C 866.742188 987.300781 844.015625 986.429688 820.6875 989.042969 C 805.648438 990.726562 791.769531 993.375 779.449219 1002.476562 C 774.953125 1005.796875 769.203125 1007.5 764.03125 1009.953125 C 758.574219 1012.53125 753.113281 1015.109375 747.664062 1017.691406 L 1295.640625 1017.691406 " fill-opacity="1" fill-rule="nonzero"/></g></svg>