<svg xmlns="http://www.w3.org/2000/svg" xmlns:xlink="http://www.w3.org/1999/xlink" width="1808" zoomAndPan="magnify" viewBox="0 0 1356 483.749988" height="645" preserveAspectRatio="xMidYMid meet" version="1.0"><defs><clipPath id="345629d5df"><path d="M 217.914062 120.164062 L 460.785156 120.164062 L 460.785156 363.035156 L 217.914062 363.035156 Z M 217.914062 120.164062 " clip-rule="nonzero"/></clipPath><clipPath id="63f3a911eb"><path d="M 339.347656 120.164062 C 272.28125 120.164062 217.914062 174.53125 217.914062 241.597656 C 217.914062 308.667969 272.28125 363.035156 339.347656 363.035156 C 406.417969 363.035156 460.785156 308.667969 460.785156 241.597656 C 460.785156 174.53125 406.417969 120.164062 339.347656 120.164062 Z M 339.347656 120.164062 " clip-rule="nonzero"/></clipPath><clipPath id="e656b0c5fa"><path d="M 81.097656 10.242188 L 324 10.242188 L 324 222.757812 L 81.097656 222.757812 Z M 81.097656 10.242188 " clip-rule="nonzero"/></clipPath><clipPath id="b1a9a552fd"><path d="M 202.535156 10.242188 L 323.96875 222.757812 L 81.097656 222.757812 Z M 202.535156 10.242188 " clip-rule="nonzero"/></clipPath><clipPath id="da3c9b30f9"><path d="M 435.472656 0 L 678.347656 0 L 678.347656 242.875 L 435.472656 242.875 Z M 435.472656 0 " clip-rule="nonzero"/></clipPath><clipPath id="d600c4b138"><path d="M 435.472656 222.757812 L 678.347656 222.757812 L 678.347656 465.632812 L 435.472656 465.632812 Z M 435.472656 222.757812 " clip-rule="nonzero"/></clipPath><clipPath id="1d7d623437"><path d="M 516.476562 459.933594 C 528.925781 463.375 543.082031 465.632812 556.976562 465.632812 C 570.871094 465.632812 584.238281 463.699219 596.558594 460.257812 C 596.824219 460.148438 597.085938 460.148438 597.347656 460.042969 C 643.613281 446.28125 677.691406 409.941406 678.347656 367.472656 L 678.347656 222.757812 L 435.472656 222.757812 L 435.472656 367.367188 C 436.128906 410.15625 469.683594 446.496094 516.476562 459.933594 Z M 516.476562 459.933594 " clip-rule="nonzero"/></clipPath><clipPath id="64a7affc36"><path d="M 0.351562 222.007812 L 678.347656 222.007812 L 678.347656 261.191406 L 0.351562 261.191406 Z M 0.351562 222.007812 " clip-rule="nonzero"/></clipPath><clipPath id="758a08c1d0"><path d="M 81 260.433594 L 217.910156 260.433594 L 217.910156 372.109375 L 81 372.109375 Z M 81 260.433594 " clip-rule="nonzero"/></clipPath><clipPath id="c57e189561"><path d="M 149.503906 372.109375 L 81.097656 260.433594 L 217.910156 260.433594 Z M 149.503906 372.109375 " clip-rule="nonzero"/></clipPath><clipPath id="d81fc92d20"><path d="M 435.472656 89.261719 L 568.96875 89.261719 L 568.96875 222.757812 L 435.472656 222.757812 Z M 435.472656 89.261719 " clip-rule="nonzero"/></clipPath><clipPath id="97d96cfb64"><path d="M 895.160156 120.371094 L 1138.035156 120.371094 L 1138.035156 363.246094 L 895.160156 363.246094 Z M 895.160156 120.371094 " clip-rule="nonzero"/></clipPath><clipPath id="3375a9d0b4"><path d="M 1016.597656 363.246094 C 1083.667969 363.246094 1138.035156 308.875 1138.035156 241.808594 C 1138.035156 174.738281 1083.667969 120.371094 1016.597656 120.371094 C 949.53125 120.371094 895.160156 174.738281 895.160156 241.808594 C 895.160156 308.875 949.53125 363.246094 1016.597656 363.246094 Z M 1016.597656 363.246094 " clip-rule="nonzero"/></clipPath><clipPath id="525ba015f5"><path d="M 1031.621094 260.648438 L 1274.851562 260.648438 L 1274.851562 473.164062 L 1031.621094 473.164062 Z M 1031.621094 260.648438 " clip-rule="nonzero"/></clipPath><clipPath id="6f040b7f5f"><path d="M 1153.414062 473.164062 L 1031.976562 260.648438 L 1274.851562 260.648438 Z M 1153.414062 473.164062 " clip-rule="nonzero"/></clipPath><clipPath id="69f1164ef0"><path d="M 677.597656 240.53125 L 920.472656 240.53125 L 920.472656 483.40625 L 677.597656 483.40625 Z M 677.597656 240.53125 " clip-rule="nonzero"/></clipPath><clipPath id="e43ae2e359"><path d="M 677.597656 17.773438 L 920.472656 17.773438 L 920.472656 260.648438 L 677.597656 260.648438 Z M 677.597656 17.773438 " clip-rule="nonzero"/></clipPath><clipPath id="81a5b4a0d5"><path d="M 839.472656 23.472656 C 827.019531 20.03125 812.863281 17.773438 798.972656 17.773438 C 785.078125 17.773438 771.707031 19.710938 759.386719 23.148438 C 759.125 23.257812 758.863281 23.257812 758.601562 23.363281 C 712.332031 37.125 678.253906 73.464844 677.597656 115.933594 L 677.597656 260.648438 L 920.472656 260.648438 L 920.472656 116.042969 C 919.816406 73.25 886.265625 36.910156 839.472656 23.472656 Z M 839.472656 23.472656 " clip-rule="nonzero"/></clipPath><clipPath id="60538df587"><path d="M 677.589844 222.214844 L 1355.589844 222.214844 L 1355.589844 261.398438 L 677.589844 261.398438 Z M 677.589844 222.214844 " clip-rule="nonzero"/></clipPath><clipPath id="635b81019d"><path d="M 1138.035156 111.292969 L 1275 111.292969 L 1275 222.96875 L 1138.035156 222.96875 Z M 1138.035156 111.292969 " clip-rule="nonzero"/></clipPath><clipPath id="d20e01d0bc"><path d="M 1206.441406 111.292969 L 1274.851562 222.96875 L 1138.035156 222.96875 Z M 1206.441406 111.292969 " clip-rule="nonzero"/></clipPath><clipPath id="c977932c45"><path d="M 786.96875 260.640625 L 920.464844 260.640625 L 920.464844 394.136719 L 786.96875 394.136719 Z M 786.96875 260.640625 " clip-rule="nonzero"/></clipPath></defs><g clip-path="url(#345629d5df)"><g clip-path="url(#63f3a911eb)"><path fill="#834e3f" d="M 217.914062 120.164062 L 460.785156 120.164062 L 460.785156 363.035156 L 217.914062 363.035156 Z M 217.914062 120.164062 " fill-opacity="1" fill-rule="nonzero"/></g></g><g clip-path="url(#e656b0c5fa)"><g clip-path="url(#b1a9a552fd)"><path fill="#ecb6a6" d="M 81.097656 10.242188 L 324.328125 10.242188 L 324.328125 222.757812 L 81.097656 222.757812 Z M 81.097656 10.242188 " fill-opacity="1" fill-rule="nonzero"/></g></g><g clip-path="url(#da3c9b30f9)"><path fill="#6fa783" d="M 435.472656 0 L 678.347656 0 L 678.347656 242.875 L 435.472656 242.875 Z M 435.472656 0 " fill-opacity="1" fill-rule="nonzero"/></g><g clip-path="url(#d600c4b138)"><g clip-path="url(#1d7d623437)"><path fill="#c4792b" d="M 435.472656 222.757812 L 678.347656 222.757812 L 678.347656 465.632812 L 435.472656 465.632812 Z M 435.472656 222.757812 " fill-opacity="1" fill-rule="nonzero"/></g></g><g clip-path="url(#64a7affc36)"><path fill="#5ca27a" d="M 0.351562 222.007812 L 678.355469 222.007812 L 678.355469 261.191406 L 0.351562 261.191406 Z M 0.351562 222.007812 " fill-opacity="1" fill-rule="nonzero"/></g><g clip-path="url(#758a08c1d0)"><g clip-path="url(#c57e189561)"><path fill="#18253b" d="M 217.910156 372.109375 L 80.933594 372.109375 L 80.933594 260.433594 L 217.910156 260.433594 Z M 217.910156 372.109375 " fill-opacity="1" fill-rule="nonzero"/></g></g><g clip-path="url(#d81fc92d20)"><path fill="#ecb6a6" d="M 435.472656 89.261719 L 568.96875 89.261719 L 568.96875 222.757812 L 435.472656 222.757812 Z M 435.472656 89.261719 " fill-opacity="1" fill-rule="nonzero"/></g><g clip-path="url(#97d96cfb64)"><g clip-path="url(#3375a9d0b4)"><path fill="#834e3f" d="M 1138.035156 363.246094 L 895.160156 363.246094 L 895.160156 120.371094 L 1138.035156 120.371094 Z M 1138.035156 363.246094 " fill-opacity="1" fill-rule="nonzero"/></g></g><g clip-path="url(#525ba015f5)"><g clip-path="url(#6f040b7f5f)"><path fill="#ecb6a6" d="M 1274.851562 473.164062 L 1031.621094 473.164062 L 1031.621094 260.648438 L 1274.851562 260.648438 Z M 1274.851562 473.164062 " fill-opacity="1" fill-rule="nonzero"/></g></g><g clip-path="url(#69f1164ef0)"><path fill="#6fa783" d="M 920.472656 483.40625 L 677.597656 483.40625 L 677.597656 240.53125 L 920.472656 240.53125 Z M 920.472656 483.40625 " fill-opacity="1" fill-rule="nonzero"/></g><g clip-path="url(#e43ae2e359)"><g clip-path="url(#81a5b4a0d5)"><path fill="#c4792b" d="M 920.472656 260.648438 L 677.597656 260.648438 L 677.597656 17.773438 L 920.472656 17.773438 Z M 920.472656 260.648438 " fill-opacity="1" fill-rule="nonzero"/></g></g><g clip-path="url(#60538df587)"><path fill="#5ca27a" d="M 1355.589844 261.398438 L 677.585938 261.398438 L 677.585938 222.214844 L 1355.589844 222.214844 Z M 1355.589844 261.398438 " fill-opacity="1" fill-rule="nonzero"/></g><g clip-path="url(#635b81019d)"><g clip-path="url(#d20e01d0bc)"><path fill="#18253b" d="M 1138.035156 111.292969 L 1275.011719 111.292969 L 1275.011719 222.96875 L 1138.035156 222.96875 Z M 1138.035156 111.292969 " fill-opacity="1" fill-rule="nonzero"/></g></g><g clip-path="url(#c977932c45)"><path fill="#ecb6a6" d="M 920.464844 394.136719 L 786.96875 394.136719 L 786.96875 260.640625 L 920.464844 260.640625 Z M 920.464844 394.136719 " fill-opacity="1" fill-rule="nonzero"/></g></svg>