<svg xmlns="http://www.w3.org/2000/svg" xmlns:xlink="http://www.w3.org/1999/xlink" width="1920" zoomAndPan="magnify" viewBox="0 0 1440 809.999993" height="1080" preserveAspectRatio="xMidYMid meet" version="1.0"><defs><clipPath id="7c89304ef5"><path d="M 259.699219 283.394531 L 502.699219 283.394531 L 502.699219 526.394531 L 259.699219 526.394531 Z M 259.699219 283.394531 " clip-rule="nonzero"/></clipPath><clipPath id="3ec8a987c4"><path d="M 381.199219 283.394531 C 314.097656 283.394531 259.699219 337.792969 259.699219 404.894531 C 259.699219 472 314.097656 526.394531 381.199219 526.394531 C 448.304688 526.394531 502.699219 472 502.699219 404.894531 C 502.699219 337.792969 448.304688 283.394531 381.199219 283.394531 Z M 381.199219 283.394531 " clip-rule="nonzero"/></clipPath><clipPath id="c0edd0c7a2"><path d="M 122.8125 173.421875 L 366 173.421875 L 366 386.046875 L 122.8125 386.046875 Z M 122.8125 173.421875 " clip-rule="nonzero"/></clipPath><clipPath id="dcb1d41fd1"><path d="M 244.3125 173.421875 L 365.8125 386.046875 L 122.8125 386.046875 Z M 244.3125 173.421875 " clip-rule="nonzero"/></clipPath><clipPath id="5a0abae5ae"><path d="M 477.375 163.171875 L 720.375 163.171875 L 720.375 406.171875 L 477.375 406.171875 Z M 477.375 163.171875 " clip-rule="nonzero"/></clipPath><clipPath id="e649815f49"><path d="M 477.375 386.046875 L 720.375 386.046875 L 720.375 629.046875 L 477.375 629.046875 Z M 477.375 386.046875 " clip-rule="nonzero"/></clipPath><clipPath id="76c48085c0"><path d="M 558.417969 623.34375 C 570.875 626.785156 585.039062 629.046875 598.941406 629.046875 C 612.839844 629.046875 626.21875 627.109375 638.542969 623.667969 C 638.808594 623.558594 639.070312 623.558594 639.332031 623.453125 C 685.625 609.683594 719.71875 573.324219 720.375 530.835938 L 720.375 386.046875 L 477.375 386.046875 L 477.375 530.726562 C 478.03125 573.539062 511.601562 609.898438 558.417969 623.34375 Z M 558.417969 623.34375 " clip-rule="nonzero"/></clipPath><clipPath id="d89d8259fc"><path d="M 42.027344 385.296875 L 720.375 385.296875 L 720.375 424.496094 L 42.027344 424.496094 Z M 42.027344 385.296875 " clip-rule="nonzero"/></clipPath><clipPath id="bfa68374e0"><path d="M 122.652344 423.738281 L 259.699219 423.738281 L 259.699219 535.472656 L 122.652344 535.472656 Z M 122.652344 423.738281 " clip-rule="nonzero"/></clipPath><clipPath id="a374021ba2"><path d="M 191.257812 535.472656 L 122.8125 423.738281 L 259.699219 423.738281 Z M 191.257812 535.472656 " clip-rule="nonzero"/></clipPath><clipPath id="90eb32caf7"><path d="M 477.375 252.480469 L 610.941406 252.480469 L 610.941406 386.046875 L 477.375 386.046875 Z M 477.375 252.480469 " clip-rule="nonzero"/></clipPath><clipPath id="0fa37c1ecc"><path d="M 937.300781 283.605469 L 1180.300781 283.605469 L 1180.300781 526.605469 L 937.300781 526.605469 Z M 937.300781 283.605469 " clip-rule="nonzero"/></clipPath><clipPath id="5ef1105f75"><path d="M 1058.800781 526.605469 C 1125.902344 526.605469 1180.300781 472.207031 1180.300781 405.105469 C 1180.300781 338 1125.902344 283.605469 1058.800781 283.605469 C 991.695312 283.605469 937.300781 338 937.300781 405.105469 C 937.300781 472.207031 991.695312 526.605469 1058.800781 526.605469 Z M 1058.800781 526.605469 " clip-rule="nonzero"/></clipPath><clipPath id="d6f95a848e"><path d="M 1074 423.953125 L 1317.1875 423.953125 L 1317.1875 636.578125 L 1074 636.578125 Z M 1074 423.953125 " clip-rule="nonzero"/></clipPath><clipPath id="9d30511a20"><path d="M 1195.6875 636.578125 L 1074.1875 423.953125 L 1317.1875 423.953125 Z M 1195.6875 636.578125 " clip-rule="nonzero"/></clipPath><clipPath id="0fd53f9282"><path d="M 719.625 403.828125 L 962.625 403.828125 L 962.625 646.828125 L 719.625 646.828125 Z M 719.625 403.828125 " clip-rule="nonzero"/></clipPath><clipPath id="b44746995c"><path d="M 719.625 180.953125 L 962.625 180.953125 L 962.625 423.953125 L 719.625 423.953125 Z M 719.625 180.953125 " clip-rule="nonzero"/></clipPath><clipPath id="2179c30a10"><path d="M 881.582031 186.65625 C 869.125 183.214844 854.960938 180.953125 841.058594 180.953125 C 827.160156 180.953125 813.78125 182.890625 801.457031 186.332031 C 801.191406 186.441406 800.929688 186.441406 800.667969 186.546875 C 754.375 200.316406 720.28125 236.675781 719.625 279.164062 L 719.625 423.953125 L 962.625 423.953125 L 962.625 279.273438 C 961.96875 236.460938 928.398438 200.101562 881.582031 186.65625 Z M 881.582031 186.65625 " clip-rule="nonzero"/></clipPath><clipPath id="3273219904"><path d="M 719.617188 385.503906 L 1397.964844 385.503906 L 1397.964844 424.703125 L 719.617188 424.703125 Z M 719.617188 385.503906 " clip-rule="nonzero"/></clipPath><clipPath id="a104f1f033"><path d="M 1180.300781 274.519531 L 1317.347656 274.519531 L 1317.347656 386.253906 L 1180.300781 386.253906 Z M 1180.300781 274.519531 " clip-rule="nonzero"/></clipPath><clipPath id="23e42fcdd0"><path d="M 1248.742188 274.519531 L 1317.1875 386.253906 L 1180.300781 386.253906 Z M 1248.742188 274.519531 " clip-rule="nonzero"/></clipPath><clipPath id="e66e1962fc"><path d="M 829.050781 423.949219 L 962.617188 423.949219 L 962.617188 557.511719 L 829.050781 557.511719 Z M 829.050781 423.949219 " clip-rule="nonzero"/></clipPath></defs><path fill="#fefee3" d="M 0 0 L 1439.648438 0 L 1439.648438 810 L 0 810 Z M 0 0 " fill-opacity="1" fill-rule="nonzero"/><g clip-path="url(#7c89304ef5)"><g clip-path="url(#3ec8a987c4)"><path fill="#834e3f" d="M 259.699219 283.394531 L 502.699219 283.394531 L 502.699219 526.394531 L 259.699219 526.394531 Z M 259.699219 283.394531 " fill-opacity="1" fill-rule="nonzero"/></g></g><g clip-path="url(#c0edd0c7a2)"><g clip-path="url(#dcb1d41fd1)"><path fill="#ecb6a6" d="M 122.8125 173.421875 L 366.167969 173.421875 L 366.167969 386.046875 L 122.8125 386.046875 Z M 122.8125 173.421875 " fill-opacity="1" fill-rule="nonzero"/></g></g><g clip-path="url(#5a0abae5ae)"><path fill="#6fa783" d="M 477.375 163.171875 L 720.375 163.171875 L 720.375 406.171875 L 477.375 406.171875 Z M 477.375 163.171875 " fill-opacity="1" fill-rule="nonzero"/></g><g clip-path="url(#e649815f49)"><g clip-path="url(#76c48085c0)"><path fill="#c4792b" d="M 477.375 386.046875 L 720.375 386.046875 L 720.375 629.046875 L 477.375 629.046875 Z M 477.375 386.046875 " fill-opacity="1" fill-rule="nonzero"/></g></g><g clip-path="url(#d89d8259fc)"><path fill="#5ca27a" d="M 42.027344 385.296875 L 720.378906 385.296875 L 720.378906 424.496094 L 42.027344 424.496094 Z M 42.027344 385.296875 " fill-opacity="1" fill-rule="nonzero"/></g><g clip-path="url(#bfa68374e0)"><g clip-path="url(#a374021ba2)"><path fill="#18253b" d="M 259.699219 535.472656 L 122.652344 535.472656 L 122.652344 423.738281 L 259.699219 423.738281 Z M 259.699219 535.472656 " fill-opacity="1" fill-rule="nonzero"/></g></g><g clip-path="url(#90eb32caf7)"><path fill="#ecb6a6" d="M 477.375 252.480469 L 610.941406 252.480469 L 610.941406 386.046875 L 477.375 386.046875 Z M 477.375 252.480469 " fill-opacity="1" fill-rule="nonzero"/></g><g clip-path="url(#0fa37c1ecc)"><g clip-path="url(#5ef1105f75)"><path fill="#834e3f" d="M 1180.300781 526.605469 L 937.300781 526.605469 L 937.300781 283.605469 L 1180.300781 283.605469 Z M 1180.300781 526.605469 " fill-opacity="1" fill-rule="nonzero"/></g></g><g clip-path="url(#d6f95a848e)"><g clip-path="url(#9d30511a20)"><path fill="#ecb6a6" d="M 1317.1875 636.578125 L 1073.832031 636.578125 L 1073.832031 423.953125 L 1317.1875 423.953125 Z M 1317.1875 636.578125 " fill-opacity="1" fill-rule="nonzero"/></g></g><g clip-path="url(#0fd53f9282)"><path fill="#6fa783" d="M 962.625 646.828125 L 719.625 646.828125 L 719.625 403.828125 L 962.625 403.828125 Z M 962.625 646.828125 " fill-opacity="1" fill-rule="nonzero"/></g><g clip-path="url(#b44746995c)"><g clip-path="url(#2179c30a10)"><path fill="#c4792b" d="M 962.625 423.953125 L 719.625 423.953125 L 719.625 180.953125 L 962.625 180.953125 Z M 962.625 423.953125 " fill-opacity="1" fill-rule="nonzero"/></g></g><g clip-path="url(#3273219904)"><path fill="#5ca27a" d="M 1397.964844 424.703125 L 719.609375 424.703125 L 719.609375 385.503906 L 1397.964844 385.503906 Z M 1397.964844 424.703125 " fill-opacity="1" fill-rule="nonzero"/></g><g clip-path="url(#a104f1f033)"><g clip-path="url(#23e42fcdd0)"><path fill="#18253b" d="M 1180.300781 274.519531 L 1317.347656 274.519531 L 1317.347656 386.253906 L 1180.300781 386.253906 Z M 1180.300781 274.519531 " fill-opacity="1" fill-rule="nonzero"/></g></g><g clip-path="url(#e66e1962fc)"><path fill="#ecb6a6" d="M 962.617188 557.511719 L 829.050781 557.511719 L 829.050781 423.949219 L 962.617188 423.949219 Z M 962.617188 557.511719 " fill-opacity="1" fill-rule="nonzero"/></g></svg>