<svg xmlns="http://www.w3.org/2000/svg" xmlns:xlink="http://www.w3.org/1999/xlink" width="940" zoomAndPan="magnify" viewBox="0 0 705 809.999993" height="1080" preserveAspectRatio="xMidYMid meet" version="1.0"><defs><clipPath id="eb58829494"><path d="M 103.382812 380.75 L 190.3125 380.75 L 190.3125 491.027344 L 103.382812 491.027344 Z M 103.382812 380.75 " clip-rule="nonzero"/></clipPath></defs><g clip-path="url(#eb58829494)"><path fill="#004aad" d="M 103.382812 380.75 L 190.3125 380.75 L 190.3125 491.109375 L 103.382812 491.109375 Z M 103.382812 380.75 " fill-opacity="1" fill-rule="nonzero"/></g><path fill="#ffffff" d="M 4.324219 61.773438 L 4.949219 585.230469 C 4.960938 594.058594 12.074219 601.238281 20.902344 601.328125 C 119.320312 602.335938 217.734375 603.34375 316.148438 604.355469 C 325.113281 604.449219 332.429688 597.203125 332.429688 588.234375 C 332.402344 412.382812 332.378906 236.527344 332.359375 60.671875 C 332.359375 51.75 325.105469 44.527344 316.183594 44.558594 C 217.582031 44.917969 118.984375 45.273438 20.382812 45.632812 C 11.496094 45.667969 4.316406 52.886719 4.324219 61.769531 Z M 4.324219 61.773438 " fill-opacity="1" fill-rule="nonzero"/><path fill="#010101" d="M 3.492188 61.773438 C 0.210938 152.378906 2.171875 588.027344 2.199219 588.199219 C 5.105469 606.160156 23.902344 604.367188 37.675781 604.515625 C 61.160156 604.761719 274.769531 607.003906 285.953125 607.117188 C 296.652344 607.230469 308.617188 608.972656 319.171875 607.199219 C 337.40625 604.136719 335.515625 585.582031 335.527344 571.4375 C 335.59375 476.230469 335.257812 94.277344 335.234375 70.757812 C 335.226562 63.355469 336.125 55.640625 331.449219 49.367188 C 327.703125 44.347656 322.265625 42.15625 316.183594 41.710938 C 292.960938 40 268.886719 41.871094 245.597656 41.953125 C 220.945312 42.039062 77.527344 42.535156 30.46875 42.699219 C 23.039062 42.726562 15.398438 41.816406 9.09375 46.511719 C 4.085938 50.246094 1.820312 55.675781 1.417969 61.773438 C 1.167969 65.507812 6.988281 65.496094 7.234375 61.773438 C 8.207031 46.9375 22.882812 48.53125 33.828125 48.488281 C 45.03125 48.445312 292.09375 47.5 302.738281 47.460938 C 315.375 47.414062 328.824219 43.753906 329.492188 64.035156 C 329.574219 66.59375 329.3125 556.875 329.324219 568.078125 C 329.332031 577.667969 332.6875 593.808594 322.796875 599.550781 C 318.085938 602.285156 322.6875 601.34375 52.773438 598.640625 C 42.257812 598.535156 31.375 599.226562 20.898438 598.320312 C 13.390625 597.671875 8.4375 592.640625 7.953125 585.054688 C 7.792969 582.53125 7.953125 584.929688 7.820312 492.445312 C 7.203125 61.820312 8.863281 157.863281 5.152344 61.773438 C 5.109375 60.703125 3.53125 60.699219 3.492188 61.773438 Z M 3.492188 61.773438 " fill-opacity="1" fill-rule="nonzero"/><path fill="#ffffff" d="M 143.457031 569.347656 C 140.046875 570.144531 137.648438 576.820312 140.265625 579.777344 C 142.882812 582.734375 149.800781 581.167969 151.007812 577.878906 C 152.304688 574.347656 147.128906 568.492188 143.457031 569.347656 Z M 143.457031 569.347656 " fill-opacity="1" fill-rule="nonzero"/><path fill="#010101" d="M 143.457031 568.796875 C 139.398438 568.460938 137.320312 574.097656 137.578125 577.363281 C 138.347656 587.105469 156.511719 583.835938 152.851562 573.902344 C 151.5625 570.402344 146.566406 565.207031 142.542969 567.777344 C 141.273438 568.585938 141.394531 570.722656 142.976562 571.101562 C 145.40625 571.691406 147.417969 572.796875 148.59375 575.171875 C 149.722656 577.453125 148.082031 578.679688 145.890625 579.222656 C 143.488281 579.816406 140.953125 579.222656 140.757812 576.417969 C 140.582031 573.941406 141.921875 571.246094 143.851562 569.738281 C 144.269531 569.410156 143.878906 568.824219 143.460938 568.792969 Z M 143.457031 568.796875 " fill-opacity="1" fill-rule="nonzero"/><path fill="#ffffff" d="M 167.390625 569.347656 C 163.980469 570.144531 161.578125 576.820312 164.195312 579.777344 C 166.8125 582.734375 173.730469 581.167969 174.9375 577.878906 C 176.234375 574.347656 171.058594 568.492188 167.390625 569.347656 Z M 167.390625 569.347656 " fill-opacity="1" fill-rule="nonzero"/><path fill="#010101" d="M 167.390625 568.796875 C 163.328125 568.460938 161.25 574.097656 161.507812 577.363281 C 162.277344 587.105469 180.445312 583.835938 176.785156 573.902344 C 175.492188 570.402344 170.5 565.207031 166.472656 567.777344 C 165.207031 568.585938 165.324219 570.722656 166.910156 571.101562 C 169.339844 571.691406 171.351562 572.796875 172.527344 575.171875 C 173.65625 577.453125 172.015625 578.679688 169.820312 579.222656 C 167.417969 579.816406 164.886719 579.222656 164.6875 576.417969 C 164.515625 573.941406 165.851562 571.246094 167.785156 569.738281 C 168.199219 569.410156 167.8125 568.824219 167.390625 568.792969 Z M 167.390625 568.796875 " fill-opacity="1" fill-rule="nonzero"/><path fill="#ffffff" d="M 189.847656 569.347656 C 186.4375 570.144531 184.035156 576.820312 186.652344 579.777344 C 189.269531 582.734375 196.1875 581.167969 197.394531 577.878906 C 198.691406 574.347656 193.515625 568.492188 189.847656 569.347656 Z M 189.847656 569.347656 " fill-opacity="1" fill-rule="nonzero"/><path fill="#010101" d="M 189.847656 568.796875 C 185.785156 568.460938 183.707031 574.097656 183.964844 577.363281 C 184.734375 587.105469 202.902344 583.835938 199.242188 573.902344 C 197.949219 570.402344 192.957031 565.207031 188.929688 567.777344 C 187.664062 568.585938 187.78125 570.722656 189.367188 571.101562 C 191.796875 571.691406 193.808594 572.796875 194.984375 575.171875 C 196.113281 577.453125 194.472656 578.679688 192.277344 579.222656 C 189.875 579.816406 187.34375 579.222656 187.144531 576.417969 C 186.972656 573.941406 188.3125 571.246094 190.242188 569.738281 C 190.65625 569.410156 190.269531 568.824219 189.851562 568.792969 Z M 189.847656 568.796875 " fill-opacity="1" fill-rule="nonzero"/><path fill="#010101" d="M 25.667969 159.113281 C 25.804688 180.582031 26.847656 226.695312 27.191406 238.253906 C 27.398438 245.28125 26.359375 253.886719 28.121094 260.707031 C 31.25 272.8125 44.628906 270.546875 54.207031 270.472656 C 296.847656 268.574219 292.261719 268.671875 296.859375 268.574219 C 301.53125 268.472656 305.789062 268.253906 309.296875 264.757812 C 315.652344 258.417969 313.316406 244.175781 313.441406 236.160156 C 313.710938 219.089844 313.761719 202.015625 313.894531 184.945312 C 313.96875 175.691406 315.839844 164.5 313.824219 155.347656 C 311.066406 142.804688 297.140625 144.925781 287.425781 144.953125 C 269.425781 145.007812 72.535156 145.632812 52.847656 145.691406 C 41.230469 145.730469 25.785156 143.5625 24.792969 159.113281 C 24.640625 161.4375 28.203125 161.402344 28.394531 159.113281 C 29.363281 147.179688 44.324219 149.605469 52.847656 149.585938 C 60.722656 149.566406 276.175781 149.050781 284.050781 149.035156 C 293.367188 149.011719 307.710938 146.183594 310.011719 158.148438 C 311.328125 165.015625 309.875 173.546875 309.8125 180.5 C 309.683594 195.34375 309.554688 210.183594 309.421875 225.023438 C 309.339844 234.722656 310.476562 245.125 309.347656 254.765625 C 308.859375 258.945312 307.535156 261.792969 303.453125 263.503906 C 296.242188 266.535156 286.097656 264.980469 278.324219 265.046875 C 263.15625 265.171875 71.617188 266.785156 62.628906 266.859375 C 55.253906 266.921875 39.851562 269.878906 34.179688 264.460938 C 28.503906 259.042969 30.871094 243.847656 30.652344 236.609375 C 30.335938 226.128906 28.65625 180.589844 27.511719 159.117188 C 27.449219 157.9375 25.65625 157.921875 25.667969 159.117188 Z M 25.667969 159.113281 " fill-opacity="1" fill-rule="nonzero"/><path fill="#000000" d="M 36.628906 242.699219 C 37.007812 249.089844 42.523438 254.875 47.511719 257.785156 C 55.128906 262.230469 63.511719 260.796875 66.070312 260.839844 C 109.613281 261.613281 254.460938 262.050781 297.761719 257.40625 C 303.796875 250.957031 302.4375 240.359375 297.160156 233.320312 C 291.882812 226.277344 283.664062 221.953125 275.71875 217.855469 C 244.34375 201.675781 242.773438 219.238281 231.992188 225.390625 C 215.125 235.019531 184.316406 212.398438 164.234375 201.054688 C 152.6875 194.53125 135.628906 185.75 115.71875 187.351562 C 104.238281 188.273438 90.222656 197.617188 62.195312 216.304688 C 42.25 229.605469 36.203125 235.589844 36.628906 242.699219 Z M 36.628906 242.699219 " fill-opacity="1" fill-rule="nonzero"/><path fill="#010101" d="M 36.078125 242.699219 C 37.617188 262.085938 58.136719 262.105469 72.710938 262.375 C 114.597656 263.15625 249.488281 263.457031 291.210938 259.652344 C 295.738281 259.238281 298.035156 260.023438 300.609375 256.359375 C 311.386719 241.027344 293.136719 225.460938 281.308594 218.976562 C 273.558594 214.726562 264.710938 209.816406 255.644531 209.589844 C 232.8125 209.015625 240.089844 240.203125 196.25 217.625 C 172.886719 205.59375 143.039062 180.652344 112.949219 186.050781 C 96.222656 189.050781 80.539062 202.195312 66.835938 211.34375 C 57.164062 217.804688 34.875 228.3125 35.152344 242.699219 C 35.191406 244.597656 38.136719 244.605469 38.109375 242.699219 C 38.027344 237.523438 41.628906 233.855469 45.253906 230.597656 C 52.285156 224.28125 60.554688 219.242188 68.410156 214.039062 C 80.757812 205.859375 93.503906 196.070312 107.5625 190.972656 C 149.828125 175.652344 192.0625 233.144531 225.117188 229.179688 C 243.609375 226.964844 240.839844 202.230469 273.734375 218.648438 C 283.285156 223.414062 295.375 229.226562 298.996094 240.140625 C 299.671875 242.175781 300.167969 244.605469 300.140625 246.765625 C 300.066406 252.945312 296.453125 255.074219 291.210938 256.460938 C 275.238281 260.679688 66.25 259.433594 66.074219 259.4375 C 53.679688 259.679688 40.5 256.585938 37.164062 242.554688 C 37.023438 241.960938 36.027344 242.070312 36.078125 242.703125 Z M 36.078125 242.699219 " fill-opacity="1" fill-rule="nonzero"/><path fill="#000000" d="M 208.261719 171.328125 C 200.453125 177.972656 204.664062 194.742188 214.832031 196.671875 C 219.488281 197.554688 224.453125 195.730469 227.800781 192.378906 C 232.152344 188.019531 232.492188 180.914062 229.675781 175.945312 C 225.480469 168.558594 214.28125 166.207031 208.257812 171.332031 Z M 208.261719 171.328125 " fill-opacity="1" fill-rule="nonzero"/><path fill="#010101" d="M 207.957031 170.808594 C 201.144531 174.589844 201.707031 184.785156 204.96875 190.851562 C 209.578125 199.417969 220.230469 200.894531 227.695312 194.820312 C 238.714844 185.851562 232.566406 166.988281 216.578125 166.761719 C 207.519531 166.636719 206.261719 171.902344 208.257812 172.15625 C 210.589844 172.457031 212.664062 170.78125 215.003906 170.523438 C 228.679688 169.03125 234.816406 186.042969 224.460938 192.851562 C 212.449219 200.746094 200.25 186.117188 208.777344 171.628906 C 209.085938 171.101562 208.476562 170.519531 207.953125 170.804688 Z M 207.957031 170.808594 " fill-opacity="1" fill-rule="nonzero"/><path fill="#010101" d="M 45.199219 285.171875 C 37.863281 289.074219 29.609375 300.152344 35.707031 308.195312 C 44.113281 319.277344 66.339844 315.824219 77.929688 315.980469 C 89.941406 316.140625 101.953125 316.304688 113.96875 316.464844 C 124.929688 316.613281 136.285156 317.660156 147.207031 316.746094 C 162.222656 315.496094 165.269531 302.804688 162.40625 289.847656 C 162.253906 289.160156 161.558594 288.710938 160.890625 288.691406 C 122.578125 287.589844 84.246094 285.917969 45.921875 285.253906 C 44.433594 285.226562 44.445312 287.488281 45.921875 287.558594 C 72.632812 288.890625 85.652344 288.90625 139.539062 291.007812 C 144.304688 291.195312 153.441406 289.738281 157.605469 291.710938 C 160.496094 293.085938 160.273438 294.441406 160.371094 297.867188 C 160.464844 301.09375 160.285156 305.207031 158.214844 307.855469 C 153.492188 313.90625 146.28125 313.550781 139.4375 313.375 C 115.117188 312.761719 90.789062 312.320312 66.460938 311.804688 C 58.832031 311.644531 45.519531 312.910156 39.726562 306.375 C 33.898438 299.800781 43.484375 292.21875 47.15625 287.128906 C 48.046875 285.894531 46.359375 284.554688 45.199219 285.171875 Z M 45.199219 285.171875 " fill-opacity="1" fill-rule="nonzero"/><path fill="#010101" d="M 37.875 340.605469 C 56.3125 342.539062 59.773438 342.226562 181.804688 342.699219 C 230.449219 342.886719 262.347656 343.652344 287.445312 341.308594 C 295.214844 340.582031 308.152344 341.222656 313.785156 335.429688 C 314.117188 335.089844 314.128906 334.339844 313.617188 334.121094 C 307.660156 331.609375 309.535156 334.128906 284.203125 336.207031 C 239.582031 339.867188 76.867188 334.273438 37.875 338.019531 C 36.089844 338.191406 36.367188 340.605469 37.875 340.605469 Z M 37.875 340.605469 " fill-opacity="1" fill-rule="nonzero"/><path fill="#010101" d="M 37.875 362.265625 C 56.3125 364.199219 59.773438 363.886719 181.804688 364.359375 C 230.449219 364.546875 262.347656 365.3125 287.445312 362.96875 C 295.214844 362.242188 308.152344 362.886719 313.785156 357.089844 C 314.117188 356.75 314.128906 356 313.617188 355.785156 C 307.660156 353.269531 309.535156 355.789062 284.203125 357.867188 C 239.582031 361.527344 76.867188 355.9375 37.875 359.679688 C 36.089844 359.851562 36.367188 362.265625 37.875 362.265625 Z M 37.875 362.265625 " fill-opacity="1" fill-rule="nonzero"/><path fill="#010101" d="M 37.53125 383.878906 C 47.78125 385.714844 51.230469 385.554688 122.3125 386.042969 C 166.910156 386.347656 187.132812 387.589844 193.5625 378.582031 C 193.882812 378.132812 193.539062 377.5 193.066406 377.359375 C 187.984375 375.847656 183.710938 378.273438 178.546875 379.175781 C 154.214844 383.421875 61.351562 377.515625 37.535156 381.386719 C 36.289062 381.589844 36.308594 383.660156 37.535156 383.878906 Z M 37.53125 383.878906 " fill-opacity="1" fill-rule="nonzero"/><path fill="#ffffff" d="M 34.929688 426.46875 C 35.519531 460.359375 36.109375 494.253906 36.699219 528.140625 C 36.78125 532.609375 40.34375 536.230469 44.808594 536.378906 C 76.371094 537.421875 107.929688 538.46875 139.492188 539.511719 C 144.195312 539.667969 148.109375 535.921875 148.15625 531.214844 L 149.21875 427.398438 C 149.269531 422.765625 145.550781 418.972656 140.917969 418.925781 C 108.410156 418.59375 75.90625 418.265625 43.398438 417.933594 C 38.675781 417.886719 34.84375 421.746094 34.929688 426.46875 Z M 34.929688 426.46875 " fill-opacity="1" fill-rule="nonzero"/><path fill="#010101" d="M 34.296875 426.46875 C 32.132812 451.027344 34.023438 469.320312 34.839844 518.300781 C 34.902344 522.230469 34.140625 527.148438 35.464844 530.945312 C 38.039062 538.335938 44.765625 538.082031 51.335938 538.304688 C 75.820312 539.136719 100.3125 539.964844 124.796875 540.796875 C 135.296875 541.148438 149.210938 544.066406 149.960938 529.976562 C 151.011719 510.167969 150.144531 505.988281 150.992188 439.738281 C 151.050781 435.097656 152.070312 429.226562 150.808594 424.652344 C 148.277344 415.464844 138.191406 416.929688 130.828125 416.832031 C 127.085938 416.785156 50.503906 415.765625 46.761719 415.835938 C 39.0625 415.976562 33.777344 418.070312 32.765625 426.46875 C 32.433594 429.222656 36.769531 429.210938 37.09375 426.46875 C 38.300781 416.160156 63.398438 420.246094 70.300781 420.304688 C 80.390625 420.390625 119.621094 420.726562 129.148438 420.800781 C 131.578125 420.820312 135.296875 420.132812 137.554688 420.863281 C 137.632812 420.890625 147.277344 427.402344 147.289062 427.4375 C 147.429688 427.765625 147.199219 428.296875 147.28125 428.640625 C 148.320312 433.175781 147.199219 439.320312 147.164062 443.941406 C 147.09375 452.949219 146.609375 505.695312 146.445312 523.054688 C 146.363281 532.125 145.269531 537.917969 132.964844 537.523438 C 101.707031 536.511719 77.695312 535.738281 48.074219 534.78125 C 41.679688 535.210938 38.59375 532.992188 38.828125 528.117188 C 37.121094 522.886719 38.171875 515.621094 38.070312 510.101562 C 37.234375 464.222656 38.238281 448.222656 35.5625 426.46875 C 35.464844 425.667969 34.371094 425.640625 34.296875 426.46875 Z M 34.296875 426.46875 " fill-opacity="1" fill-rule="nonzero"/><path fill="#000000" d="M 43.800781 505.113281 C 44.613281 499.84375 46.664062 496.070312 66.925781 474.332031 C 74.402344 466.3125 77.460938 463.445312 82.0625 463.316406 C 87.035156 463.175781 91.570312 466.539062 94.265625 470.722656 C 96.960938 474.902344 98.167969 479.839844 99.433594 484.652344 C 99.644531 485.457031 100.835938 488.105469 103.066406 493.449219 C 105.371094 498.964844 105.742188 499.746094 106.585938 499.953125 C 108.511719 500.429688 110.996094 497.480469 117.699219 487.175781 C 125.542969 475.113281 125.871094 473.433594 127.695312 473.285156 C 134.160156 472.773438 140.65625 493 142.699219 506.828125 C 147.398438 538.652344 126.136719 526.316406 62.917969 525.011719 C 57.207031 524.894531 50.59375 524.945312 46.566406 520.351562 C 42.21875 515.394531 43.375 507.890625 43.800781 505.113281 Z M 43.800781 505.113281 " fill-opacity="1" fill-rule="nonzero"/><path fill="#010101" d="M 44.921875 505.417969 C 47.398438 496.941406 67.675781 475.96875 74.160156 469.972656 C 81.382812 463.296875 89.019531 465.492188 93.828125 474.417969 C 97.816406 481.816406 100.316406 502.15625 107.128906 502.199219 C 115.089844 502.253906 122.636719 479 127.054688 476.402344 C 130.863281 474.164062 134.152344 482.949219 135.445312 486.261719 C 138.820312 494.90625 144.976562 511.691406 140.417969 520.550781 C 135.128906 530.839844 114.402344 526.089844 105.339844 525.441406 C 64.039062 522.488281 84.417969 523.921875 61.832031 523.054688 C 56.851562 522.863281 53.625 522.828125 49.695312 519.675781 C 45.207031 516.078125 44.890625 511.058594 45.683594 505.636719 C 46.042969 503.175781 42.28125 502.117188 41.917969 504.597656 C 40.328125 515.542969 43.851562 524.953125 55.78125 526.574219 C 67.332031 528.144531 79.414062 527.34375 91.074219 528.214844 C 116.371094 530.101562 146.273438 537.820312 145.199219 512.449219 C 144.933594 506.199219 135.25 458.507812 123.125 474.730469 C 118.136719 481.402344 108.949219 497.984375 107.277344 497.582031 C 105.859375 497.246094 103.8125 489.617188 103.078125 487.867188 C 98.933594 477.941406 96.550781 460.644531 82.0625 461.144531 C 76.757812 461.324219 72.9375 465.046875 69.394531 468.589844 C 63.242188 474.738281 57.40625 481.324219 51.832031 487.996094 C 47.550781 493.117188 42.945312 498.167969 42.640625 505.117188 C 42.582031 506.449219 44.558594 506.664062 44.917969 505.425781 Z M 44.921875 505.417969 " fill-opacity="1" fill-rule="nonzero"/><path fill="#000000" d="M 106.910156 442.78125 C 101.8125 447.375 100.988281 456.066406 106.257812 461.269531 C 111.433594 466.378906 120.132812 465.804688 124.800781 460.3125 C 129.597656 454.660156 128.332031 445.910156 122.671875 441.804688 C 117.9375 438.375 111.164062 438.945312 106.910156 442.78125 Z M 106.910156 442.78125 " fill-opacity="1" fill-rule="nonzero"/><path fill="#010101" d="M 106.5625 442.1875 C 100.113281 446.066406 99.488281 455.671875 104.003906 461.34375 C 108.863281 467.453125 118.175781 468.191406 124.207031 463.386719 C 130.117188 458.679688 131.296875 449.871094 127.054688 443.648438 C 120.011719 433.324219 105.210938 438.796875 106.226562 442.488281 C 106.503906 443.503906 107.207031 443.660156 108.21875 443.625 C 110.308594 443.546875 112.148438 440.371094 118.019531 441.765625 C 124.503906 443.308594 127.636719 450.894531 124.894531 456.796875 C 122.136719 462.742188 114.160156 464.867188 108.792969 461.117188 C 102.382812 456.636719 103.929688 448.824219 107.496094 443.128906 C 107.863281 442.542969 107.140625 441.84375 106.558594 442.191406 Z M 106.5625 442.1875 " fill-opacity="1" fill-rule="nonzero"/><path fill="#010101" d="M 174.574219 435.449219 C 178.535156 439.867188 185.601562 437.949219 191.117188 437.90625 C 200.457031 437.832031 209.800781 437.507812 219.140625 437.285156 C 263.46875 436.242188 263.652344 436.90625 270.878906 435.394531 C 273.113281 434.925781 273.230469 431.136719 270.878906 430.765625 C 263.121094 429.535156 255.003906 430.457031 247.164062 430.652344 C 243.828125 430.730469 196.09375 431.894531 192.765625 432.019531 C 186.953125 432.230469 178.558594 430.46875 174.574219 435.328125 C 174.542969 435.367188 174.539062 435.410156 174.574219 435.449219 Z M 174.574219 435.449219 " fill-opacity="1" fill-rule="nonzero"/><path fill="#010101" d="M 174.574219 459.402344 C 178.535156 463.820312 185.601562 461.898438 191.117188 461.859375 C 200.457031 461.785156 209.800781 461.457031 219.140625 461.234375 C 263.46875 460.191406 263.652344 460.859375 270.878906 459.34375 C 273.113281 458.878906 273.230469 455.089844 270.878906 454.71875 C 263.121094 453.488281 255.003906 454.40625 247.164062 454.601562 C 243.828125 454.683594 196.09375 455.84375 192.765625 455.96875 C 186.953125 456.183594 178.558594 454.421875 174.574219 459.28125 C 174.542969 459.316406 174.539062 459.363281 174.574219 459.398438 Z M 174.574219 459.402344 " fill-opacity="1" fill-rule="nonzero"/><path fill="#010101" d="M 174.574219 483.351562 C 177.488281 486.59375 177.222656 486.144531 204.472656 485.21875 C 216.519531 484.8125 229.796875 485.878906 241.585938 483.296875 C 243.789062 482.8125 243.960938 479.015625 241.585938 478.667969 C 229.605469 476.917969 216.5625 478.851562 204.472656 479.285156 C 197.84375 479.519531 191.203125 479.6875 184.578125 480.082031 C 180.046875 480.351562 177.398438 479.660156 174.574219 483.230469 C 174.542969 483.269531 174.539062 483.3125 174.574219 483.351562 Z M 174.574219 483.351562 " fill-opacity="1" fill-rule="nonzero"/><path fill="#ecb6a6" d="M 18.886719 103.148438 C 14.554688 102.949219 11.128906 99.457031 10.976562 95.125 C 10.679688 86.761719 10.707031 61.058594 16.203125 54.644531 C 23.34375 46.308594 37.894531 48.113281 42.363281 48.621094 C 88.613281 53.886719 135.496094 47.527344 181.984375 49.808594 C 259.414062 53.613281 322.066406 39.652344 327.367188 56.988281 C 327.992188 59.027344 327.035156 63.40625 327.484375 92.328125 C 327.554688 96.914062 323.894531 100.679688 319.3125 100.757812 C 153.363281 103.515625 118.765625 107.726562 18.890625 103.144531 Z M 18.886719 103.148438 " fill-opacity="1" fill-rule="nonzero"/><path fill="#010101" d="M 253.863281 53.429688 C 251.984375 60.351562 252.875 67.882812 252.964844 75.007812 C 253.070312 83.207031 252.996094 91.425781 253.394531 99.613281 C 253.523438 102.195312 257.375 102.226562 257.429688 99.613281 C 257.605469 91.417969 257.304688 83.203125 257.183594 75.007812 C 257.074219 67.878906 257.765625 60.304688 255.695312 53.429688 C 255.425781 52.542969 254.113281 52.503906 253.863281 53.429688 Z M 253.863281 53.429688 " fill-opacity="1" fill-rule="nonzero"/><path fill="#010101" d="M 276.03125 63.058594 C 269.097656 63.761719 267.800781 74.296875 269.917969 79.300781 C 273.207031 87.0625 282.539062 90.117188 289.953125 86.378906 C 297.464844 82.59375 300.613281 73.03125 296.457031 65.59375 C 292.304688 58.171875 280.828125 55.890625 275.023438 62.722656 C 274.199219 63.695312 274.953125 65.65625 276.410156 65.105469 C 282.285156 62.871094 289.011719 60.90625 292.714844 67.78125 C 295.839844 73.59375 292.96875 80.691406 286.960938 83.046875 C 280.523438 85.570312 273.332031 81.226562 272.921875 74.21875 C 272.671875 69.929688 275.480469 67.632812 276.683594 63.910156 C 276.804688 63.527344 276.460938 63.015625 276.03125 63.058594 Z M 276.03125 63.058594 " fill-opacity="1" fill-rule="nonzero"/><path fill="#010101" d="M 293.484375 82.367188 C 296.210938 85.472656 303.878906 92.722656 306.898438 94.503906 C 309.152344 95.835938 311.027344 92.917969 309.535156 91.085938 C 307.175781 88.1875 298.898438 81.851562 295.542969 79.695312 C 293.847656 78.601562 292.261719 80.972656 293.480469 82.363281 Z M 293.484375 82.367188 " fill-opacity="1" fill-rule="nonzero"/><path fill="#010101" d="M 71.242188 77.832031 C 85.859375 94.636719 113.9375 89.964844 116.996094 79.765625 C 118.363281 75.203125 113.484375 70.300781 108.945312 72.09375 C 108.546875 72.25 108.183594 72.761719 108.5 73.1875 C 112.339844 78.328125 116.40625 83.648438 122.34375 86.476562 C 136.648438 93.292969 147.527344 81.132812 141.765625 73.894531 C 137.238281 68.203125 129.277344 70.761719 129.949219 72.457031 C 133.929688 82.457031 145.0625 88.765625 155.691406 87.9375 C 171.988281 86.667969 168.066406 72.105469 160.082031 73.121094 C 159.277344 73.222656 158.902344 74.203125 159.65625 74.6875 C 179.355469 87.4375 205.582031 86.964844 218.160156 80.550781 C 218.773438 80.238281 218.339844 79.308594 217.699219 79.464844 C 212.765625 80.664062 207.988281 82.15625 202.914062 82.75 C 188.554688 84.425781 173.195312 81.429688 160.503906 73.238281 C 160.363281 73.761719 160.222656 74.285156 160.082031 74.804688 C 164.808594 74.199219 166.820312 80.078125 163.710938 83.175781 C 157.109375 89.761719 137.191406 86.226562 131.523438 72.023438 C 131.398438 72.332031 131.273438 72.636719 131.148438 72.945312 C 134.453125 70.863281 139.429688 72.429688 141.179688 75.90625 C 143.488281 80.496094 138.761719 85.125 134.710938 86.414062 C 124.011719 89.8125 115.429688 79.957031 109.789062 72.4375 C 109.640625 72.804688 109.492188 73.171875 109.34375 73.53125 C 113.835938 71.746094 119.773438 78.460938 111.933594 83.742188 C 102.867188 89.851562 83.296875 89.574219 71.832031 77.246094 C 71.464844 76.851562 70.898438 77.433594 71.246094 77.835938 Z M 71.242188 77.832031 " fill-opacity="1" fill-rule="nonzero"/><path fill="#010101" d="M 597.089844 122.851562 C 604.464844 117.128906 611.699219 110.722656 620.707031 102.910156 C 626.25 98.097656 627.335938 97.519531 627.367188 95.886719 C 627.378906 95.234375 626.839844 94.824219 626.25 94.765625 C 624.808594 94.625 623.652344 95.996094 622.640625 96.886719 C 620.0625 99.164062 602.84375 114.605469 595.875 121.640625 C 595.078125 122.449219 596.242188 123.507812 597.089844 122.851562 Z M 597.089844 122.851562 " fill-opacity="1" fill-rule="nonzero"/><path fill="#010101" d="M 600.546875 105.332031 C 604.605469 100.640625 602.171875 103.652344 609.765625 93.695312 C 610.449219 92.796875 610.429688 92.921875 610.675781 91.671875 C 610.839844 90.820312 610.015625 90.136719 609.222656 90.554688 C 607.984375 91.207031 608.332031 90.90625 606.335938 93.652344 C 599.988281 102.402344 601.996094 99.523438 599.042969 104.171875 C 598.46875 105.074219 599.828125 106.160156 600.546875 105.332031 Z M 600.546875 105.332031 " fill-opacity="1" fill-rule="nonzero"/><path fill="#010101" d="M 445.542969 92.597656 C 447.183594 94.691406 471.558594 109.519531 475.269531 111.820312 C 476.851562 112.796875 480.121094 115.621094 482.027344 114.105469 C 484.230469 112.359375 480.84375 110.171875 479.527344 109.34375 C 477.644531 108.15625 449.414062 91.0625 446.730469 90.558594 C 445.472656 90.324219 444.789062 91.636719 445.542969 92.601562 Z M 445.542969 92.597656 " fill-opacity="1" fill-rule="nonzero"/><path fill="#010101" d="M 475.230469 94.207031 C 476.03125 95.296875 476.734375 96.460938 477.597656 97.5 C 484.867188 106.261719 484.792969 106.03125 486.539062 105.785156 C 487.320312 105.675781 488.042969 104.316406 486.9375 102.667969 C 486.039062 101.332031 480.496094 95.75 480.15625 95.40625 C 479.214844 94.445312 478.144531 93.628906 477.144531 92.726562 C 476.015625 91.703125 474.480469 93.183594 475.230469 94.203125 Z M 475.230469 94.207031 " fill-opacity="1" fill-rule="nonzero"/><path fill="#010101" d="M 455.46875 122.589844 C 470.367188 124 471.648438 124.28125 473.628906 123.226562 C 474.398438 122.8125 474.265625 121.785156 473.628906 121.34375 C 471.753906 120.039062 469.476562 120.226562 455.46875 119.886719 C 453.597656 119.84375 453.886719 122.589844 455.46875 122.589844 Z M 455.46875 122.589844 " fill-opacity="1" fill-rule="nonzero"/><path fill="#010101" d="M 355.289062 146.125 C 359.339844 141.804688 361.867188 138.703125 372.71875 125.960938 C 374.636719 123.714844 377.105469 121.457031 378.464844 118.820312 C 379.171875 117.449219 377.597656 115.355469 376.117188 116.472656 C 373.652344 118.335938 354.703125 141.765625 352.839844 144.234375 C 351.769531 145.652344 354.09375 147.398438 355.289062 146.125 Z M 355.289062 146.125 " fill-opacity="1" fill-rule="nonzero"/><path fill="#010101" d="M 364.945312 148.160156 C 368.070312 146.21875 369.710938 144.886719 378.820312 138.09375 C 380.324219 136.972656 382.003906 135.835938 382.644531 133.988281 C 382.820312 133.488281 382.351562 132.863281 381.820312 132.902344 C 379.644531 133.070312 378.472656 134.277344 372.429688 139.082031 C 369.433594 141.464844 366.371094 143.769531 363.585938 146.398438 C 362.667969 147.265625 363.859375 148.832031 364.945312 148.15625 Z M 364.945312 148.160156 " fill-opacity="1" fill-rule="nonzero"/><path fill="#010101" d="M 36.175781 5.34375 C 36.691406 6.96875 36.816406 6.878906 38.640625 8.785156 C 41.460938 11.730469 40.214844 10.46875 48.445312 18.539062 C 59.910156 29.773438 60.117188 30.378906 61.984375 30.324219 C 62.636719 30.304688 63.207031 29.78125 63.203125 29.101562 C 63.191406 27.238281 61.695312 26.167969 57.796875 22.460938 C 37.949219 3.605469 39.199219 4.675781 37.355469 4.164062 C 36.671875 3.976562 35.957031 4.636719 36.175781 5.339844 Z M 36.175781 5.34375 " fill-opacity="1" fill-rule="nonzero"/><path fill="#010101" d="M 64.003906 2.664062 C 68.4375 10.351562 73.089844 17.867188 77.816406 25.371094 C 78.703125 26.78125 80.242188 29.820312 82.320312 29.289062 C 84.578125 28.710938 83.371094 25.960938 82.589844 24.671875 C 79.617188 19.753906 70.652344 7.261719 66.28125 1.332031 C 65.296875 -0.00390625 63.136719 1.15625 64.003906 2.660156 Z M 64.003906 2.664062 " fill-opacity="1" fill-rule="nonzero"/><path fill="#010101" d="M 96.949219 3.320312 C 98.371094 12.070312 99.085938 14.308594 101.175781 22.058594 C 101.742188 24.15625 102.382812 26.449219 104.09375 27.902344 C 104.863281 28.5625 105.964844 28.304688 106.296875 27.320312 C 107.203125 24.625 106.140625 22.019531 104.078125 14.789062 C 102.890625 10.628906 101.351562 6.5625 99.746094 2.550781 C 99.050781 0.8125 96.644531 1.464844 96.949219 3.320312 Z M 96.949219 3.320312 " fill-opacity="1" fill-rule="nonzero"/><path fill="#000000" d="M 538.972656 766.117188 C 539.875 767.125 540.011719 767.679688 542.644531 789.839844 C 543.679688 798.515625 542.480469 802.152344 532.675781 802.890625 C 509.648438 804.625 486.503906 801.820312 463.414062 801.554688 C 455.386719 801.460938 448.796875 801.769531 445.578125 797.328125 C 442.367188 792.898438 443.808594 785.53125 447.046875 780.820312 C 450.597656 775.648438 456.117188 773.960938 465.035156 771.796875 C 489.351562 765.882812 505.808594 764.460938 510.980469 764.039062 C 532.90625 762.25 536.535156 763.375 538.976562 766.117188 Z M 538.972656 766.117188 " fill-opacity="1" fill-rule="nonzero"/><path fill="#010101" d="M 538.207031 766.566406 C 538.765625 767.355469 538.660156 767.433594 540.957031 787.4375 C 542.894531 804.273438 544 802.90625 476.351562 800.222656 C 456.585938 799.441406 451.488281 800.792969 447.6875 797.273438 C 443.046875 792.976562 445.230469 781.046875 454.582031 776.644531 C 466.328125 771.117188 531.449219 759.800781 538.015625 767.074219 C 539.183594 768.367188 541.09375 766.453125 539.929688 765.164062 C 537.574219 762.554688 534.125 761.855469 530.480469 761.667969 C 508.839844 760.5625 464.191406 769.152344 453.960938 773.511719 C 446.117188 776.855469 440.683594 785.441406 442.464844 794.117188 C 444.628906 804.695312 457.84375 803.097656 465.914062 803.269531 C 487.207031 803.722656 531.328125 807.789062 540.308594 802.53125 C 545.761719 799.34375 544.402344 792.648438 543.757812 787.4375 C 541.515625 769.242188 541.410156 767.136719 539.605469 765.492188 C 538.898438 764.847656 537.59375 765.703125 538.207031 766.570312 Z M 538.207031 766.566406 " fill-opacity="1" fill-rule="nonzero"/><path fill="#ffffff" d="M 531.558594 704.570312 C 534.316406 730.546875 536.386719 750.246094 538.03125 761.695312 C 538.429688 764.449219 539.496094 770.992188 535.683594 774.785156 C 532.46875 777.976562 529.71875 777.660156 501.5 780.496094 C 491.609375 781.492188 491.671875 779.488281 488.644531 774.128906 C 485.394531 768.378906 487.230469 768.898438 493.042969 766.648438 C 500.917969 763.601562 503 762.496094 502.949219 753.167969 C 502.816406 729.890625 497.132812 714.332031 500.066406 709.933594 C 505.324219 702.050781 522.453125 701.960938 531.558594 704.578125 Z M 531.558594 704.570312 " fill-opacity="1" fill-rule="nonzero"/><path fill="#010101" d="M 530.042969 704.570312 C 531.460938 721.722656 533.695312 745.367188 535.996094 761.871094 C 537.492188 772.601562 534.675781 775.09375 526.136719 776.023438 C 520.9375 776.59375 515.734375 777.121094 510.535156 777.671875 C 505.90625 778.160156 500.925781 779.242188 496.269531 778.867188 C 492.621094 778.574219 492.058594 776.621094 489.804688 772.597656 C 489.542969 772.140625 488.550781 770.894531 488.746094 770.328125 C 489.332031 768.621094 501.621094 767.894531 503.9375 759.785156 C 505.335938 754.898438 504.074219 740.84375 503.515625 735.917969 C 502.535156 727.253906 499.765625 714.289062 501.226562 711.058594 C 504.144531 704.625 520.542969 703.097656 531.148438 706.066406 C 533.074219 706.601562 533.894531 703.617188 531.972656 703.078125 C 521.03125 700 499.179688 700.878906 497.796875 712.066406 C 496.839844 719.789062 501.921875 735.707031 501.328125 755.070312 C 501.148438 760.957031 499.503906 762.355469 494.679688 764.265625 C 489.402344 766.347656 483.570312 766.929688 485.78125 772.359375 C 486.652344 774.492188 487.855469 776.675781 489.101562 778.613281 C 492.863281 784.464844 499.386719 782.5625 517.109375 780.871094 C 526.894531 779.933594 537.621094 780.789062 540.078125 770.867188 C 540.875 767.648438 540.492188 764.375 540.023438 761.148438 C 537.289062 742.351562 535.523438 723.40625 533.082031 704.570312 C 532.835938 702.6875 529.886719 702.589844 530.050781 704.570312 Z M 530.042969 704.570312 " fill-opacity="1" fill-rule="nonzero"/><path fill="#000000" d="M 686.660156 743.769531 C 687.855469 744.414062 688.171875 744.886719 698.246094 764.792969 C 702.195312 772.589844 702.316406 776.414062 693.359375 780.472656 C 672.328125 790 649.621094 795.308594 627.839844 802.980469 C 620.265625 805.648438 614.1875 808.195312 609.640625 805.128906 C 605.105469 802.070312 603.929688 794.65625 605.355469 789.117188 C 606.917969 783.046875 611.523438 779.566406 619.15625 774.472656 C 639.972656 760.574219 654.941406 753.59375 659.652344 751.421875 C 679.632812 742.21875 683.425781 742.03125 686.664062 743.769531 Z M 686.660156 743.769531 " fill-opacity="1" fill-rule="nonzero"/><path fill="#010101" d="M 686.210938 744.539062 C 686.859375 744.984375 686.882812 745.265625 695.945312 763.339844 C 703.351562 778.113281 704.117188 776.726562 641.222656 796.753906 C 619.855469 803.558594 616.851562 806.226562 611.976562 804.496094 C 606.003906 802.378906 603.730469 790.332031 610.515625 783.125 C 619.46875 773.609375 677.5 740.460938 685.980469 744.9375 C 687.515625 745.75 688.886719 743.417969 687.34375 742.601562 C 684.039062 740.855469 680.757812 741.390625 677.28125 742.460938 C 656.027344 749.019531 616.285156 772.867188 608.675781 780.515625 C 598.765625 790.472656 602.464844 809.988281 616.847656 807.984375 C 622.558594 807.191406 628.066406 804.621094 633.5 802.8125 C 651.527344 796.820312 693.78125 785.324219 700.316406 777.617188 C 704.496094 772.683594 700.8125 766.714844 698.367188 761.929688 C 690.171875 745.921875 689.273438 743.886719 686.898438 742.914062 C 685.910156 742.507812 685.433594 744.003906 686.210938 744.539062 Z M 686.210938 744.539062 " fill-opacity="1" fill-rule="nonzero"/><path fill="#ffffff" d="M 658.582031 688.507812 C 670.085938 711.960938 678.785156 729.757812 684.261719 739.945312 C 685.578125 742.394531 688.832031 748.175781 686.546875 753.042969 C 684.621094 757.144531 681.925781 757.789062 656.394531 770.132812 C 647.445312 774.460938 646.816406 772.558594 642.132812 768.5625 C 637.109375 764.277344 639.011719 764.136719 643.699219 760.03125 C 650.046875 754.464844 651.625 752.710938 648.375 743.96875 C 640.269531 722.148438 629.585938 709.484375 630.835938 704.34375 C 633.074219 695.140625 649.128906 689.175781 658.582031 688.507812 Z M 658.582031 688.507812 " fill-opacity="1" fill-rule="nonzero"/><path fill="#010101" d="M 657.273438 689.273438 C 664.3125 704.515625 674.609375 726.136719 682.128906 740.3125 C 689.550781 754.304688 684.046875 754.519531 664.34375 764.167969 C 660.070312 766.261719 655.65625 769.070312 651.0625 770.359375 C 647.507812 771.355469 646.332031 769.878906 642.566406 766.628906 C 642.21875 766.332031 640.96875 765.472656 640.921875 764.957031 C 640.765625 763.179688 652.675781 758.230469 651.480469 749.082031 C 650.796875 743.886719 644.925781 731.382812 642.585938 726.75 C 638.519531 718.695312 632.011719 708.480469 632.328125 704.929688 C 632.609375 701.78125 635.902344 698.875 638.375 697.175781 C 644.210938 693.160156 651.558594 690.605469 658.582031 690.0625 C 660.558594 689.914062 660.574219 686.816406 658.582031 686.964844 C 651.582031 687.496094 644.570312 689.785156 638.519531 693.371094 C 634.0625 696.015625 628.234375 700.902344 629.34375 706.75 C 630.65625 713.679688 640.4375 726.460938 647.097656 745.125 C 649.507812 751.886719 648.585938 753.542969 644.210938 757.414062 C 639.953125 761.175781 634.824219 763.625 639.019531 768.113281 C 648.273438 778.003906 649.792969 775.355469 671.121094 765.171875 C 679.949219 760.957031 690.351562 758.039062 689.328125 748.03125 C 688.964844 744.472656 687.34375 741.339844 685.675781 738.242188 C 676.726562 721.601562 668.601562 704.515625 659.890625 687.746094 C 658.976562 685.992188 656.460938 687.53125 657.269531 689.277344 Z M 657.273438 689.273438 " fill-opacity="1" fill-rule="nonzero"/><path fill="#000000" d="M 457.484375 304.472656 C 455.070312 318.363281 452.070312 337.3125 449.390625 359.898438 C 443.898438 406.210938 437.699219 458.484375 442.886719 518.546875 C 449.316406 593.042969 471.691406 661.367188 470.890625 686.867188 C 470.679688 693.613281 468.480469 708.929688 474.742188 718.433594 C 483.058594 731.0625 473.609375 733.949219 474.566406 737.71875 C 475.492188 741.371094 483.40625 742.148438 499.464844 744.085938 C 519.855469 746.550781 517.871094 746.601562 520.175781 746.644531 C 530.203125 746.84375 553.445312 745.585938 555.628906 737.070312 C 556.71875 732.808594 551.511719 730.726562 548.390625 722.050781 C 544.324219 710.761719 548.070312 700.125 548.84375 697.121094 C 551.96875 684.980469 547.945312 637.957031 523.726562 505.570312 C 518.386719 434.339844 530.285156 424.539062 532.253906 379.921875 C 532.953125 364.03125 533.242188 355.90625 530.355469 346.804688 C 521.789062 319.789062 493.238281 297.421875 457.488281 304.472656 Z M 457.484375 304.472656 " fill-opacity="1" fill-rule="nonzero"/><path fill="#010101" d="M 455.804688 304.011719 C 446.546875 347.40625 442.070312 392.746094 439.589844 437.003906 C 432.476562 563.898438 470.539062 650.769531 468.285156 691.828125 C 467.855469 699.691406 467.609375 708.089844 470.683594 715.515625 C 473.238281 721.667969 477.359375 725.5 474.066406 732.757812 C 473.160156 734.75 471.777344 735.894531 472.378906 738.324219 C 474.050781 745.089844 489.785156 745.058594 511.394531 747.953125 C 520.863281 749.222656 529.914062 749.347656 539.472656 747.84375 C 544.972656 746.976562 552.570312 745.699219 556.292969 740.980469 C 560.238281 735.984375 556.9375 732.0625 554.042969 727.597656 C 546.054688 715.277344 550.953125 705.097656 552.03125 692.386719 C 552.535156 686.445312 552.175781 680.402344 551.785156 674.464844 C 546.582031 594.785156 522.617188 523.875 525.164062 460.003906 C 526.332031 430.648438 533.019531 413.734375 534.667969 379.921875 C 535.152344 369.957031 535.949219 359.585938 533.671875 349.773438 C 525.71875 315.519531 490.160156 295.984375 456.890625 302.339844 C 454.089844 302.875 455.277344 307.128906 458.070312 306.613281 C 490.3125 300.617188 525.65625 321.652344 529.859375 355.90625 C 533.691406 387.105469 523.390625 417.816406 520.957031 448.636719 C 519.394531 468.402344 518.488281 489.949219 521.960938 509.519531 C 526.574219 535.476562 551.625 669.769531 546.664062 695.488281 C 545.332031 702.382812 541.847656 710.992188 545.984375 722.714844 C 547.332031 726.539062 552.207031 730.835938 552.773438 734.464844 C 554.394531 744.90625 525.164062 744.683594 518.429688 744.128906 C 514.011719 743.761719 509.585938 742.960938 505.183594 742.429688 C 485.476562 740.039062 478.660156 740.101562 477.523438 737.234375 C 476.769531 735.34375 480.070312 731.347656 480.316406 728.738281 C 480.570312 726.027344 479.917969 723.503906 478.832031 721.050781 C 475.230469 712.902344 471.902344 712.332031 472.808594 693.816406 C 474.269531 663.859375 464.550781 633.824219 458.589844 604.71875 C 433.84375 483.875 443.28125 424.121094 459.21875 304.476562 C 459.480469 302.535156 456.207031 302.109375 455.800781 304.011719 Z M 455.804688 304.011719 " fill-opacity="1" fill-rule="nonzero"/><path fill="#000000" d="M 518.34375 329.386719 C 530.363281 315.859375 553.152344 308.222656 569.507812 315.464844 C 581.9375 320.96875 591.730469 335.550781 601.589844 419.824219 C 605.53125 453.496094 608.433594 489.34375 609.8125 527.21875 C 625.273438 560.441406 637.050781 586.050781 644.753906 603.78125 C 659.085938 636.773438 667.792969 642.8125 673.015625 652.082031 C 683.558594 670.808594 678.933594 676.828125 689.96875 699.097656 C 692.777344 704.765625 694.230469 706.703125 693.570312 709.792969 C 692.074219 716.769531 682.183594 718.515625 657.597656 726.84375 C 646.835938 730.492188 639.464844 736.128906 627.292969 736.277344 C 623.664062 736.324219 621.261719 736.328125 618.375 735.140625 C 609.121094 731.347656 606.472656 720.125 602.105469 706.546875 C 574.152344 619.648438 556.894531 658.53125 510.128906 395.160156 " fill-opacity="1" fill-rule="nonzero"/><path fill="#010101" d="M 519.601562 330.644531 C 534.0625 315.226562 566.066406 305.449219 579.511719 326.875 C 596.636719 354.171875 605.085938 475.3125 606.707031 507.355469 C 607.023438 513.601562 606.179688 521.097656 607.566406 527.21875 C 609.40625 535.335938 614.945312 543.585938 618.453125 551.171875 C 641.726562 601.554688 640.457031 601.140625 648.289062 616.988281 C 660.59375 641.890625 667.015625 645.390625 672.359375 655.589844 C 679.050781 668.347656 680.199219 682.960938 686.117188 696.070312 C 688.792969 702.007812 694.867188 708.773438 687.9375 713.582031 C 682.332031 717.472656 674.527344 719.050781 668.140625 721.171875 C 659.359375 724.085938 651.027344 727.589844 642.457031 731.003906 C 632.027344 735.152344 618.554688 737.191406 611.8125 726.230469 C 607.0625 718.503906 605.300781 708.691406 602.367188 700.191406 C 573.753906 617.246094 557.234375 649.695312 511.839844 394.683594 C 511.4375 392.429688 508.007812 393.386719 508.40625 395.628906 C 550.207031 630.464844 566.398438 622.515625 590.527344 681.519531 C 603.382812 712.953125 603.203125 725.351562 612.027344 733.53125 C 624.960938 745.519531 644.878906 733.425781 658.132812 728.789062 C 680.375 721.003906 699.625 718.785156 695.179688 704.828125 C 692.269531 695.679688 686.890625 687.570312 684.5 678.089844 C 681.15625 664.832031 677.386719 653.125 668.878906 642.160156 C 654.859375 624.097656 650.628906 609.839844 619.820312 543.445312 C 617.636719 538.742188 614.792969 533.976562 613.140625 529.082031 C 610.859375 522.339844 611.535156 514.398438 611.167969 507.355469 C 609.421875 473.65625 606.214844 436.941406 601.730469 403.496094 C 598.824219 381.824219 593.496094 339.976562 580.78125 322.492188 C 565.398438 301.332031 532.113281 312.101562 517.085938 328.125 C 515.519531 329.796875 518.03125 332.320312 519.601562 330.640625 Z M 519.601562 330.644531 " fill-opacity="1" fill-rule="nonzero"/><path fill="#ffffff" d="M 445.164062 212.355469 C 430.445312 240.261719 415.75 268.972656 401.1875 298.386719 C 377.828125 286.675781 354.472656 274.964844 331.113281 263.261719 C 326.445312 268.617188 321.777344 273.972656 317.109375 279.328125 C 337.902344 305.890625 358.121094 323.296875 372.527344 334.109375 C 390.976562 347.957031 410.871094 360.582031 427.90625 346.171875 C 450.296875 327.234375 475.347656 255.425781 479.523438 243.292969 C 485.601562 235.773438 485.738281 232.515625 484.789062 230.925781 C 481.09375 224.742188 458.09375 240.238281 445.167969 212.355469 Z M 445.164062 212.355469 " fill-opacity="1" fill-rule="nonzero"/><path fill="#010101" d="M 444.285156 211.84375 C 428.515625 239.914062 414.082031 268.710938 399.652344 297.492188 C 400.460938 297.28125 401.269531 297.066406 402.078125 296.855469 C 378.773438 285.039062 355.28125 273.570312 331.875 261.953125 C 331.304688 261.667969 330.496094 261.660156 330.042969 262.1875 C 325.394531 267.566406 320.742188 272.941406 316.097656 278.316406 C 315.546875 278.953125 315.582031 279.695312 316.097656 280.339844 C 333.722656 302.445312 353.933594 322.765625 376.992188 339.222656 C 393.042969 350.683594 413.609375 361.785156 430.800781 346.25 C 455.964844 323.511719 470.101562 269.96875 481.179688 245.882812 C 483.167969 241.558594 491.960938 232.59375 485.175781 227.980469 C 476.546875 222.105469 463.386719 237.734375 446.597656 211.519531 C 445.632812 210.007812 442.914062 210.941406 443.5625 212.800781 C 446.980469 222.589844 454.527344 230.242188 465.0625 231.84375 C 468.976562 232.4375 472.574219 231.851562 476.460938 231.894531 C 487.902344 232.023438 478.9375 237.742188 475.777344 246.71875 C 468.882812 266.308594 461.277344 285.71875 452.253906 304.425781 C 444.335938 320.847656 431.460938 352.730469 408.972656 350.859375 C 394.703125 349.671875 381.226562 338.96875 370.304688 330.601562 C 354.152344 318.226562 341.011719 305.539062 328.398438 290.894531 C 325.65625 287.710938 319.214844 282.660156 320.128906 278.054688 C 320.546875 275.925781 327.363281 269.082031 329.171875 267.761719 C 333.585938 264.527344 337.570312 268.226562 342.003906 270.46875 C 361.425781 280.300781 380.789062 290.253906 400.292969 299.917969 C 401.101562 300.320312 402.273438 300.191406 402.71875 299.285156 C 416.898438 270.347656 431.792969 241.769531 446.042969 212.871094 C 446.617188 211.707031 444.9375 210.695312 444.289062 211.847656 Z M 444.285156 211.84375 " fill-opacity="1" fill-rule="nonzero"/><path fill="#ecb6a6" d="M 235.203125 172.535156 C 234.664062 202.101562 234.125 231.667969 233.585938 261.234375 C 233.433594 269.617188 240.195312 276.492188 248.582031 276.476562 C 286.21875 276.394531 323.851562 276.3125 361.492188 276.226562 C 369.667969 276.210938 376.320312 269.632812 376.425781 261.457031 L 377.574219 173.898438 C 377.683594 165.605469 371.023438 158.800781 362.726562 158.738281 C 325.25 158.4375 287.765625 158.144531 250.285156 157.84375 C 242.078125 157.78125 235.351562 164.332031 235.203125 172.539062 Z M 235.203125 172.535156 " fill-opacity="1" fill-rule="nonzero"/><path fill="#ffffff" d="M 251.371094 219.875 C 278.125 186.234375 334.023438 186.558594 362.511719 218.746094 C 333.535156 252.753906 280.554688 246.644531 251.371094 219.875 Z M 251.371094 219.875 " fill-opacity="1" fill-rule="nonzero"/><path fill="#010101" d="M 251.648438 220.15625 C 268.109375 205.8125 285.785156 195.851562 308.464844 196.414062 C 328.394531 196.910156 347.835938 205.105469 361.25 220.007812 L 361.25 217.488281 C 333.242188 249.484375 282.691406 245.550781 252.542969 218.703125 C 250.953125 217.285156 248.601562 219.613281 250.191406 221.050781 C 281.550781 249.421875 334.464844 253.484375 363.769531 220.007812 C 364.429688 219.253906 364.453125 218.246094 363.769531 217.488281 C 330.316406 180.316406 268.027344 188.792969 251.027344 219.675781 C 250.804688 220.082031 251.316406 220.445312 251.652344 220.15625 Z M 251.648438 220.15625 " fill-opacity="1" fill-rule="nonzero"/><path fill="#000000" d="M 302.910156 199.308594 C 294.691406 201.160156 287.78125 208.488281 287.464844 217.367188 C 287.042969 229.234375 298.703125 235.34375 299.339844 235.664062 C 306.964844 239.5 318.539062 239.4375 324.597656 231.738281 C 335.101562 218.394531 321.070312 195.210938 302.910156 199.308594 Z M 302.910156 199.308594 " fill-opacity="1" fill-rule="nonzero"/><path fill="#010101" d="M 302.910156 198.84375 C 287.304688 200.484375 277.757812 223.4375 297.265625 235.8125 C 303.351562 239.671875 311.785156 240.472656 318.445312 237.710938 C 328.023438 233.738281 330.847656 223.144531 327.996094 213.792969 C 324.714844 203.042969 313.730469 195.695312 302.542969 197.972656 C 300.800781 198.328125 301.535156 201.015625 303.28125 200.644531 C 312.164062 198.742188 321.222656 204.097656 325.074219 212.109375 C 328.917969 220.105469 327.261719 230.601562 318.929688 234.988281 C 307.992188 240.746094 292.402344 234.03125 289.152344 222.054688 C 286.390625 211.867188 294.066406 203.199219 303.035156 199.753906 C 303.476562 199.585938 303.476562 198.789062 302.910156 198.847656 Z M 302.910156 198.84375 " fill-opacity="1" fill-rule="nonzero"/><path fill="#ffffff" d="M 542.433594 171.015625 C 525.046875 168.523438 524.492188 155.964844 503.761719 150.550781 C 498.449219 149.164062 481.066406 144.621094 467.355469 153.125 C 454.179688 161.296875 461.433594 171.492188 442.441406 194.257812 C 436.507812 201.367188 429.828125 207.558594 430.25 216.5 C 430.515625 222.09375 433.410156 225.699219 431.308594 230.621094 C 428.75 236.609375 422.21875 236.652344 422.058594 240.179688 C 421.78125 246.214844 439.546875 251.5625 440.898438 251.960938 C 449.625 254.519531 457.1875 254.609375 461.964844 254.328125 C 451.3125 313.164062 438.609375 323.171875 442.566406 335.359375 C 444.023438 339.84375 449.027344 348.308594 489.582031 357.640625 C 511.976562 362.792969 530.898438 367.050781 556.640625 364.554688 C 571.066406 363.15625 600.746094 360.28125 605.15625 345.859375 C 606.378906 341.855469 604.285156 341.425781 601.046875 327.082031 C 597.390625 310.910156 597.988281 301.980469 597.789062 286.449219 C 597.476562 261.769531 593.871094 260.453125 596.902344 256.515625 C 606.34375 244.257812 642.222656 255.78125 643.679688 250.1875 C 644.238281 248.042969 637.957031 245.492188 642.582031 234.777344 C 646.40625 225.910156 635 216.335938 631.574219 197.632812 C 629.234375 184.863281 632.554688 178.394531 626.347656 169.429688 C 618.238281 157.722656 606.929688 157.386719 593.601562 158.699219 C 584.65625 159.582031 569.097656 162.628906 559.753906 167.585938 C 558.378906 168.320312 553.949219 172.671875 542.425781 171.015625 Z M 542.433594 171.015625 " fill-opacity="1" fill-rule="nonzero"/><path fill="#010101" d="M 542.820312 169.609375 C 526.050781 166.128906 524.027344 152.808594 499.878906 147.714844 C 486.667969 144.925781 468.550781 145.335938 459.890625 157.546875 C 456.613281 162.164062 455.46875 167.945312 453.371094 173.121094 C 446.324219 190.527344 430.140625 201.128906 428.625 213.425781 C 427.945312 218.96875 430.300781 223.101562 428.769531 228.59375 C 427.269531 233.992188 426.234375 233.015625 422.917969 236.109375 C 422.15625 236.820312 419.457031 238.230469 420.691406 242.121094 C 422.496094 247.828125 431.546875 250.558594 436.539062 252.335938 C 444.726562 255.25 453.292969 256.421875 461.96875 256.023438 C 461.425781 255.3125 460.886719 254.601562 460.34375 253.886719 C 450.339844 308.386719 442.269531 311.164062 440.316406 327.792969 C 438.914062 339.761719 447.957031 345.480469 457.761719 349.726562 C 493.996094 365.414062 557.765625 374.972656 593.847656 358.691406 C 615.53125 348.90625 604.96875 336.589844 602.574219 325.285156 C 598.441406 305.742188 601.136719 287.117188 598.378906 266.140625 C 598.109375 264.082031 597.054688 261.039062 597.746094 258.988281 C 600.359375 251.1875 615.253906 252.386719 621.457031 252.691406 C 627.605469 252.992188 636.367188 255.492188 642.355469 253.390625 C 646.34375 251.992188 645.449219 250.175781 645.472656 248.761719 C 645.480469 248.238281 644.824219 247.777344 644.71875 247.289062 C 644.023438 244.03125 642.957031 240.660156 643.753906 237.078125 C 645.449219 229.445312 644.480469 225.296875 641.042969 218.023438 C 629.078125 192.730469 634.460938 191.28125 631.851562 177.699219 C 629.964844 167.867188 622.105469 159.917969 612.519531 157.34375 C 601.148438 154.289062 587.535156 157.042969 576.316406 159.757812 C 564.664062 162.578125 554.617188 170.351562 542.433594 169.085938 C 539.957031 168.824219 539.972656 172.707031 542.433594 172.960938 C 561.140625 174.910156 558.191406 163.628906 595.972656 160.421875 C 608.597656 159.351562 623.078125 162.074219 627.445312 175.867188 C 630.632812 185.9375 628.550781 196.878906 632.125 207.164062 C 634.785156 214.816406 642.761719 224.636719 641.179688 232.933594 C 640.488281 236.546875 638.496094 239.363281 639.03125 243.296875 C 639.222656 244.710938 639.851562 245.832031 640.1875 247.140625 C 640.972656 250.226562 642.167969 248.847656 639.488281 249.867188 C 635.511719 251.382812 610.601562 244.835938 599.007812 252.132812 C 590.082031 257.75 595.132812 269.355469 595.59375 277.933594 C 596.617188 297.191406 594.265625 309.785156 600.589844 332.925781 C 601.417969 335.964844 603.304688 339.484375 603.578125 342.625 C 605.023438 359.285156 569.625 361.554688 558.9375 362.613281 C 532.800781 365.207031 507.574219 360.605469 482.320312 354.132812 C 471.597656 351.382812 448.992188 347.5 444.265625 335.109375 C 439.921875 323.730469 451.898438 317.660156 463.601562 254.785156 C 463.792969 253.765625 463.152344 252.597656 461.976562 252.648438 C 453.082031 253.039062 444.367188 251.675781 436.050781 248.503906 C 433.980469 247.710938 424.496094 244.417969 424.160156 241.402344 C 423.847656 238.558594 430.222656 235.613281 431.703125 233.492188 C 433.375 231.097656 433.886719 228.414062 433.726562 225.550781 C 433.328125 218.449219 428.484375 214.140625 438.378906 201.769531 C 444.96875 193.53125 451.71875 186.011719 455.980469 176.207031 C 458.53125 170.347656 459.652344 163.101562 463.992188 158.214844 C 476.097656 144.585938 505.683594 149 521.765625 161.988281 C 528.191406 167.179688 533.628906 171.195312 542.050781 172.429688 C 543.863281 172.695312 544.707031 169.996094 542.828125 169.609375 Z M 542.820312 169.609375 " fill-opacity="1" fill-rule="nonzero"/><path fill="#ecb6a6" d="M 422.890625 280.21875 C 422.351562 309.648438 421.816406 339.078125 421.28125 368.507812 C 421.128906 376.851562 427.863281 383.695312 436.210938 383.675781 C 473.671875 383.59375 511.132812 383.511719 548.597656 383.433594 C 556.734375 383.414062 563.351562 376.867188 563.460938 368.730469 L 564.601562 281.574219 C 564.707031 273.316406 558.082031 266.546875 549.824219 266.484375 C 512.515625 266.1875 475.210938 265.894531 437.90625 265.597656 C 429.738281 265.53125 423.042969 272.058594 422.894531 280.222656 Z M 422.890625 280.21875 " fill-opacity="1" fill-rule="nonzero"/><path fill="#ffffff" d="M 476.398438 303.628906 C 483.28125 285.402344 505.78125 283.976562 514.457031 298.152344 C 520.136719 307.429688 515.558594 319.296875 514.027344 323.261719 C 511.664062 329.386719 508.953125 331.457031 507.210938 339.171875 C 506.523438 342.203125 505.570312 345.183594 505.125 348.261719 C 504.679688 351.351562 504.058594 354.523438 502.285156 357.089844 C 498.609375 362.398438 487.589844 362.421875 483.445312 353.3125 " fill-opacity="1" fill-rule="nonzero"/><path fill="#010101" d="M 477.011719 304.242188 C 484.222656 295.925781 491.71875 287.285156 503.996094 292.476562 C 516.234375 297.648438 516.15625 310.789062 512.0625 321.449219 C 509.386719 328.421875 505.804688 334.144531 504.011719 341.515625 C 502.714844 346.855469 502.648438 356.488281 495.761719 357.957031 C 490.878906 358.992188 487.855469 354.136719 484.28125 351.878906 C 483.222656 351.210938 481.746094 352.078125 481.777344 353.3125 C 482.042969 363.75 498.140625 366.402344 504.101562 358.914062 C 508.664062 353.183594 508.171875 343.941406 510.339844 337.199219 C 512.410156 330.769531 516.382812 325.25 518.199219 318.675781 C 521.859375 305.4375 517.59375 291.054688 503.144531 287.085938 C 491.675781 283.9375 476.875 291.003906 475.523438 303.628906 C 475.441406 304.375 476.535156 304.792969 477.007812 304.246094 Z M 477.011719 304.242188 " fill-opacity="1" fill-rule="nonzero"/><path fill="#010101" d="M 504.199219 305.210938 C 501.886719 300.460938 497.160156 298.320312 492.164062 301.078125 C 485.679688 304.660156 484.945312 313.09375 485.027344 319.609375 C 485.0625 322.175781 488.359375 322.925781 489.703125 320.878906 C 492.609375 316.464844 496.632812 319.703125 496.21875 323.996094 C 495.949219 326.847656 493.3125 329.449219 491.203125 331.136719 C 488.808594 333.046875 492.1875 336.355469 494.558594 334.492188 C 499.308594 330.765625 504.65625 321.550781 499.730469 315.941406 C 495.582031 311.222656 488.390625 313.855469 485.367188 318.34375 C 486.925781 318.765625 488.484375 319.1875 490.042969 319.609375 C 490.035156 315.820312 489.953125 311.351562 492.238281 308.089844 C 494.449219 304.933594 499.894531 302.679688 502.953125 306.164062 C 503.578125 306.878906 504.566406 305.972656 504.195312 305.207031 Z M 504.199219 305.210938 " fill-opacity="1" fill-rule="nonzero"/><path fill="#ffffff" d="M 631.316406 253.285156 C 632.03125 283.640625 631.382812 308.730469 630.476562 327.605469 C 628.914062 360.238281 616.816406 365.441406 585.902344 375.484375 C 571.699219 380.097656 553.246094 385.683594 531.269531 391.289062 C 528.753906 384.921875 526.234375 378.550781 523.714844 372.183594 C 547.828125 358.050781 570.65625 341.851562 591.953125 323.757812 C 591.238281 301.789062 591.214844 279.804688 591.878906 257.832031 C 604.128906 250.761719 618.359375 249.371094 631.316406 253.285156 Z M 631.316406 253.285156 " fill-opacity="1" fill-rule="nonzero"/><path fill="#010101" d="M 630.089844 253.285156 C 630.140625 271.507812 630.179688 289.742188 629.664062 307.953125 C 629.207031 324.035156 631.15625 344.3125 619.734375 357.140625 C 610.378906 367.648438 594.0625 370.90625 581.230469 375.015625 C 564.5625 380.355469 547.734375 385.164062 530.785156 389.53125 C 531.53125 389.953125 532.277344 390.378906 533.023438 390.800781 C 531.398438 386.707031 529.777344 382.617188 528.15625 378.523438 C 525.023438 370.617188 526.816406 373.855469 554.90625 354.378906 C 565 347.382812 575.308594 339.664062 585.636719 331.226562 C 587.628906 329.597656 592.390625 326.960938 593.421875 324.609375 C 594.25 322.703125 593.496094 319.738281 593.425781 317.710938 C 593.003906 305.449219 592.785156 294.234375 593.046875 275.136719 C 593.097656 271.203125 592.09375 264.746094 593.335938 260.9375 C 594.679688 256.824219 599.085938 255.878906 603.09375 254.691406 C 612.273438 251.972656 621.753906 252.167969 630.910156 254.769531 C 632.824219 255.3125 633.640625 252.335938 631.730469 251.792969 C 619.613281 248.34375 606.726562 249.050781 595.238281 254.371094 C 588.992188 257.265625 590.300781 258.46875 590.136719 265.632812 C 588.914062 319.359375 591.511719 314.382812 590.199219 320.738281 C 588.734375 327.839844 573.734375 336.386719 568.4375 340.355469 C 530.453125 368.792969 520.71875 369.421875 521.996094 372.65625 C 524.503906 379.027344 527.015625 385.394531 529.523438 391.765625 C 529.890625 392.695312 530.722656 393.300781 531.761719 393.035156 C 550.132812 388.339844 568.371094 383.140625 586.410156 377.296875 C 599.042969 373.203125 614.257812 368.921875 622.996094 358.160156 C 632.769531 346.109375 632.046875 329.957031 632.558594 315.296875 C 633.28125 294.621094 633.402344 273.949219 632.554688 253.277344 C 632.488281 251.707031 630.09375 251.691406 630.097656 253.277344 Z M 630.089844 253.285156 " fill-opacity="1" fill-rule="nonzero"/><path fill="#ffffff" d="M 340.335938 275.792969 C 340.1875 274.464844 335.394531 275.460938 331.390625 271.789062 C 327.964844 268.648438 329.195312 265.824219 326.535156 262.652344 C 322.542969 257.878906 314.808594 258.355469 306.625 258.855469 C 300.484375 259.234375 291.445312 259.789062 290.117188 264.085938 C 289.375 266.484375 291.253906 269.332031 293.96875 273.4375 C 295.257812 275.394531 296.929688 277.925781 299.28125 279.765625 C 308.171875 286.730469 340.714844 279.144531 340.335938 275.789062 Z M 340.335938 275.792969 " fill-opacity="1" fill-rule="nonzero"/><path fill="#010101" d="M 336.257812 277.453125 C 331.160156 277.6875 309.546875 290.429688 296.582031 274.890625 C 293.65625 271.382812 292.671875 267.597656 291.636719 263.28125 C 291.300781 261.886719 289.226562 262.234375 289.1875 263.613281 C 288.996094 270.429688 294.996094 280.375 304.628906 283.984375 C 312.511719 286.9375 321.628906 285.164062 329.441406 282.113281 C 331.824219 281.183594 334.804688 280.316406 336.734375 278.601562 C 337.164062 278.21875 336.824219 277.429688 336.257812 277.453125 Z M 336.257812 277.453125 " fill-opacity="1" fill-rule="nonzero"/><path fill="#010101" d="M 334.089844 274.515625 C 333.625 273.949219 333.1875 273.367188 332.730469 272.796875 C 332.265625 272.21875 331.695312 271.71875 331.210938 271.148438 C 326.011719 265.023438 326.507812 260.835938 325.789062 259.308594 C 325.289062 258.242188 323.476562 258.503906 323.246094 259.640625 C 322.609375 262.816406 326.664062 271.761719 331.324219 274.402344 C 332.027344 274.804688 332.851562 275.082031 333.625 275.308594 C 334.117188 275.453125 334.371094 274.859375 334.089844 274.515625 Z M 334.089844 274.515625 " fill-opacity="1" fill-rule="nonzero"/><path fill="#010101" d="M 308.007812 278.210938 C 308.066406 276.519531 306.070312 275.109375 305.128906 273.859375 C 303.945312 272.28125 302.988281 270.558594 302.191406 268.757812 C 299.175781 261.929688 301.019531 259.167969 299.675781 257.617188 C 299.261719 257.136719 298.453125 257.199219 298.023438 257.617188 C 297.230469 258.390625 297.398438 259.585938 297.449219 260.613281 C 297.707031 266.089844 299.570312 271.03125 302.972656 275.328125 C 304.027344 276.664062 305.714844 279.058594 307.660156 278.667969 C 307.871094 278.628906 308 278.410156 308.011719 278.210938 Z M 308.007812 278.210938 " fill-opacity="1" fill-rule="nonzero"/><path fill="#010101" d="M 313.785156 275.019531 C 313.398438 274.214844 308.929688 268.9375 308.488281 261.183594 C 308.394531 259.488281 308.832031 257.667969 308.488281 256.011719 C 308.304688 255.136719 307.019531 255.019531 306.601562 255.765625 C 305.261719 258.175781 306.242188 264.105469 307.058594 266.78125 C 307.957031 269.714844 310.476562 274.433594 312.882812 275.921875 C 313.480469 276.289062 314.054688 275.582031 313.785156 275.015625 Z M 313.785156 275.019531 " fill-opacity="1" fill-rule="nonzero"/><path fill="#010101" d="M 320.796875 273.828125 C 319.957031 271.421875 316.5 266.917969 317.445312 260.273438 C 317.566406 259.417969 317.769531 258.632812 317.289062 257.839844 C 316.96875 257.316406 316.238281 257.085938 315.695312 257.421875 C 313.605469 258.714844 314.277344 264.457031 314.902344 266.835938 C 316.890625 274.414062 321.382812 275.5 320.800781 273.828125 Z M 320.796875 273.828125 " fill-opacity="1" fill-rule="nonzero"/><path fill="#010101" d="M 412.59375 323.261719 C 413.921875 317.34375 405.957031 300.949219 401.058594 297.515625 C 399.714844 296.570312 398.351562 298.351562 398.976562 299.597656 C 399.460938 300.5625 400.316406 301.363281 400.96875 302.222656 C 408.957031 312.761719 409.558594 320.265625 411.722656 323.375 C 411.941406 323.6875 412.492188 323.691406 412.589844 323.261719 Z M 412.59375 323.261719 " fill-opacity="1" fill-rule="nonzero"/><path fill="#ffffff" d="M 531.5 369.453125 C 529.109375 367.761719 524.839844 367.660156 516.292969 367.453125 C 511.183594 367.328125 508.460938 367.5625 507.949219 368.925781 C 507.414062 370.351562 509.757812 374.5 516.726562 375.195312 C 509.691406 379.234375 503.65625 380.75 499.246094 381.351562 C 494.113281 382.054688 488.769531 381.84375 488.316406 383.683594 C 488.054688 384.75 489.542969 386 490.886719 386.988281 C 505.113281 397.441406 524.722656 396.472656 531.269531 391.289062 C 539.398438 384.855469 538.753906 374.574219 531.5 369.453125 Z M 531.5 369.453125 " fill-opacity="1" fill-rule="nonzero"/><path fill="#010101" d="M 531.941406 369.824219 C 528.921875 367.671875 524.117188 367.527344 520.546875 367.257812 C 517.441406 367.023438 513.15625 366.296875 510.246094 367.773438 C 508.144531 368.84375 507.390625 371.34375 508.902344 373.257812 C 511.246094 376.234375 514.988281 374.695312 518.066406 375.738281 C 517.878906 375.027344 517.691406 374.3125 517.5 373.601562 C 505.523438 383.855469 493.679688 381.964844 490.621094 382.910156 C 490.042969 383.089844 489.800781 384.027344 490.4375 384.316406 C 494.511719 386.1875 508.519531 384.601562 519.3125 375.410156 C 520.09375 374.742188 519.582031 373.558594 518.746094 373.273438 C 516.539062 372.519531 513.523438 373.515625 511.585938 372.230469 C 510.1875 371.292969 510.773438 370.191406 512.195312 369.824219 C 513.363281 369.523438 514.664062 369.636719 515.851562 369.65625 C 525.386719 369.804688 528.378906 371.1875 531.863281 370.40625 C 532.152344 370.339844 532.144531 369.972656 531.941406 369.824219 Z M 531.941406 369.824219 " fill-opacity="1" fill-rule="nonzero"/><path fill="#010101" d="M 513.769531 384.726562 C 513.425781 384.875 513.011719 384.832031 512.652344 384.9375 C 512.332031 385.03125 512.015625 385.222656 511.707031 385.355469 C 500.128906 390.261719 494.480469 386.304688 494.609375 388.863281 C 494.722656 391.183594 503.492188 390.125 505.972656 389.550781 C 508.1875 389.039062 510.765625 387.902344 512.445312 386.84375 C 514.226562 385.726562 513.398438 385.925781 514.175781 385.257812 C 514.488281 384.988281 514.089844 384.589844 513.769531 384.730469 Z M 513.769531 384.726562 " fill-opacity="1" fill-rule="nonzero"/><path fill="#010101" d="M 520.082031 388.121094 C 517.863281 387.554688 515.117188 391.507812 506.886719 391.195312 C 503.46875 391.066406 504.066406 391.105469 502.265625 391.382812 C 501.929688 391.433594 501.824219 391.929688 502.0625 392.140625 C 502.714844 392.714844 503.257812 393.15625 504.09375 393.449219 C 506.449219 394.265625 509.515625 394.105469 511.957031 393.601562 C 519.316406 392.082031 521.171875 388.394531 520.085938 388.121094 Z M 520.082031 388.121094 " fill-opacity="1" fill-rule="nonzero"/><path fill="#010101" d="M 609.734375 337.347656 C 609.472656 335.992188 609.785156 336.292969 608.628906 334.414062 C 603.515625 326.066406 591.480469 322.074219 589.261719 323.433594 C 588.628906 323.824219 588.5625 324.628906 589.039062 325.167969 C 589.996094 326.246094 591.027344 325.773438 594.796875 327.164062 C 602.8125 330.105469 607.011719 335.992188 608.023438 336.9375 C 608.363281 337.257812 608.757812 337.429688 609.105469 337.714844 C 609.398438 337.953125 609.808594 337.734375 609.734375 337.351562 Z M 609.734375 337.347656 " fill-opacity="1" fill-rule="nonzero"/><path fill="#010101" d="M 517.523438 157.960938 C 509.785156 179.042969 507.867188 213.105469 512.164062 218.339844 C 515.136719 221.960938 518.414062 215.71875 519.816406 213.730469 C 525.320312 205.917969 532.605469 199.867188 541.324219 195.949219 C 540.890625 195.890625 540.457031 195.835938 540.019531 195.777344 C 545.800781 203.027344 549.464844 211.503906 550.699219 220.6875 C 550.902344 222.1875 550.902344 224.53125 552.476562 225.335938 C 559.246094 228.800781 581.90625 190.898438 566.566406 166.722656 C 566.195312 166.136719 565.53125 166.007812 564.917969 166.292969 C 549.132812 173.613281 531.558594 168.519531 519.085938 157.300781 C 517.933594 156.265625 516.222656 157.96875 517.378906 159.007812 C 531.136719 171.382812 549.179688 176.335938 566.136719 168.371094 C 565.585938 168.230469 565.039062 168.085938 564.488281 167.941406 C 576.222656 186.230469 564.769531 213.097656 556.140625 221.648438 C 549.125 228.605469 558.035156 214.964844 541.539062 194.261719 C 541.226562 193.867188 540.640625 193.914062 540.238281 194.09375 C 519.746094 203.292969 516.222656 218.542969 513.917969 217.082031 C 512.652344 216.28125 512.550781 212.703125 512.429688 211.460938 C 511.617188 203.332031 512.617188 190.261719 514.027344 181.152344 C 515.21875 173.453125 517.03125 165.898438 518.9375 158.351562 C 519.171875 157.425781 517.84375 157.085938 517.523438 157.960938 Z M 517.523438 157.960938 " fill-opacity="1" fill-rule="nonzero"/><path fill="#ffffff" d="M 546.207031 76.804688 C 538.742188 71.066406 525.910156 73.03125 519.140625 79.765625 C 517.027344 81.871094 514.789062 85.144531 512.992188 97.519531 C 510.476562 114.808594 507.230469 137.144531 518.828125 145.515625 C 524.015625 149.261719 528.65625 146.917969 531.121094 151.175781 C 533.027344 154.464844 531.691406 160.359375 528.9375 172.011719 C 527.621094 177.59375 526.984375 179.15625 527.773438 181.65625 C 530.664062 190.808594 549.996094 193.953125 556.910156 185.003906 C 563.941406 175.902344 553.34375 165.722656 553.121094 122.394531 C 560.898438 121.992188 565.71875 117.558594 565.46875 114.605469 C 565.234375 111.832031 560.394531 108.671875 553.71875 108.652344 C 554.167969 105.582031 554.550781 100.941406 553.789062 95.417969 C 552.847656 88.582031 551.816406 81.117188 546.207031 76.800781 Z M 546.207031 76.804688 " fill-opacity="1" fill-rule="nonzero"/><path fill="#010101" d="M 546.707031 75.949219 C 539.96875 70.820312 530.164062 71.441406 522.96875 75.28125 C 517.484375 78.210938 514.8125 82.632812 513.277344 88.503906 C 511.578125 95.015625 509.636719 110.300781 509.226562 117.019531 C 508.742188 125.027344 508.800781 134.101562 512.953125 141.253906 C 519.601562 152.707031 529.226562 147.023438 530.292969 153.734375 C 531.21875 159.570312 526.65625 171.179688 525.828125 178.378906 C 524.386719 190.921875 548.191406 197.296875 557.59375 186.890625 C 566.671875 176.84375 555.164062 167.15625 554.839844 122.390625 C 554.269531 122.964844 553.695312 123.535156 553.125 124.105469 C 571.0625 122.871094 572.390625 107.316406 553.726562 106.953125 C 554.273438 107.671875 554.820312 108.386719 555.367188 109.105469 C 556.242188 102.90625 555.839844 96.851562 554.792969 90.699219 C 553.832031 85.042969 552.035156 79.335938 547.402344 75.613281 C 545.730469 74.269531 543.335938 76.628906 545.027344 77.988281 C 549.234375 81.378906 550.671875 86.464844 551.535156 91.59375 C 552.464844 97.105469 552.882812 102.640625 552.089844 108.199219 C 551.9375 109.289062 552.515625 110.324219 553.726562 110.351562 C 556.367188 110.402344 559.074219 110.84375 561.386719 112.191406 C 565.019531 114.304688 564.199219 116.371094 560.597656 118.539062 C 555.464844 121.625 551.398438 119.566406 551.414062 122.390625 C 551.613281 153.316406 557.40625 170.109375 557.589844 176.316406 C 558.132812 194.5 528.84375 189.996094 529.125 179.285156 C 529.1875 176.910156 533.441406 162.558594 533.644531 155.898438 C 533.964844 145.417969 525.214844 147.292969 520.921875 144.953125 C 508.648438 138.269531 512.109375 114.082031 514.0625 100.238281 C 514.953125 93.90625 516.042969 84.867188 520.132812 80.746094 C 526.507812 74.328125 538.132812 72.21875 545.714844 77.65625 C 546.761719 78.410156 547.703125 76.703125 546.714844 75.949219 Z M 546.707031 75.949219 " fill-opacity="1" fill-rule="nonzero"/><path fill="#000000" d="M 549.859375 109.726562 C 546.222656 108.671875 544.3125 105.910156 530.65625 80.953125 C 526.390625 86.144531 520.96875 90.421875 514.628906 93.363281 C 511.566406 118.480469 509.328125 135.558594 517 143.140625 C 525.773438 151.808594 528.597656 148.308594 531.125 151.179688 C 533.695312 154.101562 531.601562 162.496094 529.785156 166.371094 C 517.71875 156.085938 503.199219 149.898438 488.570312 147.933594 C 495.3125 130.921875 499.367188 112.847656 500.53125 94.589844 C 501.25 83.355469 500.917969 64.660156 515.085938 58.285156 C 521.363281 55.460938 529.941406 57.394531 533.007812 63.554688 C 542.871094 56.476562 560.148438 60.582031 567.96875 81.597656 C 572.082031 92.652344 573.171875 101.816406 573.308594 103.730469 C 574.121094 115.109375 578.636719 132.722656 595.601562 159.390625 C 583.652344 159.496094 571.390625 162.101562 559.757812 167.585938 C 556.890625 158.476562 554.441406 149.960938 552.332031 142.121094 C 551.273438 138.183594 549.382812 124.390625 551.917969 121.210938 C 554.863281 117.515625 560.726562 119.671875 562.359375 116.4375 C 563.285156 114.605469 562.457031 111.851562 560.90625 110.453125 C 558.140625 107.957031 554.519531 111.074219 549.855469 109.722656 Z M 549.859375 109.726562 " fill-opacity="1" fill-rule="nonzero"/><path fill="#010101" d="M 550.089844 108.882812 C 547.269531 107.972656 546.445312 107.464844 531.441406 80.492188 C 531.179688 80.019531 530.382812 79.855469 530.011719 80.308594 C 521.246094 91 514.433594 91.394531 513.777344 93.363281 C 513.371094 94.578125 513.4375 96.191406 513.285156 97.464844 C 511.714844 110.933594 510.125 123.289062 511.382812 132.398438 C 512.644531 141.527344 519.308594 148 525.292969 149.917969 C 527.421875 150.597656 530.257812 150.429688 531.15625 152.949219 C 532.261719 156.046875 530.535156 162.605469 529.035156 165.929688 C 529.492188 165.871094 529.945312 165.8125 530.402344 165.753906 C 518.511719 155.679688 504.304688 149.113281 488.835938 146.984375 C 489.0625 147.386719 489.289062 147.789062 489.519531 148.191406 C 495.324219 133.371094 499.117188 117.835938 500.8125 102.011719 C 502.28125 88.308594 499.882812 68.152344 513.898438 59.9375 C 519.882812 56.433594 528.753906 57.5 532.207031 64.023438 C 532.429688 64.441406 533.078125 64.632812 533.476562 64.355469 C 542.101562 58.433594 553.242188 62.136719 559.773438 69.359375 C 566.488281 76.78125 569.421875 87.289062 571.332031 96.890625 C 573.316406 106.867188 571.246094 122.820312 594.789062 159.863281 C 595.058594 159.390625 595.332031 158.917969 595.601562 158.445312 C 583.050781 158.613281 570.609375 161.371094 559.238281 166.703125 C 559.742188 166.90625 560.242188 167.109375 560.746094 167.316406 C 558.042969 158.730469 552.566406 141.671875 551.859375 132.742188 C 551.515625 128.375 550.242188 121.5625 555.667969 120.027344 C 559.339844 118.992188 564.453125 119.070312 563.636719 113.699219 C 563.289062 111.410156 561.742188 109.15625 559.402344 108.601562 C 556.339844 107.875 553.269531 109.546875 550.117188 108.765625 C 548.882812 108.460938 548.355469 110.371094 549.59375 110.671875 C 554.519531 111.878906 558.683594 108.804688 560.828125 111.863281 C 561.679688 113.074219 562.296875 115.152344 561.199219 116.425781 C 559.15625 118.800781 553.75 116.566406 550.878906 120.980469 C 549.160156 123.621094 549.683594 130.738281 549.96875 133.804688 C 550.753906 142.171875 555.035156 155.925781 558.765625 167.859375 C 558.976562 168.53125 559.664062 168.753906 560.273438 168.472656 C 571.367188 163.292969 583.347656 160.464844 595.597656 160.328125 C 596.289062 160.320312 596.800781 159.527344 596.410156 158.910156 C 587.046875 144.09375 578.265625 127.925781 575.109375 110.484375 C 573.71875 102.8125 572.773438 79.859375 560.203125 67.09375 C 553.109375 59.886719 541.367188 56.675781 532.53125 62.75 C 532.953125 62.863281 533.378906 62.972656 533.800781 63.082031 C 528.753906 53.566406 512.335938 52.445312 504.390625 67.792969 C 498.023438 80.097656 501.722656 92.78125 496.402344 118.414062 C 491.386719 142.566406 485.675781 148.503906 488.300781 148.875 C 503.210938 150.980469 517.648438 157.234375 529.160156 166.984375 C 529.542969 167.304688 530.277344 167.355469 530.523438 166.804688 C 532.367188 162.71875 534.367188 154.972656 532.367188 151.476562 C 530.066406 147.449219 526.09375 150.820312 518.628906 143.550781 C 510.8125 135.933594 512.273438 123.414062 513.273438 113.414062 C 513.941406 106.722656 514.65625 100.035156 515.46875 93.359375 C 515.328125 93.605469 515.1875 93.851562 515.046875 94.097656 C 521.300781 91.144531 526.832031 86.878906 531.285156 81.589844 C 530.808594 81.527344 530.335938 81.46875 529.859375 81.40625 C 540.300781 100.777344 544.429688 109.09375 549.613281 110.5625 C 550.699219 110.871094 551.140625 109.226562 550.074219 108.882812 Z M 550.089844 108.882812 " fill-opacity="1" fill-rule="nonzero"/><path fill="#010101" d="M 532.683594 208.40625 C 532.691406 208.449219 532.699219 208.496094 532.710938 208.539062 C 532.824219 207.683594 532.933594 206.832031 533.046875 205.980469 C 532.871094 206.292969 532.726562 206.621094 532.621094 206.96875 C 532.578125 207.3125 532.527344 207.65625 532.484375 207.996094 C 532.484375 208.699219 532.660156 209.351562 533.011719 209.957031 C 533.214844 210.21875 533.417969 210.480469 533.617188 210.742188 C 534.101562 211.222656 534.671875 211.554688 535.328125 211.738281 C 535.671875 211.78125 536.015625 211.828125 536.355469 211.875 C 537.519531 211.871094 538.769531 211.324219 539.402344 210.347656 C 540.046875 209.636719 540.386719 208.472656 540.164062 207.484375 C 540.117188 206.484375 539.492188 205.460938 538.707031 204.953125 C 537.996094 204.304688 536.832031 203.96875 535.84375 204.191406 C 534.953125 204.230469 534.195312 204.6875 533.5625 205.3125 C 534.90625 205.136719 536.246094 204.964844 537.585938 204.789062 C 537.554688 204.769531 537.523438 204.75 537.492188 204.726562 C 537.714844 204.898438 537.9375 205.070312 538.15625 205.242188 C 537.523438 204.746094 537.140625 204.367188 536.265625 204.328125 C 535.976562 204.25 535.6875 204.25 535.398438 204.328125 C 534.492188 204.371094 534.046875 204.820312 533.519531 205.226562 C 533.066406 205.8125 532.664062 206.21875 532.625 207.101562 C 532.527344 207.535156 532.546875 207.972656 532.683594 208.40625 Z M 532.683594 208.40625 " fill-opacity="1" fill-rule="nonzero"/><path fill="#010101" d="M 535.648438 231.355469 C 536.566406 231.058594 537.410156 230.210938 537.707031 229.296875 C 538.21875 228.320312 538.015625 227.578125 537.90625 226.757812 C 537.71875 226.097656 537.382812 225.527344 536.902344 225.039062 C 536.640625 224.835938 536.378906 224.632812 536.117188 224.429688 C 535.082031 223.824219 533.6875 223.683594 532.644531 224.230469 C 531.730469 224.53125 530.886719 225.375 530.585938 226.289062 C 530.074219 227.265625 530.28125 228.007812 530.390625 228.828125 C 530.574219 229.488281 530.910156 230.0625 531.390625 230.546875 C 531.652344 230.75 531.917969 230.953125 532.179688 231.15625 C 533.191406 231.742188 534.589844 231.910156 535.648438 231.355469 Z M 535.648438 231.355469 " fill-opacity="1" fill-rule="nonzero"/><path fill="#010101" d="M 480.914062 194.132812 C 478.320312 197.429688 470.847656 220.457031 467.09375 235.828125 C 465.972656 240.417969 464.34375 245.214844 465.09375 249.933594 C 465.230469 250.785156 466.441406 250.800781 466.832031 250.164062 C 470.425781 244.273438 469.039062 236.972656 480.652344 201.648438 C 481.367188 199.484375 482.546875 197.144531 482.671875 194.859375 C 482.714844 194.023438 481.46875 193.425781 480.914062 194.128906 Z M 480.914062 194.132812 " fill-opacity="1" fill-rule="nonzero"/><path fill="#010101" d="M 584.519531 203.222656 C 583.339844 205.859375 583.210938 213.117188 583.183594 215.828125 C 583.066406 226.695312 583.800781 234.421875 585.046875 242.785156 C 585.660156 246.898438 585.835938 251.964844 588.6875 255.230469 C 589.042969 255.636719 589.710938 255.394531 589.84375 254.921875 C 591.21875 250.1875 589.035156 249.320312 587.132812 229.300781 C 585.695312 214.203125 586.804688 206.660156 585.789062 203.390625 C 585.628906 202.878906 584.78125 202.648438 584.519531 203.226562 Z M 584.519531 203.222656 " fill-opacity="1" fill-rule="nonzero"/><path fill="#010101" d="M 607.085938 183.707031 C 605.933594 187.351562 609.964844 196.117188 607.914062 217.992188 C 607.113281 226.53125 606.171875 226.984375 607.160156 228.53125 C 607.28125 228.71875 607.582031 228.847656 607.785156 228.695312 C 609.078125 227.707031 609.011719 226.175781 609.234375 224.632812 C 612.789062 200.53125 607.773438 181.515625 607.082031 183.707031 Z M 607.085938 183.707031 " fill-opacity="1" fill-rule="nonzero"/><path fill="#010101" d="M 614.832031 216.132812 C 614.734375 216.519531 614.589844 216.09375 614.449219 217.203125 C 613.878906 221.566406 613.785156 227.234375 613.84375 227.785156 C 614.019531 229.4375 615.042969 230.019531 615.546875 229.398438 C 616.382812 228.363281 616.230469 227.371094 616.222656 226.136719 C 616.210938 224.960938 616.109375 217.640625 615.65625 216.554688 C 615.585938 216.382812 615.441406 216.285156 615.40625 216.132812 C 615.335938 215.84375 614.902344 215.851562 614.832031 216.132812 Z M 614.832031 216.132812 " fill-opacity="1" fill-rule="nonzero"/><path fill="#ffffff" d="M 497.285156 403.730469 C 515.109375 419.402344 515.246094 418.515625 515.773438 420.632812 C 515.921875 421.230469 523.195312 475.53125 523.949219 477.574219 C 524.308594 478.558594 525.695312 478.398438 525.773438 477.324219 C 525.894531 475.644531 517.753906 419.636719 517.605469 419.113281 C 517.238281 417.796875 515.789062 417.027344 514.753906 416.179688 C 509.265625 411.683594 503.773438 407.207031 498.210938 402.808594 C 497.566406 402.300781 496.640625 403.164062 497.285156 403.730469 Z M 497.285156 403.730469 " fill-opacity="1" fill-rule="nonzero"/><path fill="#ffffff" d="M 560.117188 383.488281 C 568.058594 390.15625 577.855469 394.117188 588.195312 394.875 L 587.71875 394.394531 C 588.964844 427.0625 591.507812 461.25 594.007812 501.414062 C 594.996094 517.25 595.191406 535.21875 603.078125 549.070312 C 609.292969 559.988281 620.191406 565.453125 623.351562 575.707031 C 626.6875 586.515625 620.582031 598.769531 625.90625 609.203125 C 630.535156 618.277344 642.328125 622.136719 645.605469 631.78125 C 649.585938 643.496094 642.136719 648.113281 654.328125 666.121094 C 667.753906 685.957031 675.332031 694.246094 682.855469 714.105469 C 683.085938 714.714844 684.070312 714.460938 683.847656 713.832031 C 672.953125 683.15625 650.34375 665.0625 648.433594 649.625 C 647.507812 642.140625 649.609375 633.261719 643.660156 625.71875 C 637.242188 617.574219 626.238281 614.171875 625 601.308594 C 623.964844 590.542969 628.832031 579.949219 621.414062 569.035156 C 615.316406 560.066406 606.613281 556.226562 601.1875 542.285156 C 596.085938 529.175781 596.226562 517.121094 593.722656 478.777344 C 588.179688 393.960938 589.21875 393.972656 588.203125 393.921875 C 578.023438 393.390625 568.269531 389.671875 560.320312 383.296875 C 560.183594 383.1875 559.984375 383.375 560.121094 383.492188 Z M 560.117188 383.488281 " fill-opacity="1" fill-rule="nonzero"/><path fill="#ffffff" d="M 511.539062 423.359375 C 511.53125 426.589844 507.828125 451.628906 507.230469 487.152344 C 505.695312 577.78125 537.621094 604.089844 535.679688 670.046875 C 534.609375 706.386719 531.011719 721.691406 538.648438 739.53125 C 538.90625 740.136719 539.796875 739.617188 539.535156 739.011719 C 528.917969 714.246094 540.414062 681.945312 536.007812 644.019531 C 528.867188 582.5625 503.605469 567.707031 509.496094 459.730469 C 509.503906 459.554688 511.679688 423.554688 511.707031 423.382812 C 511.726562 423.257812 511.542969 423.238281 511.542969 423.359375 Z M 511.539062 423.359375 " fill-opacity="1" fill-rule="nonzero"/><path fill="#ffffff" d="M 632.070312 686.804688 C 632.101562 687.773438 631.660156 687.480469 632.054688 689.488281 C 632.242188 690.453125 632.054688 689.496094 634.304688 700.03125 C 637.042969 712.894531 636.785156 712.398438 637.664062 713.105469 C 637.832031 713.234375 638.113281 713.253906 638.226562 713.03125 C 638.753906 711.972656 638.46875 711.394531 637.488281 707.121094 C 633.023438 687.65625 633.238281 688.335938 632.882812 687.664062 C 632.699219 687.320312 632.398438 687.160156 632.226562 686.757812 C 632.191406 686.679688 632.066406 686.722656 632.070312 686.800781 Z M 632.070312 686.804688 " fill-opacity="1" fill-rule="nonzero"/><path fill="#ffffff" d="M 641.4375 705.195312 C 641.503906 707.574219 642.121094 712.722656 643.40625 713.851562 C 643.738281 714.144531 644.222656 714.019531 644.367188 713.597656 C 645.042969 711.59375 641.394531 703.6875 641.4375 705.195312 Z M 641.4375 705.195312 " fill-opacity="1" fill-rule="nonzero"/><path fill="#ffffff" d="M 523.0625 76.820312 C 522.601562 77.476562 521.957031 77.96875 521.492188 78.636719 C 518.488281 82.96875 513.996094 86.375 509.117188 88.378906 C 507.414062 89.078125 508.589844 91.082031 509.738281 90.628906 C 514.441406 88.765625 518.273438 85.703125 521.316406 81.378906 C 523.328125 78.519531 522.921875 78.40625 523.421875 76.972656 C 523.5 76.75 523.183594 76.648438 523.058594 76.820312 Z M 523.0625 76.820312 " fill-opacity="1" fill-rule="nonzero"/><path fill="#ffffff" d="M 539.664062 78.410156 C 540.972656 83.699219 542.160156 87.953125 546.925781 94.136719 C 550.023438 98.164062 557.03125 104.476562 559.78125 104.75 C 560.171875 104.789062 560.472656 104.257812 560.242188 103.945312 C 558.902344 102.082031 550.296875 98.835938 543.648438 86.261719 C 542.308594 83.730469 540.917969 81.03125 540.121094 78.28125 C 540.039062 77.988281 539.589844 78.109375 539.664062 78.40625 Z M 539.664062 78.410156 " fill-opacity="1" fill-rule="nonzero"/><path fill="#ffffff" d="M 556.210938 94.707031 C 561.089844 100.667969 561.503906 101.5625 562.46875 101.253906 C 562.976562 101.089844 563.242188 100.394531 562.46875 99.429688 C 562.394531 99.339844 557.546875 93.539062 557.46875 93.445312 C 556.832031 92.683594 555.347656 93.648438 556.210938 94.703125 Z M 556.210938 94.707031 " fill-opacity="1" fill-rule="nonzero"/><path fill="#010101" d="M 543.066406 138.386719 C 542.792969 138.570312 542.53125 138.753906 542.273438 138.960938 C 542.503906 138.902344 542.726562 138.839844 542.953125 138.78125 C 541.558594 138.191406 538.742188 144.089844 531.15625 145.550781 C 528.847656 145.992188 527.484375 145.476562 526.558594 146.515625 C 526.152344 146.96875 525.929688 147.765625 526.324219 148.316406 C 528.460938 151.28125 540.960938 147.945312 543.546875 139.90625 C 543.636719 139.628906 543.570312 139.207031 543.261719 138.964844 C 543.320312 139.191406 543.382812 139.417969 543.441406 139.644531 C 543.496094 139.304688 543.515625 138.984375 543.507812 138.644531 C 543.503906 138.433594 543.257812 138.257812 543.0625 138.390625 Z M 543.066406 138.386719 " fill-opacity="1" fill-rule="nonzero"/><path fill="#010101" d="M 557.304688 113.980469 C 556.109375 111.507812 548.808594 113.308594 548.238281 115.8125 C 547.949219 117.089844 549.175781 118.351562 550.988281 116.777344 C 551.140625 116.644531 550.789062 116.914062 550.953125 116.800781 C 551.289062 116.578125 552.191406 115.984375 552.574219 115.867188 C 552.117188 116.007812 553.117188 115.671875 553.617188 115.570312 C 553.714844 115.550781 554.167969 115.480469 553.839844 115.519531 C 554.476562 115.445312 554.910156 115.460938 555.445312 115.511719 C 555.007812 115.46875 556.160156 115.722656 556.964844 115.277344 C 557.4375 115.015625 557.523438 114.433594 557.304688 113.980469 Z M 557.304688 113.980469 " fill-opacity="1" fill-rule="nonzero"/><path fill="#010101" d="M 523.011719 105.625 C 524.617188 109.347656 525.046875 113.332031 523.859375 117.25 C 523.332031 118.980469 521.835938 120.867188 522.386719 122.753906 C 522.804688 124.1875 525.382812 125.683594 526.257812 123.8125 C 526.574219 123.132812 526.199219 122.347656 525.402344 122.324219 C 524.792969 122.308594 524.484375 122.300781 524.664062 121.511719 C 524.84375 120.742188 525.304688 120.015625 525.605469 119.285156 C 527.648438 114.273438 526.9375 108.511719 524.558594 104.71875 C 523.925781 103.714844 522.558594 104.589844 523.007812 105.625 Z M 523.011719 105.625 " fill-opacity="1" fill-rule="nonzero"/><path fill="#010101" d="M 524.871094 132.257812 C 525.871094 133.605469 529.019531 132.847656 530.585938 131.71875 C 532.203125 130.554688 534.003906 128.03125 533.070312 126.417969 C 532.742188 125.855469 531.820312 125.660156 531.371094 126.199219 C 531.15625 126.449219 530.941406 126.6875 530.851562 127.015625 C 530.796875 127.226562 530.675781 127.933594 530.558594 128.0625 C 530.792969 127.523438 530.335938 128.621094 530 128.96875 C 530.398438 128.558594 529.523438 129.519531 529.148438 129.78125 C 529.527344 129.515625 528.886719 129.972656 528.429688 130.203125 C 528.222656 130.308594 527.9375 130.429688 528.234375 130.300781 C 528.039062 130.378906 527.269531 130.636719 527.058594 130.621094 C 527.609375 130.660156 526.3125 130.628906 526.070312 130.601562 C 526.25 130.625 526.246094 130.625 526.050781 130.597656 C 525.027344 130.457031 524.394531 131.613281 524.871094 132.257812 Z M 524.871094 132.257812 " fill-opacity="1" fill-rule="nonzero"/><path fill="#010101" d="M 530.597656 106.644531 C 531.902344 104.660156 534.523438 103.839844 536.539062 104.257812 C 537.433594 104.445312 538.242188 104.921875 539.152344 104.527344 C 539.332031 104.449219 539.46875 104.1875 539.457031 103.996094 C 539.25 101.335938 531.894531 100.96875 529.027344 105.726562 C 528.414062 106.738281 529.957031 107.621094 530.597656 106.648438 Z M 530.597656 106.644531 " fill-opacity="1" fill-rule="nonzero"/><path fill="#010101" d="M 534.464844 107.953125 C 534.976562 107.789062 535.449219 107.316406 535.613281 106.800781 C 535.902344 106.257812 535.785156 105.84375 535.722656 105.382812 C 535.621094 105.015625 535.433594 104.695312 535.164062 104.425781 C 535.019531 104.3125 534.871094 104.195312 534.722656 104.085938 C 534.144531 103.75 533.367188 103.671875 532.789062 103.976562 C 532.273438 104.140625 531.800781 104.613281 531.636719 105.125 C 531.347656 105.671875 531.464844 106.085938 531.527344 106.542969 C 531.632812 106.914062 531.816406 107.234375 532.085938 107.503906 C 532.234375 107.617188 532.378906 107.730469 532.527344 107.84375 C 533.09375 108.167969 533.875 108.261719 534.464844 107.953125 Z M 534.464844 107.953125 " fill-opacity="1" fill-rule="nonzero"/><path fill="#010101" d="M 521.261719 109.15625 C 518.144531 105.371094 511.28125 105.515625 511.570312 107.4375 C 511.917969 109.734375 514.90625 106.023438 520.144531 110.273438 C 520.9375 110.914062 521.914062 109.949219 521.261719 109.15625 Z M 521.261719 109.15625 " fill-opacity="1" fill-rule="nonzero"/><path fill="#010101" d="M 515.8125 112.132812 C 516.363281 111.953125 516.867188 111.449219 517.046875 110.898438 C 517.355469 110.3125 517.230469 109.871094 517.167969 109.378906 C 517.058594 108.984375 516.855469 108.640625 516.566406 108.351562 C 516.410156 108.230469 516.253906 108.109375 516.09375 107.984375 C 515.472656 107.625 514.640625 107.539062 514.019531 107.867188 C 513.46875 108.046875 512.964844 108.550781 512.785156 109.101562 C 512.476562 109.6875 512.601562 110.128906 512.664062 110.621094 C 512.773438 111.015625 512.976562 111.359375 513.265625 111.648438 C 513.421875 111.769531 513.578125 111.890625 513.738281 112.015625 C 514.34375 112.367188 515.179688 112.464844 515.8125 112.132812 Z M 515.8125 112.132812 " fill-opacity="1" fill-rule="nonzero"/></svg>