<?xml version="1.0" encoding="UTF-8"?>
<svg width="1200pt" height="1200pt" version="1.1" viewBox="0 0 1200 1200" xmlns="http://www.w3.org/2000/svg">
 <path d="m1064.4 882h-0.9375c-2.7188-0.09375-5.3438 0.65625-7.5 2.3438-2.4375 1.9688-3.8438 4.6875-4.2188 7.6875l-1.4062 13.594c-0.28125 2.5312-2.4375 4.4062-5.0625 4.2188-2.5312-0.28125-4.4062-2.5312-4.2188-5.0625l1.6875-20.344c0-0.84375-0.1875-1.6875-0.28125-2.5312-0.65625-5.8125-5.0625-10.688-11.062-11.531-1.2188-0.1875-2.4375-0.09375-3.5625 0-2.3438 0.28125-4.5938 1.2188-6.4688 2.8125-2.8125 2.3438-4.5 5.625-4.7812 9.2812l-1.0312 14.719-0.65625 9.375c-0.1875 2.5312-2.4375 4.5-4.9688 4.3125s-4.5-2.3438-4.4062-4.875l0.1875-3.4688 2.0625-41.812c0.1875-4.125-1.3125-7.875-3.9375-10.594-2.3438-2.5312-5.625-4.2188-9.375-4.5-3.75-0.375-7.3125 0.84375-10.219 3.1875-0.28125 0.1875-0.5625 0.375-0.75 0.5625-3 2.8125-4.6875 6.5625-4.6875 10.688v42.75c0.09375 2.5312-1.875 4.6875-4.5 4.6875-2.625 0.28125-4.6875-1.9688-4.7812-4.5l-1.9688-47.344-2.8125-67.969c-0.28125-7.7812-6.6562-13.875-14.438-13.875-7.875 0-14.344 6.375-14.531 14.25l-1.875 108.66-0.75 41.625c0 2.0625-1.5 3.9375-3.4688 4.4062-2.0625 0.5625-4.125-0.375-5.25-2.1562l-11.156-18.844-13.219-22.406c-2.3438-4.0312-6.5625-6.2812-10.969-6.2812-1.7812 0-3.6562 0.375-5.3438 1.2188-5.9062 2.7188-8.8125 9.375-6.75 15.562l13.125 40.219 15.656 48c0.46875 1.3125 1.125 2.625 1.5938 3.9375 2.3438 6 5.25 11.719 8.8125 16.875 14.625 21.281 38.719 34.781 65.438 35.156h1.4062c24.75 0 47.156-11.25 62.156-29.062 9.75-11.625 16.406-26.062 18.375-42.188l9.75-79.031 1.125-9.2812c0.375-3.0938-0.46875-6.0938-2.3438-8.4375-1.875-2.4375-4.5938-3.9375-7.6875-4.3125z"/>
 <path d="m133.97 401.63c1.2188-2.8125 2.4375-5.625 3.6562-8.4375 2.1562-4.6875 0-10.312-4.6875-12.375s-10.312 0-12.375 4.6875c-1.3125 2.9062-2.625 5.8125-3.8438 8.8125-2.0625 4.7812 0.1875 10.312 4.9688 12.281 1.2188 0.5625 2.4375 0.75 3.6562 0.75 3.6562 0 7.125-2.1562 8.625-5.7188z"/>
 <path d="m85.406 636.19c5.1562-0.28125 9.1875-4.6875 8.9062-9.8438-0.1875-3.0938-0.28125-6.0938-0.375-9.1875-0.1875-5.1562-4.3125-9.1875-9.6562-9.0938-5.1562 0.1875-9.1875 4.5-9.0938 9.6562 0.09375 3.1875 0.28125 6.375 0.375 9.5625 0.28125 4.9688 4.4062 8.9062 9.375 8.9062z"/>
 <path d="m90.75 682.69c5.1562-0.75 8.7188-5.4375 7.9688-10.594-0.46875-3-0.84375-6.0938-1.2188-9.1875-0.65625-5.1562-5.3438-8.8125-10.5-8.1562s-8.8125 5.3438-8.1562 10.5c0.375 3.1875 0.84375 6.2812 1.2188 9.4688 0.65625 4.6875 4.6875 8.0625 9.2812 8.0625h1.3125z"/>
 <path d="m107.25 717.28c-0.75-3-1.4062-6-2.0625-9-1.125-5.0625-6.0938-8.25-11.156-7.125s-8.25 6.0938-7.125 11.156c0.65625 3.0938 1.4062 6.1875 2.1562 9.2812 1.0312 4.3125 4.875 7.2188 9.0938 7.2188 0.75 0 1.4062 0 2.1562-0.28125 5.0625-1.2188 8.1562-6.2812 6.9375-11.25z"/>
 <path d="m266.26 980.72c-3.9375-3.375-9.8438-3-13.219 0.84375-3.375 3.9375-3 9.8438 0.84375 13.219 2.4375 2.0625 4.7812 4.125 7.2188 6.1875 1.7812 1.5 3.9375 2.25 6.0938 2.25 2.625 0 5.3438-1.125 7.125-3.2812 3.375-3.9375 2.8125-9.8438-1.125-13.219-2.3438-1.9688-4.6875-4.0312-7.0312-6z"/>
 <path d="m117.09 752.72c-1.5938-4.9688-6.8438-7.6875-11.719-6.0938-4.9688 1.5938-7.6875 6.8438-6.0938 11.719 0.9375 3 1.9688 6.0938 3 9.0938 1.3125 3.9375 4.9688 6.375 8.9062 6.375 1.0312 0 1.9688-0.1875 3-0.46875 4.875-1.6875 7.5938-6.9375 5.9062-11.906-0.9375-2.9062-1.9688-5.8125-2.8125-8.7188z"/>
 <path d="m114.94 424.13c-4.875-1.6875-10.219 0.9375-11.906 5.8125-1.0312 3-2.0625 6.0938-3 9.0938-1.5938 4.9688 1.125 10.219 6.0938 11.812 0.9375 0.28125 1.9688 0.46875 2.9062 0.46875 3.9375 0 7.6875-2.5312 8.9062-6.4688 0.9375-2.9062 1.875-5.8125 2.9062-8.8125 1.6875-4.875-0.9375-10.219-5.8125-11.906z"/>
 <path d="m87.281 542.53h1.2188c4.5938 0 8.625-3.4688 9.2812-8.1562 0.375-3.0938 0.84375-6.0938 1.2188-9.0938 0.75-5.1562-2.8125-9.8438-7.875-10.594s-9.8438 2.8125-10.594 7.875c-0.46875 3.0938-0.9375 6.2812-1.3125 9.4688-0.65625 5.1562 3 9.8438 8.0625 10.5z"/>
 <path d="m94.594 496.31c0.65625 0.1875 1.4062 0.1875 2.0625 0.1875 4.3125 0 8.1562-3 9.1875-7.3125 0.65625-3 1.4062-6 2.0625-9 1.2188-5.0625-1.875-10.125-6.9375-11.344-4.9688-1.2188-10.125 1.875-11.344 6.9375-0.75 3.0938-1.5 6.1875-2.1562 9.2812-1.125 5.0625 2.0625 10.031 7.125 11.156z"/>
 <path d="m84.281 589.31h0.375c4.9688 0 9.1875-3.9375 9.375-9 0.09375-3.0938 0.28125-6.0938 0.46875-9.1875 0.28125-5.1562-3.6562-9.5625-8.8125-9.8438-5.0625-0.1875-9.5625 3.6562-9.8438 8.8125-0.1875 3.1875-0.28125 6.375-0.46875 9.5625-0.1875 5.1562 3.8438 9.5625 9 9.75z"/>
 <path d="m302.16 1009.5c-4.2188-3.0938-10.031-2.1562-13.125 2.0625s-2.1562 10.031 2.0625 13.125c2.5312 1.875 5.1562 3.75 7.7812 5.5312 1.5938 1.125 3.4688 1.6875 5.3438 1.6875 3 0 5.9062-1.4062 7.6875-4.0312 3-4.2188 1.9688-10.125-2.3438-13.031-2.5312-1.7812-4.9688-3.5625-7.5-5.3438z"/>
 <path d="m748.78 1083.9c-2.9062 0.9375-5.9062 1.7812-8.8125 2.625-4.9688 1.4062-7.875 6.6562-6.375 11.625 1.2188 4.125 4.9688 6.75 9 6.75 0.84375 0 1.6875-0.09375 2.625-0.375 3.0938-0.84375 6.0938-1.7812 9.1875-2.7188 4.9688-1.5 7.6875-6.75 6.1875-11.719s-6.75-7.6875-11.719-6.1875z"/>
 <path d="m704.26 1095.5c-3 0.65625-6 1.2188-9 1.7812-5.0625 0.9375-8.4375 5.9062-7.5 10.969 0.84375 4.5 4.7812 7.5938 9.1875 7.5938 0.5625 0 1.125 0 1.7812-0.1875 3.0938-0.5625 6.2812-1.2188 9.375-1.875 5.0625-1.0312 8.3438-6 7.2188-11.062-1.0312-5.0625-6-8.3438-11.062-7.2188z"/>
 <path d="m833.72 1049.1c-2.7188 1.4062-5.4375 2.8125-8.1562 4.125-4.5938 2.3438-6.4688 7.9688-4.2188 12.562 1.5938 3.2812 4.9688 5.1562 8.4375 5.1562 1.4062 0 2.8125-0.28125 4.125-0.9375 2.8125-1.4062 5.7188-2.9062 8.5312-4.3125 4.5938-2.4375 6.375-8.0625 3.9375-12.656-2.3438-4.5938-8.0625-6.375-12.656-3.9375z"/>
 <path d="m792.1 1068.5c-2.8125 1.125-5.7188 2.3438-8.5312 3.375-4.875 1.875-7.2188 7.3125-5.3438 12.094 1.4062 3.75 4.9688 6 8.7188 6 1.125 0 2.25-0.1875 3.375-0.65625 3-1.125 5.9062-2.3438 8.9062-3.5625 4.7812-1.9688 7.0312-7.4062 5.1562-12.281-1.9688-4.7812-7.4062-7.0312-12.281-5.1562z"/>
 <path d="m658.87 1102.9c-3 0.375-6.0938 0.65625-9.1875 0.9375-5.1562 0.46875-8.9062 5.0625-8.4375 10.219 0.46875 4.875 4.5938 8.4375 9.2812 8.4375h0.9375c3.1875-0.28125 6.375-0.65625 9.4688-1.0312 5.1562-0.5625 8.8125-5.25 8.25-10.406s-5.3438-8.9062-10.406-8.25z"/>
 <path d="m432.19 1077.8-8.7188-3.0938c-4.875-1.7812-10.219 0.65625-12.094 5.5312-1.7812 4.875 0.65625 10.219 5.5312 12.094 3 1.125 6 2.1562 9 3.2812 1.0312 0.375 2.0625 0.5625 3.0938 0.5625 3.8438 0 7.5-2.4375 8.8125-6.2812 1.6875-4.875-0.84375-10.219-5.7188-11.906z"/>
 <path d="m348.47 1039.5c-2.625-1.5-5.3438-3.0938-7.9688-4.6875-4.4062-2.625-10.219-1.2188-12.844 3.2812-2.625 4.4062-1.2188 10.219 3.2812 12.844 2.7188 1.5938 5.5312 3.2812 8.25 4.875 1.5 0.84375 3.0938 1.2188 4.6875 1.2188 3.2812 0 6.375-1.6875 8.1562-4.6875 2.5312-4.5 1.0312-10.219-3.4688-12.75z"/>
 <path d="m389.44 1060.6c-2.8125-1.3125-5.5312-2.625-8.3438-3.9375-4.6875-2.25-10.312-0.28125-12.469 4.4062-2.25 4.6875-0.28125 10.312 4.4062 12.469 2.9062 1.4062 5.8125 2.7188 8.7188 4.0312 1.2188 0.5625 2.625 0.84375 3.9375 0.84375 3.5625 0 6.9375-2.0625 8.5312-5.4375 2.1562-4.6875 0-10.312-4.5938-12.469z"/>
 <path d="m613.03 1106.1c-3.0938 0-6.0938 0.09375-9.1875 0.1875-5.1562 0-9.375 4.3125-9.2812 9.4688 0 5.1562 4.2188 9.2812 9.375 9.2812 3.1875 0 6.375 0 9.5625-0.1875 5.1562-0.09375 9.2812-4.4062 9.0938-9.5625-0.09375-5.1562-4.3125-9.5625-9.5625-9.0938z"/>
 <path d="m521.26 1100.2c-3-0.46875-6.0938-0.9375-9.0938-1.5-5.1562-0.9375-9.9375 2.5312-10.875 7.5938s2.5312 9.9375 7.5938 10.875c3.0938 0.5625 6.2812 1.0312 9.4688 1.5938 0.46875 0 0.9375 0.09375 1.5 0.09375 4.5 0 8.5312-3.2812 9.2812-7.9688 0.75-5.1562-2.7188-9.9375-7.7812-10.688z"/>
 <path d="m476.26 1091.1c-3-0.75-5.9062-1.5-8.9062-2.3438-4.9688-1.3125-10.125 1.5938-11.531 6.5625s1.5938 10.125 6.5625 11.531c3.0938 0.84375 6.1875 1.5938 9.2812 2.4375 0.75 0.1875 1.5 0.28125 2.25 0.28125 4.2188 0 8.0625-2.8125 9.0938-7.125 1.2188-5.0625-1.7812-10.125-6.8438-11.344z"/>
 <path d="m1056.1 359.34c-4.5938 2.3438-6.4688 7.9688-4.125 12.562 1.4062 2.7188 2.7188 5.4375 4.0312 8.25 1.5938 3.375 4.9688 5.25 8.4375 5.25 1.4062 0 2.7188-0.28125 4.0312-0.9375 4.6875-2.25 6.6562-7.875 4.4062-12.562-1.4062-2.8125-2.8125-5.7188-4.2188-8.5312-2.3438-4.5938-7.9688-6.4688-12.562-4.125z"/>
 <path d="m828.1 147.94 8.1562 4.2188c1.4062 0.75 2.9062 1.125 4.4062 1.125 3.375 0 6.5625-1.7812 8.25-4.9688 2.4375-4.5938 0.65625-10.219-3.8438-12.656-2.8125-1.5-5.625-3-8.5312-4.4062-4.5938-2.3438-10.219-0.46875-12.562 4.125s-0.46875 10.219 4.125 12.562z"/>
 <path d="m1085.3 774.56c-4.7812-1.875-10.219 0.5625-12.094 5.4375-1.125 2.9062-2.25 5.7188-3.375 8.625-1.9688 4.7812 0.375 10.219 5.25 12.188 1.125 0.46875 2.3438 0.65625 3.4688 0.65625 3.75 0 7.2188-2.25 8.7188-5.9062 1.2188-3 2.3438-5.9062 3.4688-8.9062 1.875-4.875-0.5625-10.219-5.4375-12.094z"/>
 <path d="m1099.1 729.84c-4.9688-1.4062-10.125 1.5-11.531 6.4688-0.84375 3-1.6875 5.9062-2.5312 8.8125-1.5 4.9688 1.3125 10.219 6.2812 11.625 0.9375 0.28125 1.7812 0.375 2.7188 0.375 4.0312 0 7.7812-2.625 9-6.6562 0.9375-3 1.7812-6.0938 2.625-9.1875 1.4062-4.9688-1.5-10.125-6.4688-11.531z"/>
 <path d="m873.47 1026c-2.5312 1.6875-5.1562 3.2812-7.7812 4.875-4.4062 2.7188-5.7188 8.5312-3 12.938 1.7812 2.9062 4.875 4.4062 7.9688 4.4062 1.6875 0 3.375-0.46875 4.9688-1.4062 2.7188-1.6875 5.3438-3.375 8.0625-5.0625 4.3125-2.8125 5.625-8.625 2.8125-12.938s-8.625-5.625-12.938-2.8125z"/>
 <path d="m1070.8 413.9c1.125 2.8125 2.25 5.7188 3.2812 8.625 1.4062 3.75 4.9688 6.0938 8.8125 6.0938 1.125 0 2.25-0.1875 3.2812-0.5625 4.875-1.7812 7.3125-7.2188 5.5312-12.094-1.125-3-2.25-5.9062-3.4688-8.9062-1.875-4.7812-7.3125-7.125-12.188-5.25-4.7812 1.875-7.2188 7.3125-5.25 12.188z"/>
 <path d="m1054.8 843.1c1.4062 0.65625 2.8125 1.0312 4.3125 1.0312 3.375 0 6.6562-1.875 8.3438-5.0625 1.4062-2.8125 2.9062-5.7188 4.3125-8.5312 2.25-4.6875 0.375-10.219-4.3125-12.562-4.5938-2.25-10.312-0.375-12.562 4.3125-1.3125 2.7188-2.7188 5.5312-4.125 8.25-2.3438 4.5938-0.5625 10.219 4.0312 12.656z"/>
 <path d="m1103.4 547.5c0.28125 3 0.5625 6.0938 0.84375 9.1875 0.375 4.875 4.5 8.625 9.375 8.625h0.75c5.1562-0.46875 9-4.9688 8.5312-10.125-0.28125-3.1875-0.5625-6.375-0.9375-9.4688-0.5625-5.1562-5.0625-8.9062-10.312-8.3438-5.1562 0.5625-8.9062 5.1562-8.3438 10.312z"/>
 <path d="m1096.6 502.03 1.6875 9c0.84375 4.5 4.7812 7.7812 9.1875 7.7812 0.5625 0 1.125 0 1.6875-0.1875 5.0625-0.9375 8.5312-5.8125 7.5938-10.875-0.5625-3.0938-1.125-6.2812-1.7812-9.375-1.0312-5.0625-5.9062-8.4375-10.969-7.4062s-8.4375 5.9062-7.4062 10.969z"/>
 <path d="m1050.3 330.19c-1.5938-2.7188-3.2812-5.4375-4.9688-8.1562-2.7188-4.4062-8.5312-5.7188-12.938-3s-5.7188 8.5312-3 12.938l4.7812 7.875c1.7812 2.9062 4.875 4.5938 8.0625 4.5938 1.5938 0 3.2812-0.46875 4.7812-1.3125 4.4062-2.625 5.9062-8.4375 3.1875-12.844z"/>
 <path d="m1085.7 457.4c0.84375 2.9062 1.6875 5.9062 2.5312 8.8125 1.125 4.125 4.875 6.9375 9 6.9375 0.84375 0 1.6875-0.09375 2.4375-0.375 4.9688-1.4062 7.9688-6.5625 6.5625-11.531-0.84375-3.0938-1.6875-6.0938-2.625-9.1875-1.5-4.9688-6.6562-7.7812-11.625-6.375-4.9688 1.5-7.7812 6.6562-6.375 11.625z"/>
 <path d="m1016.3 305.34c1.9688 0 3.8438-0.5625 5.5312-1.7812 4.2188-3.0938 5.0625-8.9062 2.0625-13.125-1.875-2.5312-3.75-5.0625-5.7188-7.5938-3.0938-4.125-9-4.9688-13.125-1.7812-4.125 3.0938-4.9688 9-1.7812 13.125 1.875 2.4375 3.6562 4.875 5.5312 7.4062s4.6875 3.8438 7.5938 3.8438z"/>
 <path d="m742.5 114.09c2.9062 0.84375 5.9062 1.7812 8.8125 2.625 0.9375 0.28125 1.875 0.46875 2.8125 0.46875 4.0312 0 7.6875-2.5312 8.9062-6.5625 1.5938-4.9688-1.2188-10.219-6.1875-11.719-3-0.9375-6.0938-1.875-9.1875-2.8125-4.9688-1.4062-10.125 1.4062-11.625 6.375-1.4062 4.9688 1.4062 10.219 6.375 11.625z"/>
 <path d="m513.19 100.97c0.5625 0 1.0312 0 1.5938-0.09375 3-0.46875 6-1.0312 9.0938-1.4062 5.1562-0.75 8.625-5.5312 7.875-10.688s-5.5312-8.625-10.688-7.875c-3.1875 0.46875-6.2812 0.9375-9.4688 1.5-5.0625 0.84375-8.5312 5.7188-7.6875 10.781 0.75 4.5938 4.7812 7.7812 9.1875 7.7812z"/>
 <path d="m422.81 124.97c1.0312 0 2.1562-0.1875 3.1875-0.5625 2.9062-1.0312 5.8125-2.0625 8.625-3.0938 4.875-1.6875 7.5-7.0312 5.8125-11.906s-7.0312-7.5-11.906-5.8125c-3 1.0312-6 2.0625-9 3.1875-4.875 1.7812-7.4062 7.125-5.625 12 1.4062 3.8438 4.9688 6.1875 8.8125 6.1875z"/>
 <path d="m786.1 129.1c2.9062 1.125 5.7188 2.25 8.5312 3.4688 1.2188 0.46875 2.4375 0.75 3.5625 0.75 3.6562 0 7.125-2.1562 8.625-5.8125 1.9688-4.7812-0.28125-10.312-5.0625-12.281-2.9062-1.2188-5.9062-2.4375-8.9062-3.5625-4.7812-1.875-10.219 0.46875-12.188 5.25-1.875 4.7812 0.46875 10.219 5.25 12.188z"/>
 <path d="m379.6 142.97c1.3125 0 2.7188-0.28125 4.0312-0.9375 2.7188-1.3125 5.5312-2.625 8.3438-3.8438 4.6875-2.1562 6.8438-7.6875 4.6875-12.375s-7.6875-6.8438-12.375-4.6875c-2.9062 1.3125-5.8125 2.625-8.625 4.0312-4.6875 2.25-6.6562 7.7812-4.5 12.469 1.5938 3.375 4.9688 5.3438 8.4375 5.3438z"/>
 <path d="m167.34 302.34c-1.7812 2.625-3.5625 5.25-5.3438 7.875-2.9062 4.3125-1.6875 10.125 2.625 13.031 1.5938 1.0312 3.375 1.5938 5.1562 1.5938 3 0 6-1.5 7.7812-4.2188 1.6875-2.5312 3.4688-5.0625 5.1562-7.5938 2.9062-4.3125 1.875-10.125-2.4375-13.031s-10.125-1.875-13.031 2.4375z"/>
 <path d="m467.44 110.91c0.75 0 1.5938-0.09375 2.4375-0.28125 3-0.75 5.9062-1.5 8.9062-2.25 5.0625-1.2188 8.0625-6.2812 6.8438-11.344s-6.375-8.1562-11.344-6.8438c-3.0938 0.75-6.1875 1.5938-9.2812 2.3438-4.9688 1.3125-7.9688 6.4688-6.6562 11.438 1.125 4.2188 4.875 6.9375 9.0938 6.9375z"/>
 <path d="m697.87 103.22c3 0.5625 6 1.2188 9 1.875 0.65625 0.1875 1.3125 0.1875 1.9688 0.1875 4.3125 0 8.25-3 9.1875-7.4062 1.125-5.0625-2.1562-10.031-7.2188-11.156-3.0938-0.65625-6.1875-1.3125-9.375-1.9688-5.0625-1.0312-10.031 2.3438-10.969 7.4062-1.0312 5.0625 2.3438 10.031 7.4062 10.969z"/>
 <path d="m142.03 342.84c-1.5938 2.8125-3.0938 5.5312-4.5938 8.3438-2.4375 4.5938-0.75 10.219 3.75 12.656 1.4062 0.75 2.9062 1.125 4.4062 1.125 3.375 0 6.5625-1.7812 8.25-4.875 1.5-2.7188 2.9062-5.4375 4.5-8.0625 2.5312-4.5 0.9375-10.219-3.5625-12.75s-10.219-0.9375-12.75 3.5625z"/>
 <path d="m652.31 96.469c3.0938 0.28125 6.0938 0.65625 9.1875 1.0312h1.125c4.6875 0 8.7188-3.4688 9.2812-8.25 0.65625-5.1562-3-9.8438-8.1562-10.406-3.1875-0.375-6.2812-0.75-9.4688-1.0312-5.1562-0.5625-9.75 3.1875-10.312 8.3438s3.1875 9.75 8.3438 10.312z"/>
 <path d="m559.69 95.25h0.75c3.0938-0.1875 6.0938-0.46875 9.1875-0.65625 5.1562-0.28125 9.0938-4.7812 8.8125-9.9375s-4.6875-9.1875-9.9375-8.8125c-3.1875 0.1875-6.375 0.375-9.4688 0.65625-5.1562 0.375-9 4.875-8.625 10.031 0.375 4.875 4.5 8.625 9.375 8.625z"/>
 <path d="m606.47 93.75c3.0938 0 6.1875 0.09375 9.1875 0.1875h0.28125c5.0625 0 9.1875-4.0312 9.375-9.0938 0.1875-5.1562-3.9375-9.4688-9.0938-9.6562-3.1875 0-6.375-0.1875-9.5625-0.1875-4.6875 0-9.4688 4.0312-9.4688 9.2812 0 5.1562 4.0312 9.4688 9.2812 9.4688z"/>
 <path d="m567 1105.2c-3.0938-0.1875-6.0938-0.375-9.1875-0.65625-5.25-0.46875-9.6562 3.4688-10.125 8.625-0.375 5.1562 3.4688 9.6562 8.625 10.125 3.1875 0.28125 6.2812 0.46875 9.4688 0.65625h0.65625c4.875 0 9-3.8438 9.375-8.8125 0.375-5.1562-3.5625-9.6562-8.7188-9.9375z"/>
 <path d="m1114.2 637.4c-5.1562-0.375-9.75 3.375-10.219 8.5312-0.28125 3.0938-0.5625 6.0938-0.9375 9.1875-0.5625 5.1562 3.1875 9.75 8.3438 10.312h1.0312c4.6875 0 8.8125-3.5625 9.2812-8.3438 0.375-3.1875 0.65625-6.375 0.9375-9.4688 0.46875-5.1562-3.375-9.75-8.5312-10.219z"/>
 <path d="m1108.8 684c-5.1562-0.9375-9.9375 2.4375-10.875 7.5-0.5625 3-1.125 6-1.7812 9.0938-1.0312 5.0625 2.25 10.031 7.3125 11.062 0.65625 0.09375 1.2188 0.1875 1.875 0.1875 4.4062 0 8.25-3.0938 9.1875-7.5 0.65625-3.0938 1.2188-6.1875 1.7812-9.375 0.9375-5.0625-2.4375-9.9375-7.5-10.875z"/>
 <path d="m1124.8 593.26c0-5.1562-4.6875-9.2812-9.4688-9.2812-5.1562 0-9.2812 4.3125-9.2812 9.4688v15.75c0 5.1562 4.0312 9.4688 9.1875 9.5625h0.1875c5.0625 0 9.2812-4.125 9.375-9.1875z"/>
 <path d="m208.6 769.78c-1.7812-0.09375-3.4688-0.1875-5.25-0.1875-16.219 0-31.406 4.6875-44.156 12.938-9.2812 5.9062-16.688 13.688-22.5 22.594-2.5312 3.8438-4.7812 7.7812-6.5625 11.906-6.6562 15.094-8.8125 32.25-5.7188 49.219 3.4688 19.031 8.7188 52.781 7.5938 79.125-1.5 35.156 12.469 66.844 50.062 66.844 22.031 0 39.844-17.812 39.844-39.844 0-2.5312 0.28125-4.9688 0.65625-7.3125 1.0312-6.6562 3.2812-12.844 6.1875-18.469 9.375-18.281 24.938-30.281 24.938-30.281 19.875-15.469 32.438-39.75 31.688-67.031-1.125-41.906-34.781-76.875-76.688-79.406zm40.406 113.25c-2.7188 4.4062-8.5312 5.7188-12.938 3s-5.7188-8.5312-3-12.938c3.4688-5.625 5.3438-12.094 5.3438-18.75 0-19.594-15.938-35.531-35.531-35.531s-35.531 15.938-35.531 35.531c0 3.6562 0.65625 7.2188 1.6875 10.688 5.8125-3.9375 12.562-6.0938 19.594-6.0938 19.312 0 34.969 15.656 34.969 34.969 0 9.2812-3.5625 18.094-10.125 24.656-1.5 1.5-3.2812 2.1562-5.25 2.5312-0.46875 0-0.9375 0.28125-1.4062 0.28125-2.3438 0-4.7812-0.9375-6.5625-2.7188-2.0625-2.0625-2.8125-4.7812-2.625-7.5 0.1875-2.0625 0.9375-4.125 2.5312-5.7188 3-3.0938 4.6875-7.125 4.6875-11.438 0-9-7.3125-16.219-16.219-16.219-3.4688 0-6.75 1.125-9.4688 3.0938 1.4062 1.2188 2.8125 2.4375 4.5 3.4688 4.3125 2.8125 5.625 8.625 2.8125 12.938-1.7812 2.8125-4.7812 4.3125-7.875 4.3125-1.7812 0-3.4688-0.46875-5.0625-1.5-0.375-0.28125-0.75-0.5625-1.2188-0.84375-3.5625-2.4375-6.8438-5.25-9.6562-8.3438-7.7812-8.625-12.562-19.594-13.688-31.406-0.1875-1.6875-0.28125-3.2812-0.28125-4.9688 0-6.2812 1.125-12.375 3.0938-18 7.4062-21.094 27.562-36.281 51.188-36.281 29.906 0 54.281 24.375 54.281 54.281 0 10.219-2.8125 20.062-8.1562 28.688z"/>
 <path d="m257.06 709.78c-5.1562 0-9.375 4.2188-9.375 9.375s4.2188 9.375 9.375 9.375c27.469 0 49.875 22.406 49.875 49.875 0 5.1562 4.2188 9.375 9.375 9.375s9.375-4.2188 9.375-9.375c0-37.875-30.75-68.625-68.625-68.625z"/>
 <path d="m257.06 672.94c-5.1562 0-9.375 4.2188-9.375 9.375s4.2188 9.375 9.375 9.375c47.812 0 86.719 38.906 86.719 86.719 0 5.1562 4.2188 9.375 9.375 9.375s9.375-4.2188 9.375-9.375c0-58.125-47.344-105.47-105.47-105.47z"/>
 <path d="m272.16 778.4c0 5.1562 4.2188 9.375 9.375 9.375 3.375 0 6.1875-1.875 7.7812-4.5 0.9375-1.4062 1.5938-3 1.5938-4.875 0-18.656-15.188-33.844-33.844-33.844-4.2188 0-7.5938 2.8125-8.8125 6.6562-0.28125 0.84375-0.5625 1.7812-0.5625 2.7188 0 5.1562 4.2188 9.375 9.375 9.375 8.3438 0 15.094 6.75 15.094 15.094z"/>
 <path d="m599.81 376.97c41.438 0 75-33.562 75-75 0-12.375-3-23.906-8.3438-34.219 16.781-1.9688 29.812-16.031 29.812-33.281 0-18.562-15.094-33.656-33.656-33.656s-32.719 14.25-33.562 32.156c-9-3.8438-18.938-5.9062-29.344-5.9062-41.438 0-75 33.562-75 75s33.562 75 75 75zm-6.9375-107.53c3.8438 6.9375 10.875 15.938 22.406 19.125 4.5938 1.3125 7.3125 6 6.1875 10.688-2.8125 11.812-4.4062 32.438 11.719 47.906-9.375 6.9375-20.906 11.062-33.375 11.062-31.031 0-56.25-25.219-56.25-56.25 0-4.4062 0.5625-8.7188 1.5-12.844 22.875-2.25 37.781-10.312 47.719-19.781z"/>
 <path d="m761.81 274.97-81.844 90c-20.531 22.594-49.688 35.438-80.156 35.438s-59.625-12.844-80.156-35.438l-81.844-90c-10.969-12.094-29.625-13.219-42-2.4375-11.25 9.75-13.594 26.25-5.625 38.812l101.25 159c6.1875 9.75 11.344 20.062 15.375 30.844 14.25 38.25 13.594 80.344-1.5938 118.22-15.375 38.25-28.125 77.438-38.062 117.47l-56.531 228.47c-4.7812 19.219 5.8125 38.906 24.469 45.562 19.219 6.8438 40.406-2.4375 48.469-21.188l100.5-236.34c2.7188-6.375 8.9062-10.5 15.844-10.5s13.125 4.125 15.844 10.5l100.5 236.34c7.9688 18.75 29.25 28.031 48.469 21.188 18.656-6.6562 29.156-26.344 24.469-45.562l-56.531-228.47c-9.9375-40.031-22.594-79.312-38.062-117.47-15.281-37.781-15.844-79.969-1.5938-118.22 4.0312-10.781 9.1875-21.188 15.375-30.844l101.25-159c7.9688-12.562 5.625-29.062-5.625-38.812-12.375-10.781-30.938-9.6562-42 2.4375zm-151.22 212.9c0 5.1562-4.2188 9.375-9.375 9.375s-9.375-4.2188-9.375-9.375v-7.9688c0-5.1562 4.2188-9.375 9.375-9.375s9.375 4.2188 9.375 9.375zm0-43.406c0 5.1562-4.2188 9.375-9.375 9.375s-9.375-4.2188-9.375-9.375v-7.9688c0-5.1562 4.2188-9.375 9.375-9.375s9.375 4.2188 9.375 9.375zm48.75 1.3125h-19.875c-5.1562 0-9.375-4.2188-9.375-9.375s4.2188-9.375 9.375-9.375h19.875c5.1562 0 9.375 4.2188 9.375 9.375s-4.2188 9.375-9.375 9.375z"/>
 <path d="m118.69 281.34h220.5c10.312 0 18.75-8.4375 18.75-18.75v-127.6c0-8.3438-5.4375-15.281-13.031-17.719-1.7812-0.5625-3.75-1.0312-5.7188-1.0312h-220.5c-10.312 0-18.75 8.4375-18.75 18.75v127.6c0 10.312 8.4375 18.75 18.75 18.75zm129.74-121.6c9-9.0938 21.656-13.594 38.062-13.594 12.844 0 22.969 2.625 30.281 7.7812 6.8438 4.7812 12 12 15.562 21.656 0.46875 1.2188-0.28125 2.5312-1.5 2.8125l-23.625 5.25c-1.0312 0.1875-2.0625-0.375-2.4375-1.4062-0.75-2.1562-1.5938-3.8438-2.4375-4.9688-1.6875-2.3438-3.8438-4.125-6.2812-5.4375 0 0-0.09375-0.09375-0.1875-0.09375-2.5312-1.3125-5.4375-1.9688-8.5312-1.9688-7.125 0-12.656 2.9062-16.406 8.625-2.5312 3.75-3.8438 9.375-4.2188 16.781 0 1.125-0.09375 2.0625-0.09375 3.2812 0 7.875 0.84375 13.875 2.5312 18.281 0.75 1.9688 1.5938 3.6562 2.625 4.875 3.4688 4.2188 8.25 6.2812 14.438 6.2812s10.594-1.6875 13.688-5.0625c2.7188-3 4.7812-7.2188 6.1875-12.562 0.28125-1.125 1.5-1.875 2.625-1.5l23.531 7.125s0.375 0.375 0.65625 0.46875c0.65625 0.5625 1.0312 1.2188 0.84375 2.0625-1.875 6.8438-4.5938 12.656-8.25 17.438-4.0312 5.1562-8.9062 9.0938-14.812 11.719-4.7812 2.1562-10.781 3.375-17.719 3.75-1.5938 0-3.1875 0.1875-4.875 0.1875-11.062 0-20.156-1.5938-27.188-4.875-7.0312-3.1875-13.125-8.9062-18.188-16.969s-7.6875-18.469-7.6875-31.125c0-16.875 4.5-29.812 13.5-38.906zm-110.72 0c9-9.0938 21.656-13.594 38.062-13.594 12.844 0 22.969 2.625 30.281 7.7812 6.8438 4.7812 12 12 15.562 21.656 0.46875 1.2188-0.28125 2.5312-1.5 2.8125l-23.625 5.25c-1.0312 0.1875-2.0625-0.375-2.4375-1.4062-0.75-2.1562-1.5938-3.8438-2.4375-4.9688-1.7812-2.4375-3.9375-4.2188-6.4688-5.5312s-5.4375-1.9688-8.5312-1.9688c-7.125 0-12.656 2.9062-16.406 8.625-2.9062 4.2188-4.3125 10.969-4.3125 20.062 0 11.344 1.6875 19.031 5.1562 23.25s8.25 6.2812 14.438 6.2812 10.594-1.6875 13.688-5.0625c2.7188-3 4.7812-7.2188 6.1875-12.562 0.28125-1.125 1.5-1.875 2.625-1.5l14.344 4.3125 9.1875 2.8125c1.125 0.375 1.7812 1.5 1.4062 2.625-1.875 6.8438-4.5938 12.656-8.25 17.438-4.0312 5.1562-8.9062 9.0938-14.812 11.719-2.7188 1.2188-5.9062 2.1562-9.2812 2.8125-3.9375 0.75-8.3438 1.125-13.219 1.125-11.062 0-20.156-1.5938-27.188-4.875-7.0312-3.1875-13.125-8.9062-18.188-16.969s-7.6875-18.469-7.6875-31.125c0-16.875 4.5-29.812 13.5-38.906z"/>
 <path d="m891 664.31c-9.8438 0-17.812 7.9688-17.812 17.812s7.9688 17.812 17.812 17.812 17.812-7.9688 17.812-17.812-7.9688-17.812-17.812-17.812z"/>
 <path d="m891 756.74c-9.8438 0-17.812 7.9688-17.812 17.812s7.9688 17.812 17.812 17.812 17.812-7.9688 17.812-17.812-7.9688-17.812-17.812-17.812z"/>
 <path d="m921.19 728.16c0 9.8438 7.9688 17.812 17.812 17.812s17.812-7.9688 17.812-17.812-7.9688-17.812-17.812-17.812-17.812 7.9688-17.812 17.812z"/>
 <path d="m1024.5 664.31c-9.8438 0-17.812 7.9688-17.812 17.812s7.9688 17.812 17.812 17.812 17.812-7.9688 17.812-17.812-7.9688-17.812-17.812-17.812z"/>
 <path d="m1024.5 756.74c-9.8438 0-17.812 7.9688-17.812 17.812s7.9688 17.812 17.812 17.812 17.812-7.9688 17.812-17.812-7.9688-17.812-17.812-17.812z"/>
 <path d="m939.84 283.5c51.094 0 95.625-28.031 119.16-69.469 1.5938-2.8125 1.5938-6.375 0-9.2812-20.906-36.75-58.219-62.906-102-68.438-5.625-0.75-11.344-1.125-17.156-1.125-24.844 0-48.188 6.6562-68.25 18.281-2.0625 1.125-3.9375 2.4375-5.9062 3.6562-0.75 0.46875-1.5938 0.9375-2.3438 1.5-17.531 11.812-32.156 27.656-42.656 46.125-1.5938 2.8125-1.5938 6.375 0 9.2812 23.531 41.438 68.062 69.469 119.16 69.469zm-34.5-87.469c2.25-5.8125 6-10.875 10.688-14.812 6.4688-5.4375 14.719-8.9062 23.812-8.9062 20.438 0 37.031 16.594 37.031 37.031s-16.594 37.031-37.031 37.031-37.031-16.594-37.031-37.031c0-4.6875 0.9375-9.1875 2.5312-13.312z"/>
</svg>
